<svg width="37" height="28" viewBox="0 0 37 28" fill="none" xmlns="http://www.w3.org/2000/svg">
<path d="M21.439 23.7486C21.5577 23.7487 21.6752 23.7253 21.7849 23.6799C21.8946 23.6346 21.9942 23.568 22.0782 23.4841C22.1621 23.4001 22.2287 23.3005 22.2741 23.1908C22.3194 23.0811 22.3428 22.9636 22.3427 22.8449C22.3428 22.7262 22.3195 22.6086 22.2741 22.4989C22.2288 22.3892 22.1622 22.2895 22.0783 22.2055C21.9943 22.1216 21.8947 22.055 21.785 22.0096C21.6753 21.9642 21.5577 21.9408 21.439 21.9409H4.15873C3.13768 21.9409 2.30003 21.1103 2.30003 20.0813V3.51683C2.30003 3.3476 2.33688 3.18603 2.38082 3.03182L15.1721 14.1438C15.3352 14.2853 15.5437 14.3635 15.7597 14.3641C15.9729 14.3641 16.1787 14.2906 16.3476 14.1438L29.2562 2.93629C29.3299 3.11998 29.3739 3.31104 29.3739 3.51683V9.96207C29.3738 10.0808 29.397 10.1984 29.4424 10.3081C29.4878 10.4178 29.5543 10.5175 29.6383 10.6014C29.7222 10.6854 29.8219 10.752 29.9316 10.7974C30.0413 10.8428 30.1588 10.8661 30.2776 10.8661C30.3963 10.8661 30.5139 10.8428 30.6236 10.7974C30.7333 10.7519 30.833 10.6853 30.9169 10.6013C31.0009 10.5173 31.0674 10.4176 31.1128 10.3079C31.1581 10.1981 31.1814 10.0805 31.1813 9.96178V3.51683C31.1813 1.65728 29.6675 0.143555 27.8091 0.143555H3.87243C3.02741 0.143555 2.25581 0.459339 1.66818 0.974119C1.65344 0.988576 1.63869 1.00332 1.61687 1.01806C0.933707 1.63517 0.5 2.52441 0.5 3.51655V20.089C0.5 22.1025 2.13845 23.7486 4.15873 23.7486H21.439ZM15.7671 12.2695L3.87243 1.94415H27.6546L15.7671 12.2692V12.2695ZM25.8254 19.1411H32.9447V17.2741C32.9447 15.797 31.7471 14.5991 30.2702 14.5991C29.161 14.5991 28.1839 15.268 27.7796 16.3041C27.7363 16.4142 27.6718 16.5147 27.5896 16.5998C27.5074 16.6849 27.4093 16.7529 27.3007 16.8C27.1922 16.8471 27.0755 16.8724 26.9572 16.8743C26.8389 16.8762 26.7214 16.8548 26.6115 16.8112C26.5014 16.7679 26.4009 16.7032 26.3159 16.621C26.2308 16.5387 26.1628 16.4405 26.1157 16.332C26.0686 16.2234 26.0434 16.1066 26.0415 15.9883C26.0396 15.87 26.061 15.7525 26.1046 15.6425C26.7804 13.9156 28.4115 12.7985 30.2702 12.7985C32.7389 12.7985 34.7447 14.8049 34.7447 17.2741V19.1482C35.7071 19.1629 36.4858 19.9492 36.4858 20.9119V26.071C36.4857 26.5406 36.2991 26.9909 35.9671 27.323C35.6351 27.6551 35.1849 27.8419 34.7153 27.8422H25.8251C25.3555 27.8419 24.9052 27.6552 24.5731 27.3231C24.241 26.991 24.0544 26.5407 24.0543 26.071V20.9119C24.0544 20.4423 24.241 19.9919 24.5731 19.6598C24.9052 19.3277 25.3555 19.141 25.8251 19.1408L25.8254 19.1411ZM34.6858 26.0348V20.9414H25.862V26.0345H34.6858V26.0348Z" fill="#999999"/>
</svg>
