<svg width="24" height="24" viewBox="0 0 24 24" fill="none" xmlns="http://www.w3.org/2000/svg">
<path d="M18.2048 0.000214168C16.6676 -0.00397113 15.1929 0.606802 14.1086 1.69608L1.64017 14.164C0.58655 15.212 -0.00419209 16.6378 2.23964e-05 18.1238V24H5.87644C7.36258 24.0042 8.78843 23.4135 9.83648 22.3599L22.3049 9.89202C23.3909 8.80466 24.0006 7.33066 24 5.79408C23.9994 4.25722 23.3886 2.78372 22.3018 1.69729C21.2153 0.610787 19.7414 0.000285715 18.2046 0L18.2048 0.000214168ZM8.13647 20.6645C7.53684 21.2636 6.72405 21.6001 5.87658 21.6004H2.40042V18.1244C2.39958 17.2756 2.73637 16.4612 3.33632 15.8605L12.7525 6.4483L17.5526 11.2482L8.13647 20.6645ZM20.6049 8.19666L19.2488 9.55266L14.4487 4.75272L15.8048 3.39672C16.4334 2.72456 17.3079 2.33643 18.2282 2.32108C19.1484 2.30573 20.0355 2.66455 20.6861 3.31551C21.3371 3.96618 21.696 4.85315 21.6806 5.77337C21.6653 6.69359 21.2771 7.56802 20.6049 8.19666Z" fill="#B62122"/>
</svg>
