<svg width="21" height="20" viewBox="0 0 21 20" fill="none" xmlns="http://www.w3.org/2000/svg">
<path d="M15.6126 15.3037C16.6804 14.2549 17.4077 12.9184 17.7023 11.4634C17.9969 10.0084 17.8458 8.50031 17.2679 7.12975C16.69 5.75919 15.7114 4.58779 14.4558 3.76369C13.2002 2.93959 11.724 2.49982 10.214 2.5C9.87654 2.5 9.55291 2.3683 9.3143 2.13388C9.07569 1.89946 8.94164 1.58152 8.94164 1.25C8.94164 0.918479 9.07569 0.600537 9.3143 0.366116C9.55291 0.131696 9.87654 0 10.214 0C12.2272 0 14.1951 0.58649 15.8691 1.6853C17.543 2.78412 18.8476 4.3459 19.618 6.17316C20.3884 8.00043 20.59 10.0111 20.1972 11.9509C19.8045 13.8907 18.8351 15.6725 17.4115 17.0711C15.988 18.4696 14.1743 19.422 12.1998 19.8078C10.2253 20.1937 8.17866 19.9957 6.31872 19.2388C4.45878 18.4819 2.86906 17.2002 1.7506 15.5557C0.632135 13.9112 0.0351563 11.9778 0.0351562 10C0.0351563 9.66848 0.169208 9.35054 0.40782 9.11611C0.646433 8.88169 0.970061 8.75 1.30751 8.75C1.64496 8.75 1.96859 8.88169 2.2072 9.11611C2.44581 9.35054 2.57987 9.66848 2.57987 10C2.57968 11.4835 3.02732 12.9337 3.86616 14.1672C4.70499 15.4008 5.89735 16.3622 7.29241 16.9299C8.68748 17.4977 10.2226 17.6462 11.7036 17.3567C13.1846 17.0673 14.5449 16.3528 15.6126 15.3037Z" fill="#4C9EEA"/>
</svg>
