<svg width="92" height="68" viewBox="0 0 92 68" fill="none" xmlns="http://www.w3.org/2000/svg">
<path d="M46.0004 0.0010592C38.9199 0.0010592 31.8016 2.70156 26.4032 8.09992C22.3884 12.1147 19.9548 17.0943 18.9226 22.2876C8.44678 24.3195 0.5 33.4685 0.5 44.5112C0.5 57.0403 10.7204 67.2612 23.25 67.2612H71.7174C82.6257 67.2612 91.5 58.387 91.5 47.4786C91.5 37.1837 83.5689 28.8035 73.5102 27.8815C73.5564 20.721 71.0132 13.5461 65.5659 8.09886C60.1732 2.70474 53.0809 0 46.0005 0L46.0004 0.0010592ZM46.0004 5.9362C51.5773 5.9362 57.0998 8.00948 61.3631 12.2728C66.2895 17.1992 68.3738 23.8917 67.6074 30.2926H67.6067C67.5004 31.1365 67.7612 31.9851 68.3229 32.6233C68.8845 33.2615 69.6931 33.6286 70.5431 33.6306H71.7174C79.4402 33.6306 85.5649 39.7555 85.5649 47.4781C85.5649 55.2009 79.4401 61.3256 71.7174 61.3256H23.25C13.928 61.3256 6.43499 53.8318 6.43499 44.5105C6.43499 35.7073 13.1296 28.5359 21.7045 27.7568V27.7575C22.3772 27.6919 23.0072 27.3994 23.4901 26.9268C23.9737 26.4548 24.2815 25.8318 24.3629 25.1611C24.9086 20.4577 26.9903 15.8881 30.6071 12.2712C34.8662 8.01281 40.4232 5.93457 46.0001 5.93457L46.0004 5.9362ZM46.0004 23.7405C45.0109 23.7405 44.488 24.0586 43.9912 24.5133L33.1104 34.4046C31.854 35.5706 31.876 37.4631 32.9248 38.6086C33.9735 39.7539 35.9778 39.8367 37.1288 38.7942L43.0328 33.416V52.4249C43.0328 54.0636 44.361 55.3925 46.0004 55.3925C47.6398 55.3925 48.968 54.0636 48.968 52.4249V33.416L54.872 38.7942C56.0229 39.8374 57.9666 39.696 59.076 38.6086C60.2448 37.4632 60.0309 35.4589 58.8904 34.4046L48.0096 24.5133C47.4217 23.9744 46.9898 23.7399 46.0004 23.7399L46.0004 23.7405Z" fill="#B72122" fill-opacity="0.19"/>
</svg>
