<svg width="20" height="20" viewBox="0 0 20 20" fill="none" xmlns="http://www.w3.org/2000/svg">
<circle cx="10" cy="10" r="10" fill="#036EEB"/>
<path d="M8.90356 12.288C8.90356 11.8933 8.96756 11.5467 9.09556 11.248C9.22356 10.9493 9.3889 10.6827 9.59156 10.448C9.79423 10.2133 10.0076 9.99467 10.2316 9.792C10.4662 9.58933 10.6849 9.392 10.8876 9.2C11.0902 9.008 11.2556 8.80533 11.3836 8.592C11.5116 8.37867 11.5756 8.13867 11.5756 7.872C11.5756 7.424 11.3942 7.06133 11.0316 6.784C10.6689 6.50667 10.1836 6.368 9.57556 6.368C8.9889 6.368 8.4769 6.47467 8.03956 6.688C7.6129 6.90133 7.25556 7.20533 6.96756 7.6L5.41556 6.592C5.86356 5.984 6.45023 5.50933 7.17556 5.168C7.9009 4.816 8.75956 4.64 9.75156 4.64C10.5302 4.64 11.2129 4.75733 11.7996 4.992C12.3862 5.216 12.8449 5.54667 13.1756 5.984C13.5062 6.41067 13.6716 6.93333 13.6716 7.552C13.6716 7.97867 13.6022 8.352 13.4636 8.672C13.3356 8.992 13.1649 9.27467 12.9516 9.52C12.7489 9.75467 12.5302 9.97867 12.2956 10.192C12.0609 10.3947 11.8369 10.5973 11.6236 10.8C11.4209 11.0027 11.2556 11.2213 11.1276 11.456C10.9996 11.6907 10.9356 11.968 10.9356 12.288H8.90356ZM9.92756 16.112C9.55423 16.112 9.2449 15.9893 8.99956 15.744C8.7649 15.4987 8.64756 15.2053 8.64756 14.864C8.64756 14.5227 8.7649 14.2347 8.99956 14C9.2449 13.7547 9.55423 13.632 9.92756 13.632C10.3009 13.632 10.6049 13.7547 10.8396 14C11.0742 14.2347 11.1916 14.5227 11.1916 14.864C11.1916 15.2053 11.0742 15.4987 10.8396 15.744C10.6049 15.9893 10.3009 16.112 9.92756 16.112Z" fill="white"/>
</svg>
