<svg width="24" height="22" viewBox="0 0 24 22" fill="none" xmlns="http://www.w3.org/2000/svg">
<path d="M19.7312 17.7875L19.2812 18.2375C18.7812 18.7375 18.1313 18.9875 17.4312 18.9875H16.1312C14.9312 18.9875 13.6312 18.0375 13.6312 16.3875V15.1375C13.6312 14.1375 14.0812 13.5375 14.3312 13.1875L19.7312 7.6875C19.8812 7.5375 20.0312 7.1875 20.0312 6.9875V2.8375C20.0312 1.5375 18.9312 0.4375 17.6312 0.4375H4.83125C3.53125 0.4375 2.43125 1.6375 2.43125 2.8375H1.63125C0.73125 2.8375 0.03125 3.5875 0.03125 4.4875C0.03125 5.3875 0.73125 6.0875 1.63125 6.0875H2.43125V9.3375H1.63125C0.73125 9.3375 0.03125 10.0375 0.03125 10.9375C0.03125 11.8375 0.73125 12.5375 1.63125 12.5375H2.43125V15.7875H1.63125C0.73125 15.7875 0.03125 16.5375 0.03125 17.3875C0.03125 18.2875 0.73125 18.9875 1.63125 18.9875H2.43125C2.43125 20.5875 3.53125 21.3875 4.83125 21.3875H17.6312C18.9312 21.3875 20.0312 20.2875 20.0312 18.9875V17.9375C20.0312 17.6875 19.9312 17.6375 19.7312 17.7875ZM15.6312 6.4875C15.6312 6.9375 15.2812 7.2875 14.8312 7.2875H6.83125C6.38125 7.2875 6.03125 6.9375 6.03125 6.4875V5.6875C6.03125 5.2375 6.38125 4.8875 6.83125 4.8875H14.8312C15.2812 4.8875 15.6312 5.2375 15.6312 5.6875V6.4875ZM12.0312 16.1875C12.0312 16.6375 11.6813 16.9875 11.2312 16.9875H6.83125C6.38125 16.9875 6.03125 16.6375 6.03125 16.1875V15.3875C6.03125 14.9375 6.38125 14.5875 6.83125 14.5875H11.2312C11.6813 14.5875 12.0312 14.9375 12.0312 15.3875V16.1875ZM13.2312 11.3375C13.2312 11.7875 12.8813 12.1375 12.4312 12.1375H6.83125C6.38125 12.1375 6.03125 11.7875 6.03125 11.3375V10.5375C6.03125 10.0875 6.38125 9.7375 6.83125 9.7375H12.4312C12.8813 9.7375 13.2312 10.0875 13.2312 10.5375V11.3375ZM23.7812 9.1375L23.2812 8.6375C22.9812 8.3375 22.4812 8.3375 22.1812 8.6375L16.0812 14.9375C16.0312 14.9375 16.0312 15.0375 16.0312 15.0375V16.3875C16.0312 16.4875 16.0312 16.5875 16.1312 16.5875H17.4312C17.4812 16.5875 17.5312 16.5375 17.5812 16.5375L23.7312 10.3375C24.1312 9.9875 24.1312 9.4875 23.7812 9.1375Z" fill="#B62122"/>
</svg>
