<svg width="405" height="348" viewBox="0 0 405 348" fill="none" xmlns="http://www.w3.org/2000/svg">
<g clip-path="url(#clip0_269_11808)">
<path d="M30.4135 319.356C32.7472 320.178 35.2529 320.383 37.6891 319.954C40.1253 319.524 42.4099 318.473 44.3228 316.903C49.1945 312.808 50.7223 306.064 51.9647 299.818L55.6408 281.343L47.9447 286.65C42.4098 290.466 36.7506 294.404 32.9186 299.931C29.0867 305.459 27.4149 313.004 30.4929 318.985" fill="#E6E6E6"/>
<path d="M31.5985 343.01C30.6298 335.943 29.6332 328.785 30.3143 321.643C30.9179 315.3 32.8506 309.105 36.7853 304.024C38.8739 301.332 41.4152 299.026 44.2951 297.209C45.0459 296.735 45.7371 297.926 44.9896 298.399C40.0063 301.552 36.1519 306.209 33.9821 311.697C31.5857 317.8 31.2009 324.454 31.6136 330.937C31.8631 334.858 32.3933 338.753 32.9258 342.643C32.9679 342.819 32.9416 343.004 32.8524 343.162C32.7632 343.319 32.6176 343.436 32.4452 343.49C32.2693 343.538 32.0818 343.514 31.9233 343.424C31.7649 343.334 31.6484 343.185 31.599 343.009L31.5985 343.01Z" fill="#F2F2F2"/>
<path d="M38.5742 331.671C39.5749 333.194 40.9507 334.434 42.5689 335.271C44.1871 336.107 45.9932 336.513 47.8131 336.447C52.4913 336.225 56.3898 332.957 59.8989 329.853L70.2803 320.675L63.4098 320.346C58.4688 320.109 53.4004 319.886 48.6942 321.414C43.9881 322.941 39.6479 326.612 38.7875 331.49" fill="#E6E6E6"/>
<path d="M28.8639 347.072C33.5274 338.81 38.9362 329.627 48.6017 326.692C51.2889 325.878 54.1066 325.587 56.9031 325.833C57.7847 325.91 57.5645 327.27 56.6848 327.194C51.9971 326.804 47.3184 328.044 43.4364 330.704C39.7008 333.25 36.7921 336.79 34.3305 340.543C32.8225 342.843 31.4718 345.24 30.1211 347.633C29.6895 348.399 28.4273 347.846 28.8639 347.072Z" fill="#F2F2F2"/>
<path d="M402.011 245.071H144.906C144.114 245.07 143.355 244.755 142.794 244.194C142.234 243.633 141.919 242.872 141.918 242.079V2.99232C141.919 2.19902 142.234 1.43852 142.794 0.877573C143.355 0.31663 144.114 0.00103513 144.906 -1.90735e-06H402.011C402.804 0.00103513 403.563 0.31663 404.123 0.877573C404.683 1.43852 404.999 2.19902 405 2.99232V242.078C404.999 242.872 404.684 243.632 404.123 244.193C403.563 244.754 402.804 245.07 402.011 245.071V245.071Z" fill="white"/>
<path d="M402.011 245.071H144.906C144.114 245.07 143.355 244.755 142.794 244.194C142.234 243.633 141.919 242.872 141.918 242.079V2.99232C141.919 2.19902 142.234 1.43852 142.794 0.877573C143.355 0.31663 144.114 0.00103513 144.906 -1.90735e-06H402.011C402.804 0.00103513 403.563 0.31663 404.123 0.877573C404.683 1.43852 404.999 2.19902 405 2.99232V242.078C404.999 242.872 404.684 243.632 404.123 244.193C403.563 244.754 402.804 245.07 402.011 245.071V245.071ZM144.906 1.19457C144.431 1.1956 143.976 1.38493 143.641 1.72111C143.305 2.05729 143.116 2.51296 143.115 2.98839V242.078C143.116 242.554 143.305 243.01 143.641 243.346C143.976 243.682 144.431 243.871 144.906 243.872H402.011C402.486 243.871 402.941 243.682 403.277 243.346C403.613 243.01 403.802 242.554 403.803 242.078V2.99232C403.802 2.51688 403.613 2.06122 403.277 1.72504C402.941 1.38885 402.486 1.19953 402.011 1.19849L144.906 1.19457Z" fill="#CACACA"/>
<path d="M266.392 62.1275C265.855 62.1284 265.34 62.3428 264.96 62.7237C264.58 63.1046 264.367 63.6208 264.367 64.159C264.367 64.6971 264.58 65.2133 264.96 65.5942C265.34 65.9751 265.855 66.1895 266.392 66.1904H377.715C378.253 66.1895 378.768 65.9751 379.148 65.5942C379.527 65.2133 379.741 64.6971 379.741 64.159C379.741 63.6208 379.527 63.1046 379.148 62.7237C378.768 62.3428 378.253 62.1284 377.715 62.1275H266.392Z" fill="#E4E4E4"/>
<path d="M266.395 74.3176C265.858 74.3189 265.343 74.5335 264.964 74.9143C264.584 75.2952 264.371 75.8111 264.371 76.3491C264.371 76.887 264.584 77.403 264.964 77.7838C265.343 78.1647 265.858 78.3793 266.395 78.3806H323.228C323.765 78.3793 324.28 78.1647 324.659 77.7838C325.038 77.403 325.251 76.887 325.251 76.3491C325.251 75.8111 325.038 75.2952 324.659 74.9143C324.28 74.5335 323.765 74.3189 323.228 74.3176H266.395Z" fill="#E4E4E4"/>
<path d="M169.094 139.872C168.557 139.873 168.042 140.088 167.663 140.469C167.283 140.849 167.07 141.365 167.07 141.903C167.07 142.441 167.283 142.957 167.663 143.338C168.042 143.719 168.557 143.933 169.094 143.935H377.825C378.362 143.933 378.877 143.719 379.256 143.338C379.636 142.957 379.849 142.441 379.849 141.903C379.849 141.365 379.636 140.849 379.256 140.469C378.877 140.088 378.362 139.873 377.825 139.872H169.094Z" fill="#E4E4E4"/>
<path d="M169.094 152.062C168.557 152.063 168.042 152.278 167.663 152.659C167.283 153.039 167.07 153.555 167.07 154.093C167.07 154.631 167.283 155.147 167.663 155.528C168.042 155.909 168.557 156.124 169.094 156.125H323.335C323.872 156.124 324.387 155.909 324.766 155.528C325.145 155.147 325.359 154.631 325.359 154.093C325.359 153.555 325.145 153.039 324.766 152.659C324.387 152.278 323.872 152.063 323.335 152.062H169.094Z" fill="#E4E4E4"/>
<path d="M169.094 163.976C168.557 163.978 168.042 164.192 167.663 164.573C167.283 164.954 167.07 165.47 167.07 166.008C167.07 166.546 167.283 167.062 167.663 167.442C168.042 167.823 168.557 168.038 169.094 168.039H377.825C378.362 168.038 378.877 167.823 379.256 167.442C379.636 167.062 379.849 166.546 379.849 166.008C379.849 165.47 379.636 164.954 379.256 164.573C378.877 164.192 378.362 163.978 377.825 163.976H169.094Z" fill="#E4E4E4"/>
<path d="M169.094 176.166C168.557 176.168 168.042 176.382 167.663 176.763C167.283 177.144 167.07 177.66 167.07 178.198C167.07 178.736 167.283 179.252 167.663 179.633C168.042 180.013 168.557 180.228 169.094 180.229H323.335C323.872 180.228 324.387 180.013 324.766 179.633C325.145 179.252 325.359 178.736 325.359 178.198C325.359 177.66 325.145 177.144 324.766 176.763C324.387 176.382 323.872 176.168 323.335 176.166H169.094Z" fill="#E4E4E4"/>
<path d="M169.094 188.398C168.557 188.399 168.042 188.614 167.663 188.995C167.283 189.376 167.07 189.892 167.07 190.43C167.07 190.967 167.283 191.483 167.663 191.864C168.042 192.245 168.557 192.46 169.094 192.461H377.825C378.362 192.46 378.877 192.245 379.256 191.864C379.636 191.483 379.849 190.967 379.849 190.43C379.849 189.892 379.636 189.376 379.256 188.995C378.877 188.614 378.362 188.399 377.825 188.398H169.094Z" fill="#E4E4E4"/>
<path d="M169.094 200.588C168.557 200.589 168.042 200.804 167.663 201.185C167.283 201.566 167.07 202.082 167.07 202.62C167.07 203.158 167.283 203.674 167.663 204.054C168.042 204.435 168.557 204.65 169.094 204.651H323.335C323.872 204.65 324.387 204.435 324.766 204.054C325.145 203.674 325.359 203.158 325.359 202.62C325.359 202.082 325.145 201.566 324.766 201.185C324.387 200.804 323.872 200.589 323.335 200.588H169.094Z" fill="#E4E4E4"/>
<path d="M202.156 99.4409C196.391 99.441 190.756 97.7292 185.962 94.5222C181.169 91.3151 177.433 86.7567 175.227 81.4235C173.02 76.0902 172.443 70.2217 173.568 64.5599C174.693 58.8982 177.469 53.6975 181.545 49.6156C185.621 45.5337 190.815 42.7539 196.469 41.6277C202.123 40.5015 207.984 41.0795 213.31 43.2886C218.636 45.4976 223.188 49.2386 226.391 54.0384C229.594 58.8382 231.304 64.4812 231.304 70.2539C231.295 77.992 228.221 85.4107 222.757 90.8824C217.292 96.3542 209.884 99.4321 202.156 99.4409Z" fill="#DA3232"/>
<path d="M113.677 209.799C113.627 208.734 113.344 207.692 112.848 206.748C112.352 205.805 111.656 204.981 110.808 204.336C109.96 203.69 108.981 203.239 107.94 203.014C106.899 202.788 105.821 202.794 104.782 203.031L95.1479 189.435L85.4688 193.283L99.3439 212.291C99.8567 214.012 100.982 215.484 102.507 216.43C104.031 217.375 105.849 217.727 107.616 217.42C109.383 217.113 110.976 216.167 112.093 214.763C113.21 213.358 113.774 211.592 113.677 209.799H113.677Z" fill="#A0616A"/>
<path d="M94.8986 208.791L65.7461 170.921L76.6693 136.545C77.4697 127.903 82.8706 125.489 83.1005 125.391L83.451 125.24L92.9562 150.622L85.9771 169.258L103.107 198.107L94.8986 208.791Z" fill="#3F3D56"/>
<path d="M196.14 92.0499C195.083 92.1826 194.068 92.5457 193.167 93.1137C192.265 93.6816 191.499 94.4406 190.922 95.3371C190.345 96.2336 189.972 97.2459 189.828 98.3026C189.684 99.3594 189.773 100.435 190.089 101.453L177.297 112.123L181.876 121.489L199.73 106.167C201.403 105.522 202.782 104.284 203.606 102.689C204.429 101.094 204.639 99.2519 204.197 97.5118C203.754 95.7717 202.69 94.2546 201.205 93.2479C199.72 92.2413 197.918 91.815 196.14 92.0499Z" fill="#A0616A"/>
<path d="M196.59 110.874L161.137 142.906L126.066 134.659C117.399 134.528 114.578 129.323 114.462 129.101L114.285 128.763L138.822 117.311L157.917 122.837L185.316 103.505L196.59 110.874Z" fill="#3F3D56"/>
<path d="M135.181 338.592L144.707 338.591L149.238 301.801L135.18 301.802L135.181 338.592Z" fill="#A0616A"/>
<path d="M163.074 347.447L133.137 347.448L133.137 335.866L154.675 335.865C156.902 335.865 159.039 336.751 160.614 338.328C162.189 339.906 163.074 342.045 163.074 344.275L163.074 347.447L163.074 347.447Z" fill="#2F2E41"/>
<path d="M97.1067 338.592L106.632 338.591L111.164 301.801L97.1055 301.802L97.1067 338.592Z" fill="#A0616A"/>
<path d="M125.004 347.447L95.0672 347.448L95.0666 335.866L116.605 335.865C117.708 335.865 118.8 336.083 119.819 336.506C120.838 336.928 121.764 337.548 122.544 338.328C123.323 339.109 123.942 340.037 124.364 341.057C124.786 342.077 125.004 343.171 125.004 344.275L125.004 347.447Z" fill="#2F2E41"/>
<path d="M93.7188 204.304L94.4956 258.764L95.2731 330.34L112.366 328.784L120.913 229.978L131.79 328.784H149.436L151.214 229.2L144.998 207.416L93.7188 204.304Z" fill="#2F2E41"/>
<path d="M127.175 211.617C108.576 211.619 91.4567 203.19 91.2257 203.074L91.0337 202.978L89.4729 165.472C89.0204 164.146 80.1084 137.994 78.599 129.681C77.0697 121.259 99.2336 113.868 101.925 113.004L102.536 106.229L127.373 103.549L130.521 112.218L139.432 115.563C140.442 115.943 141.278 116.681 141.781 117.636C142.285 118.592 142.421 119.699 142.163 120.748L137.211 140.915L149.306 207.636L146.702 207.748C140.461 210.571 133.724 211.617 127.175 211.617Z" fill="#3F3D56"/>
<path d="M124.507 97.0634C133.173 92.3197 136.358 81.4394 131.621 72.7616C126.883 64.0838 116.018 60.8947 107.352 65.6384C98.6855 70.3821 95.5006 81.2624 100.238 89.9402C104.975 98.618 115.841 101.807 124.507 97.0634Z" fill="#A0616A"/>
<path d="M101.446 98.6863C104.854 102.322 111.183 100.37 111.627 95.4039C111.662 95.0183 111.659 94.6303 111.62 94.2452C111.39 92.0454 110.121 90.0482 110.425 87.7255C110.494 87.1474 110.709 86.5965 111.05 86.125C113.766 82.4834 120.141 87.7538 122.704 84.4572C124.276 82.4358 122.428 79.2532 123.634 76.9939C125.226 74.012 129.941 75.483 132.897 73.85C136.187 72.033 135.99 66.979 133.825 63.9049C131.184 60.1558 126.554 58.1554 121.981 57.8671C117.408 57.5788 112.867 58.8165 108.598 60.4824C103.748 62.3752 98.938 64.991 95.9532 69.2617C92.3233 74.4554 91.9739 81.4377 93.7893 87.5106C94.8937 91.2049 98.6626 95.7178 101.446 98.6863Z" fill="#2F2E41"/>
<path d="M227.234 347.909H0.594855C0.437089 347.909 0.285776 347.846 0.174219 347.734C0.0626625 347.622 0 347.471 0 347.313C0 347.155 0.0626625 347.003 0.174219 346.892C0.285776 346.78 0.437089 346.717 0.594855 346.717H227.234C227.392 346.717 227.544 346.78 227.655 346.892C227.767 347.003 227.829 347.155 227.829 347.313C227.829 347.471 227.767 347.622 227.655 347.734C227.544 347.846 227.392 347.909 227.234 347.909Z" fill="#CACACA"/>
<path d="M200.473 81.2778C199.947 81.2785 199.441 81.0793 199.056 80.7206L189.445 71.7814C189.041 71.405 188.803 70.8834 188.783 70.3312C188.763 69.779 188.962 69.2414 189.338 68.8366C189.713 68.4317 190.234 68.1927 190.785 68.172C191.337 68.1514 191.874 68.3507 192.278 68.7264L200.419 76.2983L216.526 60.1702C216.719 59.9754 216.949 59.8207 217.202 59.715C217.455 59.6092 217.726 59.5545 218 59.554C218.274 59.5535 218.546 59.6072 218.799 59.712C219.052 59.8168 219.282 59.9707 219.476 60.1648C219.67 60.3589 219.824 60.5894 219.928 60.8431C220.033 61.0967 220.086 61.3686 220.086 61.6431C220.085 61.9175 220.031 62.1892 219.925 62.4424C219.819 62.6957 219.665 62.9255 219.47 63.1188L201.945 80.6673C201.752 80.8612 201.522 81.0149 201.27 81.1196C201.017 81.2244 200.746 81.2781 200.473 81.2778Z" fill="white"/>
</g>
<defs>
<clipPath id="clip0_269_11808">
<rect width="405" height="348" fill="white"/>
</clipPath>
</defs>
</svg>
