<svg width="30" height="30" viewBox="0 0 30 30" fill="none" xmlns="http://www.w3.org/2000/svg">
<path fill-rule="evenodd" clip-rule="evenodd" d="M26.8545 29.3579L29.7796 26.4288C29.7796 26.4288 30.4546 25.0769 29.442 23.9504C28.5419 22.9363 24.4918 19.1061 24.4918 19.1061C24.4918 19.1061 23.3667 18.3174 21.904 19.782C20.5539 21.2467 20.5539 21.2467 20.5539 21.2467C20.5539 21.2467 19.8789 21.8101 18.9788 21.3595C15.2661 19.4441 10.5412 14.7125 8.62847 11.1076C8.17845 10.2064 8.85348 9.41762 8.85348 9.41762C8.85348 9.41762 8.74084 9.5304 10.2036 8.06571C11.7786 6.60106 10.9912 5.47445 10.9912 5.47445C10.9912 5.47445 7.16601 1.53136 6.04099 0.517563C4.91597 -0.496498 3.56589 0.292248 3.56589 0.292248L0.640747 3.1088C-3.97207 12.4596 17.5167 33.9775 26.8549 29.3584L26.8545 29.3579Z" fill="#717274"/>
</svg>
