<svg width="30" height="30" viewBox="0 0 30 30" fill="none" xmlns="http://www.w3.org/2000/svg">
<path d="M25.0001 0H4.99989C3.67379 0 2.40213 0.526711 1.46442 1.46442C0.52671 2.40213 0 3.67379 0 4.99989V25.0001C0 26.3262 0.52671 27.5979 1.46442 28.5356C2.40213 29.4733 3.67379 30 4.99989 30H25.0001C26.3262 30 27.5979 29.4733 28.5356 28.5356C29.4733 27.5979 30 26.3262 30 25.0001V4.99989C30 3.67379 29.4733 2.40213 28.5356 1.46442C27.5979 0.526711 26.3262 0 25.0001 0V0ZM27.5002 25H27.5C27.5 25.6629 27.2367 26.2989 26.7677 26.7676C26.299 27.2366 25.6631 27.4998 25.0001 27.4998H4.9999C4.33696 27.4998 3.70101 27.2366 3.23227 26.7676C2.76331 26.2989 2.50006 25.6629 2.50006 25V4.99979C2.50006 4.33684 2.76331 3.7009 3.23227 3.23216C3.70101 2.7632 4.33696 2.49995 4.9999 2.49995H25.0001C25.6631 2.49995 26.299 2.7632 26.7677 3.23216C27.2367 3.7009 27.5 4.33684 27.5 4.99979L27.5002 25Z" fill="#717274"/>
<path d="M14.9999 7.5C13.0109 7.5 11.1033 8.29017 9.69663 9.69663C8.29017 11.1033 7.5 13.0109 7.5 14.9999C7.5 16.989 8.29017 18.8966 9.69663 20.3033C11.1033 21.7097 13.0109 22.4999 14.9999 22.4999C16.989 22.4999 18.8966 21.7097 20.3033 20.3033C21.7097 18.8966 22.4999 16.989 22.4999 14.9999C22.4999 13.0109 21.7097 11.1033 20.3033 9.69663C18.8966 8.29017 16.989 7.5 14.9999 7.5ZM14.9999 19.9997C13.6738 19.9997 12.4022 19.473 11.4645 18.5353C10.5268 17.5976 10.0001 16.3259 10.0001 14.9998C10.0001 13.6737 10.5268 12.4021 11.4645 11.4644C12.4022 10.5267 13.6738 9.99995 14.9999 9.99995C16.326 9.99995 17.5977 10.5267 18.5354 11.4644C19.4731 12.4021 19.9998 13.6737 19.9998 14.9998C19.9998 16.3259 19.4731 17.5976 18.5354 18.5353C17.5977 19.473 16.326 19.9997 14.9999 19.9997Z" fill="#717274"/>
<path d="M25 6.87499C25 7.91062 24.1604 8.74997 23.125 8.74997C22.0894 8.74997 21.25 7.91062 21.25 6.87499C21.25 5.83957 22.0894 5 23.125 5C24.1604 5 25 5.83957 25 6.87499Z" fill="#717274"/>
</svg>
