<svg width="418" height="324" viewBox="0 0 418 324" fill="none" xmlns="http://www.w3.org/2000/svg">
<g clip-path="url(#clip0_322_6692)">
<path d="M264.313 323.176C264.313 323.176 257.921 307.432 277.095 295.624L264.313 323.176Z" fill="#E6E6E6"/>
<path d="M256.452 322.89C256.452 322.89 254.502 311.668 239.412 311.764L256.452 322.89Z" fill="#E6E6E6"/>
<path d="M400.612 323.176C400.612 323.176 392.168 302.376 417.5 286.776L400.612 323.176Z" fill="#E6E6E6"/>
<path d="M390.227 322.798C390.227 322.798 387.652 307.972 367.715 308.099L390.227 322.798Z" fill="#E6E6E6"/>
<path d="M242.68 90.0626L234.341 85.6299L234.965 85.2979L243.304 89.731L242.68 90.0626Z" fill="#CBCBCB"/>
<path d="M235.406 90.0626L234.782 89.731L243.121 85.2979L243.745 85.6299L235.406 90.0626Z" fill="#CBCBCB"/>
<path d="M173.339 55.7033L172.937 56.4893L175.292 57.6973L175.695 56.9114L173.339 55.7033Z" fill="#CBCBCB"/>
<path d="M222.181 81.7416L217.493 79.3371L217.895 78.5512L222.584 80.9556L222.181 81.7416ZM212.804 76.9327L208.115 74.528L208.517 73.7421L213.206 76.1467L212.804 76.9327ZM203.426 72.1236L198.737 69.7192L199.139 68.9332L203.828 71.3376L203.426 72.1236ZM194.048 67.3147L189.359 64.9103L189.762 64.1243L194.451 66.5287L194.048 67.3147ZM184.67 62.5058L179.981 60.1014L180.384 59.3154L185.073 61.7198L184.67 62.5058Z" fill="#CBCBCB"/>
<path d="M227.273 83.3596L226.87 84.1455L229.226 85.3536L229.628 84.5676L227.273 83.3596Z" fill="#CBCBCB"/>
<path d="M49.4011 114.815C49.4011 115.09 49.3922 115.364 49.3743 115.635C49.2741 117.199 48.8793 118.73 48.2105 120.147C48.2054 120.16 48.1993 120.171 48.1941 120.182C48.163 120.248 48.131 120.313 48.0982 120.378C47.8993 120.779 47.6787 121.169 47.4373 121.545C46.3346 123.275 44.8232 124.706 43.0366 125.712C41.2501 126.718 39.2434 127.268 37.1939 127.314L37.3175 134.425L38.9288 133.576L39.2165 134.123L37.3296 135.117L37.5603 148.323L37.5628 148.5L36.317 148.777L36.3196 148.6L36.7118 127.315C35.0622 127.291 33.4337 126.94 31.9208 126.281C30.408 125.623 29.041 124.67 27.8992 123.478C27.8206 123.397 27.7428 123.313 27.6668 123.23L27.6582 123.22C26.7068 122.182 25.9375 120.991 25.3825 119.696C25.3946 119.71 25.4075 119.723 25.4196 119.737C24.1653 116.801 24.0802 113.497 25.1818 110.501C26.2835 107.505 28.4884 105.044 31.3448 103.622C31.388 103.601 31.432 103.58 31.4752 103.558C34.3007 102.196 37.5344 101.946 40.5353 102.858C43.5363 103.77 46.0854 105.776 47.6774 108.48C47.7535 108.608 47.827 108.739 47.8978 108.87C48.8867 110.695 49.4035 112.739 49.4011 114.815Z" fill="#E5E5E5"/>
<path d="M47.7196 120.188C56.7637 120.188 64.0954 112.851 64.0954 103.801C64.0954 94.7501 56.7637 87.4131 47.7196 87.4131C38.6755 87.4131 31.3438 94.7501 31.3438 103.801C31.3438 112.851 38.6755 120.188 47.7196 120.188Z" fill="#E5E5E5"/>
<path opacity="0.2" d="M35.6279 92.8555C34.1004 96.4311 33.8932 100.434 35.0433 104.148C36.1934 107.863 38.6259 111.047 41.906 113.132C45.1862 115.217 49.1003 116.067 52.949 115.53C56.7976 114.992 60.33 113.103 62.9149 110.2C61.9818 112.384 60.5852 114.34 58.822 115.931C57.0587 117.521 54.9709 118.71 52.7032 119.413C50.4355 120.116 48.0422 120.317 45.689 120.003C43.3358 119.689 41.079 118.866 39.075 117.592C37.071 116.319 35.3677 114.624 34.0831 112.626C32.7985 110.628 31.9634 108.375 31.6355 106.022C31.3076 103.669 31.4948 101.272 32.1842 98.999C32.8736 96.7256 34.0486 94.6293 35.6279 92.8555Z" fill="black"/>
<path d="M48.6051 149.455L46.9326 148.985L46.9361 148.805L47.4373 121.546L47.4624 120.187L47.4629 120.147L47.5506 115.384L47.6774 108.482V108.481L47.7636 103.802H47.8097L47.8979 108.871L48.0127 115.469L48.0949 120.15V120.185L48.0984 120.378V120.379L48.2572 129.505L48.2738 130.411L48.6021 149.273L48.6051 149.455Z" fill="#3F3D56"/>
<path d="M50.3691 128.391L47.6621 129.817L48.0394 130.534L50.7463 129.108L50.3691 128.391Z" fill="#3F3D56"/>
<path d="M259.998 50.7647C239.329 49.5419 218.598 49.8608 197.976 51.7188C188.037 52.6179 177.939 53.589 168.184 55.7586C160.326 57.5062 151.206 60.4599 146.31 67.3395C145.284 68.7257 144.593 70.3305 144.291 72.0283C143.988 73.7262 144.082 75.4711 144.566 77.1266C145.733 81.0484 148.637 84.3128 151.73 86.8697C158.848 92.7544 167.68 96.1788 175.569 100.854C189.973 109.39 203.156 120.896 211.617 135.512C215.34 141.943 218.882 150.495 214.736 157.582C210.674 164.524 201.607 166.916 194.213 168.044C184.945 169.458 175.398 169.075 166.091 168.283C155.888 167.331 145.741 165.843 135.694 163.827C116.01 160.045 96.5049 155.234 76.5473 153.046C66.5405 151.868 56.4494 151.576 46.3912 152.173C37.3076 152.786 28.1461 154.224 19.6127 157.502C13.037 160.028 6.02762 163.849 2.47568 170.222C-0.948242 176.365 0.387195 183.45 4.11542 189.118C8.60123 195.938 15.5962 200.611 22.8687 204.027C31.1491 207.916 40.0057 210.437 48.8737 212.581C53.3713 213.668 57.8932 214.651 62.4155 215.629C63.3589 215.833 63.762 214.383 62.8152 214.178C53.6956 212.206 44.5495 210.227 35.6564 207.373C27.4267 204.731 19.0047 201.347 12.2653 195.8C6.81313 191.312 1.62923 184.757 1.95105 177.305C2.27546 169.792 8.57439 164.546 14.7482 161.317C22.4637 157.282 31.2297 155.317 39.8192 154.29C49.6545 153.193 59.5731 153.058 69.4345 153.887C89.3449 155.403 108.81 159.941 128.332 163.9C147.297 167.746 166.853 171.308 186.288 170.321C193.992 169.93 202.246 168.825 209.047 164.934C212.161 163.153 214.97 160.64 216.552 157.371C217.978 154.26 218.429 150.79 217.846 147.418C216.743 140.01 212.346 133.141 207.959 127.24C203.15 120.841 197.572 115.058 191.35 110.023C184.522 104.524 177.159 99.7242 169.373 95.6962C165.244 93.5208 161.057 91.429 157.122 88.9093C153.349 86.4934 149.628 83.5865 147.324 79.6646C145.331 76.2725 144.966 72.401 147.041 68.9606C149.14 65.481 152.757 63.0541 156.324 61.2807C164.917 57.0078 174.908 55.8641 184.31 54.6921C204.497 52.1843 224.842 51.1692 245.179 51.655C250.122 51.7713 255.062 51.9761 259.998 52.2693C260.965 52.3262 260.961 50.8214 259.998 50.7647V50.7647Z" fill="black"/>
<path d="M246.886 2.53388L250.008 0.0349965C247.583 -0.23279 246.586 1.09094 246.178 2.13869C244.283 1.35131 242.221 2.3832 242.221 2.3832L248.467 4.65263C248.152 3.81029 247.604 3.07532 246.886 2.53388Z" fill="#3F3D56"/>
<path d="M231.734 10.445L234.856 7.94613C232.431 7.67835 231.434 9.00207 231.026 10.0498C229.132 9.26244 227.069 10.2943 227.069 10.2943L233.316 12.5638C233 11.7214 232.452 10.9864 231.734 10.445Z" fill="#3F3D56"/>
<path d="M246.886 22.9704L250.008 20.4715C247.583 20.2037 246.586 21.5275 246.178 22.5752C244.283 21.7878 242.221 22.8197 242.221 22.8197L248.467 25.0891C248.152 24.2468 247.604 23.5118 246.886 22.9704Z" fill="#3F3D56"/>
<path d="M200.081 26.6733C205.276 26.6733 209.487 22.4588 209.487 17.26C209.487 12.0612 205.276 7.84668 200.081 7.84668C194.886 7.84668 190.674 12.0612 190.674 17.26C190.674 22.4588 194.886 26.6733 200.081 26.6733Z" fill="#FF6583"/>
<path d="M229.578 46.2664H183.432C183.374 46.2671 183.317 46.2626 183.26 46.2527L205.085 8.42384C205.218 8.1882 205.411 7.99215 205.645 7.85575C205.879 7.71934 206.144 7.64746 206.415 7.64746C206.685 7.64746 206.951 7.71934 207.185 7.85575C207.418 7.99215 207.612 8.1882 207.745 8.42384L222.391 33.8091L223.093 35.0236L229.578 46.2664Z" fill="#CE1A1A"/>
<path d="M255.27 46.2673H215.358L223.092 35.0254L223.648 34.2152L233.726 19.5651C233.904 19.3409 234.128 19.1568 234.382 19.0248C234.636 18.8927 234.915 18.8156 235.2 18.7986C235.486 18.7815 235.772 18.8248 236.04 18.9257C236.308 19.0266 236.552 19.1827 236.755 19.3841C236.807 19.4413 236.856 19.5017 236.9 19.5651L255.27 46.2673Z" fill="#CE1A1A"/>
<path d="M189.434 133.028C193.808 135.216 196.471 138.105 196.471 141.275C196.471 148.102 184.126 153.636 168.898 153.636C162.277 153.636 156.203 152.589 151.45 150.845C156.499 153.371 163.827 154.961 171.986 154.961C187.214 154.961 199.559 149.426 199.559 142.599C199.559 138.74 195.613 135.295 189.434 133.028Z" fill="#F1F1F1"/>
<path d="M199.163 137.718C204.099 140.186 207.103 143.447 207.103 147.023C207.103 154.726 193.174 160.971 175.991 160.971C168.52 160.971 161.666 159.79 156.303 157.822C162 160.672 170.269 162.466 179.475 162.466C196.658 162.466 210.588 156.221 210.588 148.517C210.588 144.163 206.136 140.276 199.163 137.718Z" fill="#F1F1F1"/>
<path d="M185.711 135.094C188.792 136.635 190.668 138.671 190.668 140.904C190.668 145.713 181.971 149.613 171.243 149.613C167.063 149.667 162.905 149.002 158.95 147.646C162.507 149.425 167.67 150.546 173.418 150.546C184.147 150.546 192.844 146.646 192.844 141.837C192.844 139.118 190.064 136.691 185.711 135.094Z" fill="#F1F1F1"/>
<path d="M142.413 134.211C142.413 134.211 143.09 144.116 162.501 144.116C181.913 144.116 187.708 134.211 187.708 134.211H142.413Z" fill="#3F3D56"/>
<path d="M169.965 108.222C167.163 106.092 163.646 105.129 160.15 105.535C163.274 106.289 166.033 108.12 167.942 110.706C169.852 113.293 170.79 116.469 170.593 119.679C170.395 122.889 169.074 125.926 166.862 128.259C164.649 130.591 161.687 132.069 158.494 132.433C161.548 133.171 164.763 132.834 167.598 131.479C170.433 130.124 172.715 127.833 174.061 124.992C175.407 122.152 175.734 118.934 174.989 115.88C174.243 112.825 172.469 110.122 169.965 108.222Z" fill="#3F3D56"/>
<path d="M163.604 103.748H162.281V135.274H163.604V103.748Z" fill="#3F3D56"/>
<path d="M250.583 80.3242L250.576 80.3121L250.558 79.542L254.704 73.5177L250.563 78.9656L250.548 79.1284L250.406 72.9708L253.988 66.7251L250.396 71.8891L250.434 59.1323L250.433 59.0898L250.432 59.1316L250.195 69.1857L246.931 65.1017L250.184 70.0518L250.113 75.5596L247.109 70.1843L250.102 76.3693L250.062 79.4319L249.952 87.9168L249.944 88.5508C250.221 88.5529 250.495 88.5483 250.766 88.537L250.578 80.3871L250.583 80.3242Z" fill="#CBCBCB"/>
<path d="M230.731 82.9736L230.724 82.9615L230.706 82.1914L234.852 76.1672L230.711 81.615L230.696 81.7778L230.554 75.6203L234.136 69.3745L230.544 74.5385L230.582 61.7817L230.581 61.7393L230.58 61.781L230.343 71.8351L227.079 67.7511L230.332 72.7013L230.261 78.209L227.257 72.8337L230.25 79.0188L230.21 82.0813L230.1 90.5662L230.092 91.2002C230.369 91.2023 230.643 91.1977 230.914 91.1864L230.726 83.0365L230.731 82.9736Z" fill="#CBCBCB"/>
<path d="M240.436 74.5849L240.429 74.5728L240.411 73.8027L244.558 67.7784L240.416 73.2263L240.402 73.3891L240.26 67.2316L243.841 60.9858L240.25 66.1498L240.287 53.3931L240.287 53.3506L240.286 53.3923L240.048 63.4464L236.784 59.3625L240.038 64.3126L239.966 69.8203L236.963 64.445L239.955 70.6301L239.915 73.6926L239.806 82.1775L239.798 82.8115C240.074 82.8136 240.348 82.809 240.619 82.7976L240.431 74.6478L240.436 74.5849Z" fill="#CBCBCB"/>
<path d="M76.4746 221.182C79.3984 221.182 81.7686 218.811 81.7686 215.885C81.7686 212.959 79.3984 210.587 76.4746 210.587C73.5508 210.587 71.1807 212.959 71.1807 215.885C71.1807 218.811 73.5508 221.182 76.4746 221.182Z" fill="#CE1A1A"/>
<path d="M359.047 313.678L354.146 315.5L344.79 297.449L352.024 294.76L359.047 313.678Z" fill="#FFB7B7"/>
<path d="M362.062 317.967L346.259 323.843L346.185 323.643C345.579 322.01 345.645 320.204 346.37 318.62C347.095 317.037 348.419 315.807 350.05 315.2L350.05 315.2L359.703 311.611L362.062 317.967Z" fill="#2F2E41"/>
<path d="M310.814 318.771L305.586 318.77L303.099 298.589L310.815 298.589L310.814 318.771Z" fill="#FFB7B7"/>
<path d="M311.722 323.843L294.863 323.842V323.629C294.863 321.888 295.555 320.217 296.785 318.986C298.016 317.754 299.685 317.063 301.425 317.062H301.426L311.722 317.063L311.722 323.843Z" fill="#2F2E41"/>
<path d="M334.752 178.804L333.046 175.39L318.546 182.645L318.973 185.632L316.201 189.26C316.201 189.26 311.509 191.821 312.362 200.356L313.215 208.465L314.282 218.921L306.818 244.741L302.98 278.883L300.208 306.411L313.642 305.77L326.009 260.959L347.759 309.185L362.686 305.344L342.215 257.544L339.656 237.486C339.656 237.486 341.362 226.816 333.259 219.561L334.539 215.72V210.987L338.803 188.406L334.752 178.804Z" fill="#2F2E41"/>
<path opacity="0.2" d="M335.151 227.602L325.769 260.891L326.251 261.027L335.633 227.738L335.151 227.602Z" fill="black"/>
<path d="M334.326 218.921H313.429V221.055H334.326V218.921Z" fill="#3F3D56"/>
<path d="M313.429 222.335C313.9 222.335 314.282 221.38 314.282 220.201C314.282 219.023 313.9 218.067 313.429 218.067C312.958 218.067 312.576 219.023 312.576 220.201C312.576 221.38 312.958 222.335 313.429 222.335Z" fill="#3F3D56"/>
<path d="M328.305 173.284C333.814 170.271 335.839 163.359 332.827 157.846C329.816 152.333 322.909 150.307 317.4 153.321C311.891 156.334 309.867 163.246 312.878 168.759C315.889 174.272 322.796 176.298 328.305 173.284Z" fill="#FFB7B7"/>
<path d="M340.248 159.242C345.802 159.242 350.304 154.736 350.304 149.178C350.304 143.62 345.802 139.114 340.248 139.114C334.693 139.114 330.191 143.62 330.191 149.178C330.191 154.736 334.693 159.242 340.248 159.242Z" fill="#2F2E41"/>
<path d="M353.01 148.1C353.407 149.433 353.523 150.834 353.351 152.215C353.179 153.596 352.723 154.925 352.012 156.121C351.3 157.316 350.349 158.351 349.218 159.16C348.087 159.969 346.8 160.534 345.44 160.82C344.079 161.107 342.674 161.107 341.313 160.823C339.953 160.538 338.665 159.974 337.533 159.167C336.401 158.359 335.449 157.326 334.736 156.131C334.023 154.937 333.566 153.607 333.392 152.227C334.113 154.648 335.717 156.709 337.886 158.002C340.054 159.294 342.63 159.723 345.1 159.203C347.57 158.684 349.755 157.253 351.221 155.196C352.686 153.139 353.325 150.606 353.01 148.1Z" fill="#2F2E41"/>
<path d="M313.28 160.145C312.985 162.746 313.556 165.372 314.903 167.616C316.251 169.86 318.301 171.597 320.735 172.557C323.169 173.517 325.851 173.647 328.366 172.926C330.881 172.206 333.089 170.676 334.647 168.572C336.205 166.469 337.026 163.91 336.983 161.292C336.941 158.675 336.036 156.144 334.41 154.093C332.785 152.042 330.528 150.584 327.991 149.946C325.454 149.309 322.777 149.526 320.375 150.565C318.389 148.962 315.927 149.459 313.925 151.151C311.662 153.063 310.99 154.377 309.234 157.523C310.961 157.765 311.554 159.902 313.28 160.145Z" fill="#2F2E41"/>
<path d="M355.066 194.356C354.938 197.727 354.686 204.363 354.686 204.702C354.686 205.059 349.659 215.475 347.487 219.958V219.96C347.333 220.276 347.194 220.563 347.071 220.815C346.904 221.163 346.639 221.455 346.311 221.658C345.982 221.86 345.602 221.964 345.216 221.956L335.724 221.786C335.203 221.777 334.705 221.567 334.334 221.199C333.964 220.831 333.75 220.335 333.737 219.813L332.678 178.026C332.675 177.888 332.699 177.751 332.749 177.623C332.799 177.495 332.875 177.378 332.971 177.279C333.067 177.18 333.182 177.102 333.308 177.048C333.435 176.995 333.572 176.967 333.709 176.967H345.949C346.466 176.967 346.973 177.113 347.411 177.388C347.849 177.663 348.2 178.056 348.425 178.522L354.3 190.684C354.851 191.827 355.114 193.088 355.066 194.356V194.356Z" fill="#CE1A1A"/>
<path d="M333.572 216.945C331.136 215.468 328.948 213.617 327.087 211.46C322.762 206.593 320.132 200.453 319.591 193.962C319.109 188.409 320.21 184.281 322.864 181.693C326.238 178.403 330.83 178.881 331.024 178.903L331.23 178.927L334.341 181.561L333.46 182.602L330.676 180.245C329.824 180.203 326.346 180.193 323.804 182.681C321.465 184.97 320.505 188.726 320.949 193.844C321.464 200.024 323.962 205.872 328.07 210.514C329.842 212.566 331.92 214.332 334.23 215.75L333.572 216.945Z" fill="#CE1A1A"/>
<path d="M351.234 201.07L334.65 204.479L334.741 204.924L351.325 201.515L351.234 201.07Z" fill="#3F3D56"/>
<path d="M340.303 176.957L339.849 176.976L340.926 203.382L341.38 203.364L340.303 176.957Z" fill="#3F3D56"/>
<path d="M355.066 194.355C354.938 197.727 354.686 204.363 354.686 204.701C354.686 205.058 349.659 215.475 347.487 219.958L351.535 196.435C351.692 195.53 352.086 194.683 352.677 193.981C353.268 193.278 354.035 192.745 354.9 192.437C355.036 193.067 355.092 193.711 355.066 194.355Z" fill="#3F3D56"/>
<path d="M330.194 243.652C330.552 243.19 330.805 242.655 330.934 242.084C331.064 241.514 331.067 240.922 330.943 240.35C330.819 239.778 330.571 239.241 330.217 238.775C329.863 238.309 329.411 237.927 328.893 237.655L329.716 228.548L324.307 226.697L323.326 239.576C322.927 240.476 322.872 241.492 323.172 242.43C323.471 243.368 324.104 244.164 324.951 244.667C325.797 245.169 326.798 245.343 327.765 245.156C328.731 244.969 329.596 244.434 330.194 243.652Z" fill="#FFB7B7"/>
<path d="M330.901 234.839L321.316 234.491L321.722 188.237C321.715 186.928 322.119 185.65 322.878 184.584C323.636 183.517 324.71 182.716 325.949 182.294C327.106 181.91 328.356 181.908 329.513 182.291C330.826 182.736 331.954 183.605 332.718 184.763C333.482 185.92 333.84 187.299 333.734 188.682L330.901 234.839Z" fill="#CBCBCB"/>
<path d="M414.98 324H224.029C223.896 324 223.769 323.947 223.675 323.853C223.581 323.759 223.528 323.632 223.528 323.499C223.528 323.366 223.581 323.238 223.675 323.144C223.769 323.05 223.896 322.997 224.029 322.997H414.98C415.113 322.997 415.241 323.05 415.335 323.144C415.429 323.238 415.482 323.366 415.482 323.499C415.482 323.632 415.429 323.759 415.335 323.853C415.241 323.947 415.113 324 414.98 324Z" fill="#CBCBCB"/>
</g>
<defs>
<clipPath id="clip0_322_6692">
<rect width="417" height="324" fill="white" transform="translate(0.5)"/>
</clipPath>
</defs>
</svg>
