<svg width="257" height="362" viewBox="0 0 257 362" fill="none" xmlns="http://www.w3.org/2000/svg">
<g clip-path="url(#clip0_322_6614)">
<path d="M0.500004 361.219C0.499696 361.321 0.519558 361.422 0.558446 361.517C0.597335 361.611 0.654493 361.697 0.726658 361.77C0.798822 361.842 0.884561 361.9 0.979015 361.939C1.07347 361.979 1.17478 361.999 1.27714 362H255.718C255.926 362 256.124 361.917 256.271 361.771C256.418 361.624 256.5 361.426 256.5 361.219C256.5 361.011 256.418 360.813 256.271 360.666C256.124 360.52 255.926 360.438 255.718 360.438H1.28179C1.17943 360.437 1.07799 360.457 0.983305 360.496C0.888616 360.535 0.802522 360.592 0.729926 360.664C0.657329 360.736 0.599662 360.822 0.560211 360.916C0.520759 361.01 0.500303 361.112 0.500004 361.214V361.219Z" fill="#CCCCCC"/>
<path opacity="0.5" d="M102.18 254.246C104.952 253.685 107.791 253.531 110.607 253.789C110.868 253.787 111.118 253.682 111.302 253.498C111.486 253.314 111.591 253.065 111.593 252.804C111.588 252.545 111.482 252.297 111.298 252.114C111.115 251.93 110.867 251.825 110.607 251.82C107.614 251.56 104.598 251.738 101.656 252.347C101.404 252.417 101.191 252.583 101.062 252.81C100.933 253.037 100.899 253.306 100.969 253.558C101.038 253.809 101.205 254.023 101.432 254.152C101.659 254.281 101.928 254.315 102.18 254.246H102.18Z" fill="#CCCCCC"/>
<path d="M34.5283 237.119C29.1091 229.918 25.9769 221.865 25.8743 212.684C25.6997 212.189 25.7287 211.645 25.9549 211.172C26.1811 210.698 26.586 210.334 27.0808 210.158L45.5522 203.628C46.0475 203.454 46.5917 203.483 47.0656 203.709C47.5395 203.935 47.9043 204.339 48.08 204.834L56.7341 229.269C56.9087 229.764 56.8797 230.308 56.6535 230.781C56.4273 231.255 56.0224 231.619 55.5276 231.795L37.0561 238.325C36.5609 238.499 36.0166 238.47 35.5427 238.244C35.0688 238.018 34.704 237.614 34.5283 237.119Z" fill="#F2F2F2"/>
<path opacity="0.2" d="M38.6985 236.683C38.2033 236.858 37.659 236.829 37.1852 236.603C36.7113 236.377 36.3464 235.972 36.1707 235.478C30.7515 228.277 27.6193 220.224 27.5167 211.042C27.4037 210.717 27.3787 210.367 27.4443 210.029L27.0808 210.158C26.586 210.333 26.1811 210.698 25.9549 211.171C25.7287 211.645 25.6997 212.188 25.8743 212.683C25.9769 221.864 29.1091 229.917 34.5283 237.119C34.704 237.613 35.0688 238.018 35.5427 238.244C36.0166 238.47 36.5609 238.499 37.0561 238.324L55.5275 231.795C55.8552 231.678 56.1461 231.476 56.3707 231.21C56.5953 230.945 56.7456 230.625 56.8065 230.282L38.6985 236.683Z" fill="black"/>
<path d="M47.3524 218.394L34.9865 222.804C34.7897 222.874 34.5731 222.863 34.3843 222.774C34.1955 222.684 34.0499 222.524 33.9797 222.327C33.9095 222.131 33.9203 221.914 34.0097 221.725C34.0992 221.537 34.26 221.391 34.4568 221.321L46.8227 216.911C47.0193 216.842 47.2355 216.853 47.4239 216.942C47.6123 217.032 47.7574 217.192 47.8276 217.389C47.8977 217.585 47.8871 217.801 47.798 217.989C47.7089 218.178 47.5486 218.323 47.3524 218.394H47.3524Z" fill="white"/>
<path d="M36.2545 217.769L33.534 218.739C33.4366 218.774 33.3332 218.79 33.2298 218.785C33.1264 218.78 33.0249 218.755 32.9312 218.711C32.8374 218.667 32.7533 218.605 32.6835 218.529C32.6138 218.453 32.5598 218.363 32.5247 218.266C32.4896 218.168 32.474 218.065 32.4789 217.962C32.4838 217.859 32.509 217.757 32.5531 217.664C32.5972 217.57 32.6593 217.486 32.7359 217.416C32.8125 217.347 32.9021 217.293 32.9996 217.258L33.0043 217.256L35.7248 216.286C35.9214 216.217 36.1375 216.228 36.3258 216.318C36.5141 216.407 36.6592 216.567 36.7293 216.764C36.7994 216.96 36.7888 217.176 36.6998 217.364C36.6108 217.553 36.4506 217.698 36.2545 217.769Z" fill="white"/>
<path d="M49.6809 224.912L37.315 229.322C37.1184 229.391 36.9023 229.38 36.714 229.29C36.5257 229.201 36.3806 229.04 36.3105 228.844C36.2404 228.648 36.251 228.432 36.34 228.244C36.429 228.055 36.5892 227.91 36.7853 227.839L49.1512 223.429C49.3477 223.359 49.5642 223.369 49.7531 223.458C49.9419 223.547 50.0878 223.707 50.1586 223.903C50.2294 224.099 50.2194 224.315 50.1307 224.504C50.042 224.693 49.8819 224.839 49.6856 224.91L49.6809 224.912Z" fill="white"/>
<path d="M48.5167 221.653L36.1507 226.063C35.954 226.133 35.7374 226.122 35.5485 226.033C35.3596 225.944 35.2138 225.784 35.1433 225.587C35.0729 225.391 35.0834 225.174 35.1727 224.985C35.2619 224.797 35.4225 224.651 35.6192 224.581L35.621 224.58L47.9869 220.17C48.1835 220.101 48.3998 220.112 48.5881 220.201C48.7765 220.291 48.9217 220.451 48.9918 220.647C49.0619 220.844 49.0513 221.06 48.9622 221.248C48.8731 221.437 48.7129 221.582 48.5166 221.653H48.5167Z" fill="white"/>
<path d="M35.8249 210.41C37.639 210.41 39.1097 208.941 39.1097 207.128C39.1097 205.316 37.639 203.847 35.8249 203.847C34.0107 203.847 32.54 205.316 32.54 207.128C32.54 208.941 34.0107 210.41 35.8249 210.41Z" fill="#CCCCCC"/>
<path d="M156.05 65.3806C156.102 70.1852 157.633 80.1881 156.536 84.8942L156.358 84.5004C155.446 85.2227 154.478 85.8702 153.461 86.4366C152.728 84.6552 151.632 83.0457 150.242 81.7109C150.425 83.9194 150.164 86.1422 149.473 88.2482C145.367 89.725 138.161 85.0714 133.693 84.973C126.506 84.8089 119.503 83.0236 112.637 81.1333C110.2 80.4638 107.52 79.5908 106.416 77.5692C105.312 75.5477 107.288 73.3656 107.158 71.0844C106.238 54.8358 113.984 52.1122 121.355 47.7705C122.977 46.815 123.773 44.7578 125.606 43.957C128.148 42.8478 131.177 43.3794 133.943 43.9374C133.256 43.7113 132.639 43.3123 132.151 42.7789C131.663 42.2455 131.321 41.5957 131.157 40.8918C131.042 40.202 131.12 39.4937 131.382 38.8451C131.643 38.1966 132.08 37.6329 132.642 37.2162C134.166 36.0414 136.439 35.897 138.384 36.3958C140.263 36.9827 142.04 37.855 143.653 38.9818C144.748 39.5821 145.727 40.3735 146.543 41.3185C146.928 41.7657 147.167 42.3196 147.228 42.906C147.289 43.4925 147.169 44.0836 146.885 44.6003C146.534 45.0432 146.088 45.4013 145.58 45.6479C145.071 45.8946 144.514 46.0233 143.948 46.0246C143.077 46.0499 142.207 45.9594 141.36 45.7555C145.243 46.7124 148.742 48.8278 151.392 51.8202C154.683 55.6468 155.991 60.5761 156.05 65.3806Z" fill="#2F2E41"/>
<path d="M41.2122 111.684C41.8802 113.1 43.0751 114.201 44.5427 114.75C46.0103 115.3 47.6347 115.256 49.0703 114.628C49.36 114.495 49.6384 114.339 49.9024 114.161L66.8186 126.578L76.1452 120.219L51.1313 105.712C50.3068 104.676 49.1621 103.941 47.8758 103.623C46.5895 103.305 45.2339 103.421 44.0206 103.953C43.3332 104.263 42.7135 104.705 42.1969 105.254C41.6804 105.803 41.2771 106.448 41.0101 107.152C40.7432 107.857 40.6177 108.607 40.6409 109.36C40.6641 110.113 40.8356 110.854 41.1455 111.541C41.167 111.589 41.1893 111.637 41.2122 111.684Z" fill="#FFB6B6"/>
<path d="M215.564 100.415C214.009 100.609 212.59 101.401 211.611 102.624C210.631 103.846 210.168 105.402 210.319 106.961C210.355 107.277 210.417 107.59 210.504 107.896L193.43 120.095L196.578 130.929L218.159 111.691C219.401 111.231 220.456 110.372 221.159 109.25C221.862 108.128 222.173 106.804 222.044 105.487C221.963 104.738 221.736 104.012 221.375 103.35C221.013 102.689 220.525 102.106 219.938 101.633C219.35 101.16 218.676 100.808 217.952 100.596C217.229 100.383 216.47 100.316 215.721 100.396C215.668 100.402 215.616 100.408 215.564 100.415Z" fill="#FFB6B6"/>
<path d="M91.7506 350.432L86.2518 350.385L83.8184 328.703L91.9332 328.771L91.7506 350.432Z" fill="#FFB6B6"/>
<path d="M74.1385 359.167C74.1336 359.818 74.3875 360.445 74.8444 360.909C75.3013 361.374 75.9239 361.638 76.5757 361.645L87.5077 361.736L89.4215 357.86L90.1244 361.756L94.2493 361.793L93.2077 347.899L91.7726 347.804L85.919 347.401L84.0305 347.274L83.9974 351.205L75.2157 357.156C74.8867 357.379 74.6169 357.679 74.4292 358.029C74.2416 358.379 74.1418 358.77 74.1385 359.167Z" fill="#2F2E41"/>
<path d="M164.23 326.096L159.741 329.267L145.085 313.092L151.71 308.41L164.23 326.096Z" fill="#FFB6B6"/>
<path d="M155.045 343.465C155.422 343.997 155.995 344.357 156.637 344.467C157.28 344.577 157.939 344.429 158.472 344.053L167.397 337.746L166.684 333.483L169.533 336.234L172.902 333.857L163.931 323.189L162.711 323.95L157.725 327.04L156.118 328.039L158.39 331.249L154.744 341.205C154.607 341.578 154.563 341.978 154.616 342.372C154.668 342.766 154.816 343.141 155.045 343.465Z" fill="#2F2E41"/>
<path d="M95.8743 174.641L111.846 137.586H148.633L138.023 176.257L95.8743 174.641Z" fill="#FFB6B6"/>
<path d="M62.105 350.598C61.7996 350.612 61.4973 350.532 61.239 350.369C60.9808 350.205 60.779 349.966 60.6611 349.685C60.5431 349.403 60.5147 349.092 60.5798 348.793C60.6448 348.495 60.8 348.224 61.0245 348.016L61.1267 347.611C61.1132 347.578 61.0997 347.546 61.0861 347.513C60.7784 346.787 60.2629 346.168 59.6043 345.734C58.9457 345.3 58.1734 345.07 57.3843 345.073C56.5953 345.076 55.8246 345.311 55.1693 345.75C54.5139 346.19 54.0031 346.812 53.7008 347.541C52.4929 350.447 50.9551 353.358 50.5764 356.432C50.4097 357.79 50.48 359.167 50.7844 360.501C47.9474 354.319 46.4742 347.598 46.4647 340.797C46.4641 339.09 46.559 337.385 46.749 335.688C46.9061 334.298 47.1239 332.917 47.4025 331.547C48.9231 324.109 52.1878 317.138 56.9286 311.206C59.2232 309.955 61.0788 308.032 62.2454 305.695C62.6681 304.855 62.9668 303.958 63.1323 303.033C62.8734 303.067 62.1563 299.128 62.3515 298.887C61.9908 298.34 61.3452 298.068 60.9513 297.534C58.992 294.88 56.2926 295.344 54.8834 298.95C51.873 300.468 51.8439 302.986 53.691 305.407C54.8662 306.947 55.0276 309.031 56.0588 310.681C55.9527 310.816 55.8423 310.948 55.7363 311.083C53.7971 313.575 52.107 316.25 50.6901 319.07C51.0347 315.91 50.6234 312.714 49.4902 309.744C48.3417 306.976 46.189 304.644 44.2933 302.251C43.7919 301.609 43.111 301.129 42.3367 300.872C41.5624 300.616 40.7294 300.595 39.943 300.811C39.1566 301.028 38.4522 301.473 37.9187 302.089C37.3852 302.706 37.0466 303.466 36.9458 304.275C36.9419 304.31 36.9381 304.346 36.9344 304.381C37.216 304.54 37.4917 304.708 37.7613 304.886C38.1001 305.112 38.3626 305.436 38.5145 305.813C38.6663 306.191 38.7004 306.606 38.6123 307.003C38.5241 307.401 38.3179 307.762 38.0206 308.041C37.7232 308.319 37.3487 308.501 36.946 308.563L36.9047 308.569C37.0051 309.583 37.1824 310.588 37.4351 311.575C35.0032 320.971 40.2536 324.394 47.7505 324.547C47.916 324.632 48.0772 324.717 48.2427 324.798C46.8192 328.828 45.9263 333.026 45.5864 337.287C45.394 339.8 45.4054 342.325 45.6204 344.837L45.6076 344.748C45.0644 341.955 43.5731 339.435 41.3856 337.613C38.1365 334.947 33.5461 333.965 30.0409 331.821C29.6684 331.582 29.2353 331.455 28.7926 331.454C28.3499 331.453 27.9161 331.578 27.5424 331.815C27.1687 332.052 26.8707 332.391 26.6835 332.792C26.4963 333.193 26.4278 333.639 26.4859 334.077L26.5003 334.171C27.0228 334.383 27.5315 334.628 28.0236 334.904C28.3051 335.063 28.5808 335.231 28.8505 335.409C29.1892 335.636 29.4518 335.959 29.6036 336.336C29.7554 336.714 29.7895 337.129 29.7014 337.526C29.6132 337.924 29.407 338.285 29.1097 338.564C28.8123 338.842 28.4378 339.024 28.0351 339.086L27.9938 339.093C27.9642 339.097 27.9387 339.101 27.909 339.105C28.8018 341.235 30.0549 343.195 31.6133 344.9C33.134 353.103 39.6651 353.881 46.6515 351.493H46.6557C47.4222 354.821 48.5328 358.06 49.9696 361.158H61.8083C61.8508 361.027 61.8889 360.891 61.9272 360.76C60.8313 360.829 59.7312 360.763 58.6513 360.565C59.5297 359.488 60.4081 358.403 61.2864 357.326C61.306 357.306 61.3244 357.285 61.3416 357.262C61.7871 356.711 62.2369 356.164 62.6825 355.613L62.6827 355.613C62.7065 353.923 62.5124 352.238 62.1054 350.598L62.105 350.598Z" fill="#F2F2F2"/>
<path d="M190.21 350.598C190.516 350.612 190.818 350.532 191.076 350.369C191.335 350.205 191.536 349.966 191.654 349.685C191.772 349.403 191.801 349.092 191.736 348.793C191.671 348.495 191.515 348.224 191.291 348.016L191.189 347.611C191.202 347.578 191.216 347.546 191.229 347.513C191.537 346.787 192.052 346.168 192.711 345.734C193.37 345.3 194.142 345.07 194.931 345.073C195.72 345.076 196.491 345.311 197.146 345.75C197.801 346.19 198.312 346.812 198.615 347.541C199.822 350.447 201.36 353.358 201.739 356.432C201.906 357.79 201.835 359.167 201.531 360.501C204.368 354.318 205.841 347.598 205.851 340.797C205.851 339.09 205.756 337.385 205.566 335.688C205.409 334.298 205.192 332.917 204.913 331.547C203.392 324.109 200.128 317.138 195.387 311.206C193.092 309.955 191.237 308.032 190.07 305.695C189.647 304.855 189.349 303.958 189.183 303.033C189.442 303.067 190.159 299.128 189.964 298.887C190.325 298.34 190.97 298.068 191.364 297.534C193.323 294.88 196.023 295.344 197.432 298.95C200.442 300.468 200.472 302.986 198.624 305.407C197.449 306.947 197.288 309.031 196.257 310.681C196.363 310.816 196.473 310.948 196.579 311.083C198.518 313.575 200.209 316.25 201.625 319.07C201.281 315.91 201.692 312.714 202.825 309.744C203.974 306.976 206.126 304.644 208.022 302.251C208.523 301.609 209.204 301.129 209.979 300.872C210.753 300.616 211.586 300.595 212.372 300.811C213.159 301.028 213.863 301.473 214.397 302.089C214.93 302.706 215.269 303.466 215.37 304.275C215.373 304.31 215.377 304.346 215.381 304.381C215.099 304.54 214.824 304.708 214.554 304.886C214.215 305.112 213.953 305.436 213.801 305.813C213.649 306.191 213.615 306.606 213.703 307.003C213.791 307.401 213.998 307.762 214.295 308.041C214.592 308.319 214.967 308.501 215.369 308.563L215.411 308.569C215.31 309.583 215.133 310.588 214.88 311.575C217.312 320.971 212.062 324.394 204.565 324.547C204.399 324.632 204.238 324.717 204.073 324.798C205.496 328.828 206.389 333.026 206.729 337.287C206.921 339.8 206.91 342.325 206.695 344.837L206.708 344.748C207.251 341.955 208.742 339.435 210.93 337.613C214.179 334.946 218.769 333.965 222.274 331.821C222.647 331.582 223.08 331.455 223.523 331.454C223.965 331.453 224.399 331.578 224.773 331.815C225.147 332.052 225.445 332.391 225.632 332.792C225.819 333.193 225.888 333.639 225.829 334.077L225.815 334.171C225.293 334.383 224.784 334.628 224.292 334.904C224.01 335.063 223.735 335.231 223.465 335.409C223.126 335.636 222.864 335.959 222.712 336.336C222.56 336.714 222.526 337.129 222.614 337.526C222.702 337.924 222.908 338.285 223.206 338.564C223.503 338.842 223.878 339.024 224.28 339.086L224.321 339.093C224.351 339.097 224.377 339.101 224.406 339.105C223.513 341.235 222.26 343.195 220.702 344.9C219.181 353.103 212.65 353.881 205.664 351.493H205.66C204.893 354.82 203.782 358.06 202.346 361.158H190.507C190.465 361.027 190.426 360.891 190.388 360.76C191.484 360.829 192.584 360.763 193.664 360.565C192.786 359.488 191.907 358.403 191.029 357.326C191.009 357.306 190.991 357.285 190.974 357.262C190.528 356.711 190.078 356.164 189.633 355.613L189.633 355.613C189.609 353.923 189.803 352.238 190.21 350.598L190.21 350.598Z" fill="#F2F2F2"/>
<path d="M95.8747 171.857L80.0176 204.906L81.1494 336.61H94.7311C94.7311 336.61 97.372 333.051 97.372 330.558C97.372 328.065 92.8802 327.703 95.8747 324.643C98.8693 321.583 99.8675 320.585 99.8675 317.594V269.729L110.577 223.33L109.445 274.312L147.926 320.198L156.891 311.241C156.891 311.241 159.512 310.087 156.891 307.607C154.269 305.128 152.634 309.507 152.454 302.58C152.273 295.654 153.77 297.15 152.273 295.654C150.776 294.158 129.817 269.162 129.817 269.162C129.817 269.162 148.779 188.447 139.296 172.989L95.8747 171.857Z" fill="#2F2E41"/>
<path d="M140.294 175.483C140.294 175.483 99.3684 161.022 102.363 153.044C105.358 145.066 110.388 146.601 104.379 144.088C98.3703 141.575 94.3892 141.077 98.1266 137.586C101.864 134.096 107.354 130.605 107.354 127.115C107.354 123.624 111.846 96.1993 111.846 96.1993H119.037L126.32 83.7334H136.608L141.792 95.2021H152.737L153.271 112.654C153.271 112.654 153.978 146.369 150.63 147.712C147.282 149.055 144.287 149.055 147.282 152.047C150.276 155.039 151.982 156.585 150.63 159.302C149.278 162.019 140.294 175.483 140.294 175.483Z" fill="#E6E6E6"/>
<path d="M146.283 100.188L152.736 95.2012C152.736 95.2012 163.752 95.2012 165.249 101.185C166.746 107.168 175.758 121.801 175.758 121.801C175.758 121.801 184.714 116.643 188.208 116.643C191.701 116.643 194.197 119.136 194.197 116.144C194.197 113.152 192.2 112.653 195.195 112.653C198.19 112.653 206.175 109.662 206.175 109.662L214.693 118.172C214.693 118.172 213.662 126.117 210.168 125.618C206.674 125.119 204.678 122.626 204.678 125.618C204.678 128.61 206.674 133.098 202.182 133.596C197.691 134.095 167.745 141.574 167.745 141.574L147.282 111.656L146.283 100.188Z" fill="#E6E6E6"/>
<path d="M120.33 100.188L113.878 95.2012C113.878 95.2012 102.862 95.2012 101.365 101.185C99.8674 107.168 90.353 121.801 90.353 121.801C90.353 121.801 81.9 116.643 78.4063 116.643C74.9126 116.643 72.4171 119.136 72.4171 116.144C72.4171 113.152 74.4135 112.654 71.4189 112.654C68.4243 112.654 60.4387 109.662 60.4387 109.662L51.9207 118.172C51.9207 118.172 52.9523 126.117 56.446 125.618C59.9396 125.119 61.936 122.626 61.936 125.618C61.936 128.61 59.9396 133.098 64.4315 133.596C68.9234 134.095 98.8692 141.574 98.8692 141.574L119.332 111.656L120.33 100.188Z" fill="#E6E6E6"/>
<path d="M130.268 81.0249C139.064 81.0249 146.195 73.9005 146.195 65.1121C146.195 56.3236 139.064 49.1992 130.268 49.1992C121.471 49.1992 114.34 56.3236 114.34 65.1121C114.34 73.9005 121.471 81.0249 130.268 81.0249Z" fill="#FFB6B6"/>
<path d="M147.647 62.7098C145.775 64.9742 142.989 64.8561 140.512 64.4951C139.731 64.3835 138.949 64.2588 138.167 64.1144C138.029 63.6746 137.872 63.2349 137.694 62.8082C136.961 61.0267 135.865 59.4173 134.475 58.0824C134.621 59.8276 134.486 61.585 134.074 63.2874C132.622 62.9526 131.177 62.5785 129.738 62.165C128.465 61.9582 127.32 61.2707 126.54 60.2446C125.76 59.2185 125.405 57.9322 125.547 56.6516C123.477 58.2268 121.224 59.592 118.859 59.6183C117.526 59.5837 116.239 59.1234 115.187 58.3049C114.134 57.4863 113.372 56.3525 113.012 55.0697C112.368 53.1007 112.467 50.8296 112.729 48.703C113.045 46.1761 113.754 43.3997 115.462 42.3823C116.835 41.5553 118.419 42.146 119.831 42.8155C122.943 44.3076 125.893 46.1155 128.635 48.2108L128.667 48.9C129.377 45.5066 131.722 42.8877 134.278 42.6252C135.999 42.4545 137.681 43.2487 139.304 44.0495C141.425 44.9843 143.397 46.2249 145.157 47.7316C147.146 49.5391 148.527 51.9163 149.112 54.5381C149.723 57.3801 149.263 60.7538 147.647 62.7098Z" fill="#2F2E41"/>
<path d="M131.88 40.6261C132.044 40.6398 131.643 40.5478 131.773 40.6025C131.709 40.5733 131.647 40.539 131.589 40.4998C131.579 40.4934 131.45 40.3889 131.534 40.4617C131.339 40.3101 131.193 40.1055 131.112 39.8725C130.931 39.3062 130.847 38.7135 130.863 38.1192C130.895 37.3382 130.762 36.5592 130.471 35.8333C130.385 35.6368 130.254 35.4633 130.088 35.3269C129.923 35.1905 129.727 35.095 129.517 35.0483C129.308 35.0016 129.09 35.005 128.882 35.0581C128.674 35.1112 128.481 35.2126 128.32 35.354C127.782 35.8807 127.74 36.7704 127.702 37.4781C127.661 38.2128 127.739 38.9493 127.932 39.6592C128.266 40.8264 128.932 41.8716 129.849 42.6673C130.909 43.5945 132.24 44.1557 133.644 44.2676C133.837 44.2633 134.024 44.2031 134.183 44.0941C134.343 43.9852 134.467 43.8324 134.541 43.6543C134.614 43.4761 134.635 43.2804 134.599 43.0909C134.564 42.9014 134.474 42.7263 134.341 42.5869L132.577 40.9144C132.392 40.7298 132.142 40.6261 131.88 40.6261C131.619 40.6261 131.368 40.7298 131.183 40.9144C130.999 41.0991 130.895 41.3495 130.895 41.6106C130.895 41.8717 130.999 42.1221 131.183 42.3068L132.947 43.9793L133.644 42.2986C133.353 42.2724 133.066 42.2138 132.788 42.1238C132.486 42.0401 132.198 41.914 131.932 41.7493C131.672 41.6067 131.428 41.4362 131.204 41.2407C131.061 41.1151 130.924 40.9823 130.795 40.8429C130.748 40.7922 130.702 40.7407 130.656 40.6883C130.66 40.692 130.471 40.4553 130.552 40.5636C130.348 40.285 130.171 39.9881 130.022 39.6766C129.97 39.5663 129.927 39.4519 129.893 39.3345C129.83 39.1415 129.779 38.9449 129.74 38.7459C129.665 38.3277 129.642 37.9019 129.673 37.4781C129.681 37.2984 129.699 37.1193 129.726 36.9414C129.751 36.8476 129.77 36.7523 129.781 36.656C129.785 36.4169 129.749 36.7836 129.624 36.8393L129.127 36.9737C129.046 36.9671 128.967 36.9424 128.897 36.9014C128.827 36.8603 128.767 36.8041 128.721 36.7367C128.701 36.6545 128.706 36.6691 128.739 36.7804C128.776 36.9111 128.805 37.044 128.826 37.1784C128.864 37.4907 128.886 37.8047 128.892 38.1192C128.898 38.7856 128.975 39.4494 129.123 40.0993C129.261 40.7524 129.602 41.3453 130.097 41.7935C130.592 42.2416 131.216 42.5222 131.88 42.5952C132.141 42.5931 132.39 42.4887 132.575 42.3045C132.759 42.1203 132.864 41.8711 132.866 41.6106C132.861 41.3511 132.755 41.1037 132.571 40.9202C132.388 40.7366 132.14 40.6313 131.88 40.6261Z" fill="#2F2E41"/>
<path d="M213.223 104.534C207.804 97.3328 204.672 89.2797 204.569 80.0985C204.395 79.6038 204.423 79.06 204.65 78.5865C204.876 78.1131 205.281 77.7486 205.776 77.573L224.247 71.0434C224.742 70.8689 225.287 70.8979 225.76 71.1239C226.234 71.3499 226.599 71.7544 226.775 72.2488L235.429 96.6845C235.603 97.1793 235.574 97.723 235.348 98.1965C235.122 98.6699 234.717 99.0344 234.222 99.21L215.751 105.74C215.256 105.914 214.711 105.885 214.238 105.659C213.764 105.433 213.399 105.029 213.223 104.534Z" fill="#CE1A1A"/>
<path opacity="0.2" d="M217.393 104.098C216.898 104.273 216.354 104.244 215.88 104.018C215.406 103.792 215.041 103.387 214.866 102.893C209.446 95.6916 206.314 87.6385 206.212 78.4574C206.099 78.132 206.074 77.7825 206.139 77.4443L205.776 77.5728C205.281 77.7484 204.876 78.1128 204.65 78.5863C204.424 79.0597 204.395 79.6035 204.569 80.0983C204.672 89.2795 207.804 97.3325 213.223 104.534C213.399 105.028 213.764 105.433 214.238 105.659C214.711 105.885 215.256 105.914 215.751 105.739L234.222 99.2098C234.55 99.0927 234.841 98.8911 235.066 98.6255C235.29 98.3599 235.441 98.0397 235.501 97.6973L217.393 104.098Z" fill="black"/>
<path d="M226.047 85.8086L213.681 90.2186C213.485 90.2888 213.268 90.278 213.079 90.1886C212.89 90.0992 212.745 89.9385 212.675 89.7419C212.604 89.5453 212.615 89.3289 212.705 89.1403C212.794 88.9516 212.955 88.8062 213.152 88.736L225.518 84.3261C225.615 84.2913 225.718 84.2761 225.822 84.2813C225.925 84.2864 226.026 84.3118 226.12 84.3561C226.213 84.4004 226.297 84.4626 226.367 84.5392C226.436 84.6159 226.49 84.7054 226.524 84.8028C226.559 84.9001 226.574 85.0033 226.569 85.1066C226.564 85.2098 226.539 85.311 226.494 85.4044C226.45 85.4978 226.388 85.5816 226.311 85.651C226.234 85.7203 226.145 85.7739 226.047 85.8086Z" fill="white"/>
<path d="M214.949 85.1833L212.229 86.1535C212.131 86.1884 212.028 86.2037 211.925 86.1987C211.821 86.1937 211.72 86.1684 211.627 86.1242C211.533 86.0801 211.449 86.018 211.38 85.9414C211.31 85.8648 211.256 85.7754 211.221 85.6781C211.187 85.5808 211.171 85.4775 211.176 85.3743C211.181 85.2711 211.207 85.1698 211.251 85.0764C211.295 84.9829 211.357 84.8991 211.434 84.8296C211.51 84.7602 211.6 84.7065 211.697 84.6716L211.699 84.671L214.42 83.7008C214.616 83.6309 214.833 83.6418 215.021 83.7313C215.21 83.8207 215.355 83.9813 215.426 84.1778C215.496 84.3742 215.485 84.5905 215.396 84.779C215.306 84.9676 215.146 85.113 214.949 85.1833Z" fill="white"/>
<path d="M228.376 92.3269L216.01 96.7369C215.813 96.8073 215.597 96.7967 215.408 96.7076C215.219 96.6184 215.073 96.4579 215.002 96.2614C214.932 96.0649 214.943 95.8484 215.032 95.6597C215.121 95.4709 215.282 95.3253 215.478 95.2549L215.48 95.2543L227.846 90.8444C228.043 90.7744 228.259 90.7854 228.448 90.8748C228.636 90.9643 228.782 91.1248 228.852 91.3213C228.922 91.5178 228.912 91.734 228.822 91.9226C228.733 92.1111 228.572 92.2566 228.376 92.3269Z" fill="white"/>
<path d="M227.211 89.0677L214.846 93.4777C214.748 93.5125 214.645 93.5279 214.542 93.5229C214.438 93.5178 214.337 93.4925 214.243 93.4484C214.15 93.4042 214.066 93.3421 213.996 93.2656C213.927 93.189 213.873 93.0995 213.838 93.0022C213.803 92.9049 213.788 92.8017 213.793 92.6985C213.798 92.5952 213.823 92.494 213.867 92.4005C213.912 92.3071 213.974 92.2232 214.05 92.1538C214.127 92.0843 214.217 92.0306 214.314 91.9958L214.316 91.9951L226.682 87.5852C226.779 87.5503 226.882 87.535 226.986 87.54C227.089 87.545 227.19 87.5703 227.284 87.6145C227.378 87.6586 227.461 87.7208 227.531 87.7973C227.601 87.8739 227.654 87.9634 227.689 88.0607C227.724 88.158 227.739 88.2612 227.734 88.3644C227.729 88.4677 227.704 88.5689 227.66 88.6624C227.616 88.7558 227.553 88.8397 227.477 88.9091C227.4 88.9786 227.311 89.0323 227.213 89.0671L227.211 89.0677Z" fill="white"/>
<path d="M214.52 77.8253C216.334 77.8253 217.805 76.356 217.805 74.5435C217.805 72.731 216.334 71.2617 214.52 71.2617C212.706 71.2617 211.235 72.731 211.235 74.5435C211.235 76.356 212.706 77.8253 214.52 77.8253Z" fill="#3F3D56"/>
<path d="M52.3159 20.8847C55.6242 12.5032 60.8553 5.62353 68.6336 0.733306C68.9643 0.325813 69.4434 0.0660372 69.9656 0.0109556C70.4878 -0.044126 71.0105 0.10999 71.4192 0.439498L86.652 12.7516C87.0599 13.0821 87.3199 13.5606 87.375 14.0824C87.4302 14.6041 87.2759 15.1264 86.9461 15.5346L70.6284 35.686C70.2976 36.0935 69.8186 36.3533 69.2964 36.4084C68.7742 36.4635 68.2514 36.3094 67.8428 35.9799L52.61 23.6677C52.2021 23.3373 51.9421 22.8587 51.8869 22.337C51.8318 21.8152 51.9861 21.293 52.3159 20.8847Z" fill="#CE1A1A"/>
<path opacity="0.2" d="M54.8689 24.2078C54.4611 23.8774 54.201 23.3988 54.1459 22.8771C54.0908 22.3554 54.245 21.8331 54.5749 21.4248C57.8832 13.0433 63.1143 6.1636 70.8926 1.27338C71.1111 1.00692 71.3961 0.802846 71.7189 0.681805L71.4191 0.439506C71.0105 0.110003 70.4878 -0.0441231 69.9656 0.0109533C69.4434 0.0660297 68.9644 0.325812 68.6336 0.733294C60.8554 5.62354 55.6242 12.5032 52.3159 20.8848C51.9861 21.293 51.8318 21.8153 51.8869 22.337C51.9421 22.8587 52.2021 23.3373 52.61 23.6677L67.8428 35.9799C68.1141 36.1976 68.4382 36.3399 68.7823 36.3922C69.1264 36.4445 69.4782 36.405 69.802 36.2777L54.8689 24.2078Z" fill="black"/>
<path d="M74.9978 22.0082L64.7671 13.7858C64.6049 13.6548 64.5013 13.4649 64.4791 13.2576C64.4569 13.0504 64.5178 12.8428 64.6486 12.6805C64.7793 12.5181 64.9692 12.4141 65.1766 12.3914C65.3839 12.3687 65.5918 12.4291 65.7547 12.5593L75.9855 20.7816C76.1476 20.9127 76.2512 21.1026 76.2734 21.3098C76.2956 21.517 76.2346 21.7246 76.1039 21.8869C75.9731 22.0493 75.7833 22.1532 75.5759 22.176C75.3686 22.1987 75.1607 22.1384 74.9979 22.0082L74.9978 22.0082Z" fill="white"/>
<path d="M69.7257 12.232L67.4749 10.423C67.313 10.2919 67.2096 10.102 67.1875 9.89493C67.1655 9.68783 67.2264 9.48044 67.3571 9.31816C67.4877 9.15588 67.6774 9.05195 67.8847 9.02915C68.0919 9.00634 68.2997 9.06652 68.4625 9.19649L70.7133 11.0054C70.8754 11.1365 70.9788 11.3264 71.001 11.5336C71.0231 11.7407 70.9622 11.9482 70.8315 12.1105C70.7008 12.2728 70.511 12.3767 70.3037 12.3995C70.0965 12.4223 69.8886 12.362 69.7257 12.232L69.7257 12.232Z" fill="white"/>
<path d="M70.6561 27.4008L60.4253 19.1785C60.2631 19.0474 60.1595 18.8575 60.1373 18.6502C60.1151 18.443 60.176 18.2354 60.3068 18.073C60.4375 17.9106 60.6274 17.8067 60.8348 17.784C61.0422 17.7613 61.2501 17.8217 61.4129 17.9519L71.6436 26.1742C71.8056 26.3053 71.909 26.4952 71.9311 26.7023C71.9532 26.9094 71.8922 27.1168 71.7615 27.2791C71.6309 27.4414 71.4412 27.5453 71.234 27.5681C71.0268 27.5909 70.8189 27.5307 70.6561 27.4008H70.6561Z" fill="white"/>
<path d="M72.8269 24.7051L62.5962 16.4827C62.5154 16.4182 62.4482 16.3384 62.3983 16.2478C62.3484 16.1573 62.3168 16.0578 62.3054 15.9551C62.2823 15.7476 62.3426 15.5395 62.4732 15.3765C62.6037 15.2134 62.7937 15.1089 63.0013 15.0859C63.209 15.0628 63.4173 15.1231 63.5805 15.2535L63.5838 15.2562L73.8145 23.4785C73.9777 23.6089 74.0823 23.7987 74.1054 24.0062C74.1284 24.2137 74.0681 24.4218 73.9376 24.5848C73.807 24.7478 73.617 24.8524 73.4094 24.8754C73.2017 24.8985 72.9934 24.8382 72.8302 24.7078L72.8269 24.7051V24.7051Z" fill="white"/>
<path d="M78.5771 9.58215C80.3912 9.58215 81.8619 8.11284 81.8619 6.30035C81.8619 4.48787 80.3912 3.01855 78.5771 3.01855C76.7629 3.01855 75.2922 4.48787 75.2922 6.30035C75.2922 8.11284 76.7629 9.58215 78.5771 9.58215Z" fill="#3F3D56"/>
<path d="M14.6368 118.998C6.62107 108.346 1.98813 96.4348 1.8363 82.8545C1.57805 82.1227 1.62091 81.3184 1.95547 80.6181C2.29004 79.9178 2.88899 79.3786 3.62093 79.119L30.9427 69.4607C31.6753 69.2026 32.4803 69.2455 33.1813 69.5797C33.8822 69.914 34.4219 70.5124 34.6818 71.2436L47.4822 107.387C47.7405 108.119 47.6976 108.924 47.3631 109.624C47.0285 110.324 46.4296 110.863 45.6976 111.123L18.3758 120.781C17.6433 121.039 16.8382 120.997 16.1373 120.662C15.4363 120.328 14.8967 119.73 14.6368 118.998Z" fill="#CE1A1A"/>
<path opacity="0.2" d="M20.8052 118.354C20.0727 118.612 19.2677 118.569 18.5667 118.235C17.8657 117.901 17.3261 117.302 17.0662 116.571C9.05049 105.919 4.41756 94.0074 4.26568 80.4272C4.09851 79.9458 4.06155 79.4289 4.15858 78.9287L3.62092 79.1187C2.889 79.3784 2.29006 79.9175 1.95549 80.6178C1.62092 81.3181 1.57805 82.1224 1.83628 82.8543C1.98811 96.4345 6.62102 108.346 14.6368 118.998C14.8967 119.729 15.4363 120.328 16.1373 120.662C16.8383 120.996 17.6433 121.039 18.3758 120.781L45.6976 111.123C46.1824 110.95 46.6126 110.652 46.9448 110.259C47.2771 109.866 47.4994 109.392 47.5894 108.886L20.8052 118.354Z" fill="black"/>
<path d="M33.6053 91.3017L15.3144 97.8246C15.1702 97.8765 15.0171 97.8995 14.864 97.8922C14.7108 97.8849 14.5606 97.8475 14.422 97.7821C14.2833 97.7167 14.159 97.6246 14.056 97.5111C13.953 97.3976 13.8735 97.2649 13.822 97.1207C13.7704 96.9764 13.7479 96.8234 13.7556 96.6704C13.7634 96.5174 13.8013 96.3675 13.8672 96.2292C13.933 96.0908 14.0256 95.9669 14.1395 95.8644C14.2534 95.7618 14.3864 95.6827 14.531 95.6317L32.8218 89.1088C32.966 89.0574 33.1188 89.0348 33.2716 89.0425C33.4245 89.0501 33.5743 89.0877 33.7126 89.1532C33.8509 89.2186 33.9749 89.3107 34.0776 89.424C34.1803 89.5374 34.2596 89.6699 34.3111 89.8139C34.3625 89.9578 34.385 90.1105 34.3774 90.2632C34.3698 90.4159 34.3321 90.5656 34.2666 90.7038C34.2011 90.8419 34.1089 90.9659 33.9955 91.0684C33.882 91.171 33.7494 91.2503 33.6053 91.3017Z" fill="white"/>
<path d="M17.1901 90.3767L13.1661 91.8117C12.8753 91.9145 12.5556 91.8978 12.277 91.7654C11.9985 91.6331 11.7838 91.3957 11.6801 91.1055C11.5764 90.8153 11.5921 90.4958 11.7238 90.2171C11.8555 89.9384 12.0924 89.7233 12.3826 89.6188L16.4066 88.1838C16.6974 88.0811 17.0171 88.0977 17.2957 88.2301C17.5742 88.3625 17.7889 88.5998 17.8926 88.89C17.9963 89.1803 17.9805 89.4997 17.8489 89.7784C17.7172 90.0571 17.4803 90.2722 17.1901 90.3767Z" fill="white"/>
<path d="M37.0496 100.942L18.7587 107.465C18.4676 107.569 18.1472 107.553 17.8679 107.421C17.5886 107.289 17.3734 107.051 17.2695 106.76C17.1656 106.469 17.1816 106.149 17.3139 105.87C17.4463 105.591 17.6841 105.376 17.9752 105.272L36.2661 98.7494C36.4102 98.698 36.5631 98.6755 36.7159 98.6831C36.8687 98.6907 37.0186 98.7283 37.1569 98.7938C37.2951 98.8593 37.4192 98.9513 37.5219 99.0647C37.6245 99.178 37.7039 99.3105 37.7553 99.4545C37.8068 99.5985 37.8293 99.7512 37.8217 99.9039C37.814 100.057 37.7764 100.206 37.7109 100.344C37.6453 100.483 37.5532 100.606 37.4397 100.709C37.3263 100.812 37.1937 100.891 37.0496 100.942Z" fill="white"/>
<path d="M35.3274 96.122L17.0365 102.645C16.8924 102.696 16.7396 102.719 16.5867 102.711C16.4339 102.704 16.284 102.666 16.1458 102.601C16.0075 102.535 15.8835 102.443 15.7808 102.33C15.6781 102.216 15.5988 102.084 15.5473 101.94C15.4959 101.796 15.4733 101.643 15.4809 101.49C15.4886 101.338 15.5262 101.188 15.5918 101.05C15.6573 100.912 15.7494 100.788 15.8629 100.685C15.9763 100.583 16.1089 100.503 16.253 100.452L34.5439 93.9291C34.6881 93.8777 34.8409 93.8552 34.9937 93.8628C35.1466 93.8704 35.2964 93.908 35.4347 93.9735C35.573 94.039 35.697 94.131 35.7997 94.2444C35.9024 94.3577 35.9817 94.4902 36.0331 94.6342C36.0846 94.7782 36.1071 94.9309 36.0995 95.0836C36.0919 95.2362 36.0542 95.3859 35.9887 95.5241C35.9232 95.6623 35.831 95.7862 35.7176 95.8888C35.6041 95.9913 35.4715 96.0706 35.3274 96.122Z" fill="white"/>
<path d="M16.5543 79.4927C19.2377 79.4927 21.413 77.3193 21.413 74.6384C21.413 71.9575 19.2377 69.7842 16.5543 69.7842C13.8709 69.7842 11.6956 71.9575 11.6956 74.6384C11.6956 77.3193 13.8709 79.4927 16.5543 79.4927Z" fill="#3F3D56"/>
<path d="M194.934 294.565C185.916 294.52 177.603 292.139 170.224 286.667C169.724 286.506 169.308 286.154 169.068 285.688C168.827 285.221 168.782 284.679 168.941 284.179L174.912 265.534C175.072 265.035 175.425 264.619 175.892 264.379C176.358 264.139 176.901 264.093 177.402 264.253L202.112 272.151C202.612 272.312 203.028 272.664 203.268 273.13C203.509 273.597 203.554 274.139 203.395 274.639L197.424 293.284C197.263 293.783 196.911 294.199 196.444 294.439C195.978 294.679 195.434 294.725 194.934 294.565Z" fill="#F2F2F2"/>
<path opacity="0.2" d="M197.11 290.984C196.95 291.483 196.597 291.899 196.13 292.139C195.664 292.379 195.12 292.425 194.62 292.265C185.602 292.22 177.289 289.839 169.91 284.367C169.582 284.26 169.289 284.068 169.059 283.811L168.941 284.178C168.782 284.678 168.827 285.221 169.068 285.687C169.308 286.153 169.724 286.505 170.224 286.666C177.603 292.139 185.916 294.519 194.934 294.565C195.435 294.724 195.978 294.678 196.445 294.438C196.911 294.198 197.264 293.782 197.424 293.283L203.395 274.638C203.5 274.307 203.515 273.954 203.44 273.614C203.364 273.275 203.199 272.962 202.963 272.706L197.11 290.984Z" fill="black"/>
<path d="M187.769 273.035L183.803 285.54C183.772 285.639 183.722 285.731 183.656 285.81C183.589 285.89 183.508 285.955 183.416 286.003C183.325 286.051 183.224 286.081 183.121 286.09C183.018 286.1 182.914 286.089 182.815 286.058C182.716 286.027 182.625 285.977 182.545 285.911C182.466 285.844 182.4 285.763 182.352 285.671C182.304 285.58 182.275 285.479 182.266 285.376C182.256 285.273 182.268 285.169 182.299 285.071L182.301 285.065L186.267 272.559C186.331 272.361 186.471 272.197 186.656 272.101C186.841 272.006 187.056 271.988 187.255 272.05C187.453 272.113 187.619 272.252 187.715 272.437C187.812 272.621 187.831 272.836 187.769 273.035Z" fill="white"/>
<path d="M180.557 281.485L179.684 284.236C179.653 284.335 179.603 284.426 179.537 284.506C179.471 284.585 179.389 284.65 179.298 284.698C179.206 284.746 179.106 284.776 179.003 284.785C178.9 284.794 178.796 284.783 178.697 284.753C178.598 284.722 178.507 284.672 178.427 284.606C178.348 284.539 178.282 284.458 178.234 284.367C178.186 284.275 178.157 284.175 178.147 284.072C178.138 283.969 178.149 283.865 178.18 283.767L178.182 283.76L179.055 281.009C179.086 280.911 179.136 280.819 179.202 280.74C179.268 280.66 179.349 280.595 179.441 280.547C179.533 280.499 179.633 280.469 179.736 280.46C179.839 280.451 179.943 280.462 180.042 280.493C180.14 280.524 180.232 280.574 180.311 280.64C180.391 280.706 180.456 280.787 180.504 280.879C180.552 280.97 180.582 281.071 180.591 281.173C180.601 281.276 180.589 281.38 180.559 281.479L180.557 281.485Z" fill="white"/>
<path d="M194.372 275.125L190.406 287.63C190.375 287.729 190.325 287.821 190.259 287.9C190.192 287.979 190.111 288.045 190.019 288.093C189.928 288.141 189.828 288.17 189.724 288.18C189.621 288.189 189.518 288.178 189.419 288.147C189.32 288.116 189.228 288.066 189.149 288C189.07 287.934 189.004 287.852 188.956 287.761C188.908 287.669 188.878 287.569 188.869 287.466C188.86 287.363 188.871 287.26 188.902 287.161L188.904 287.155L192.87 274.65C192.901 274.551 192.951 274.459 193.017 274.379C193.083 274.3 193.165 274.234 193.256 274.186C193.348 274.138 193.448 274.108 193.551 274.099C193.655 274.09 193.759 274.101 193.858 274.132C193.956 274.162 194.048 274.212 194.128 274.279C194.207 274.345 194.273 274.427 194.321 274.518C194.369 274.61 194.398 274.71 194.407 274.813C194.416 274.917 194.405 275.02 194.374 275.119L194.372 275.125Z" fill="white"/>
<path d="M191.071 274.081L187.104 286.586C187.073 286.685 187.023 286.776 186.957 286.856C186.891 286.935 186.81 287.001 186.718 287.049C186.626 287.097 186.526 287.127 186.423 287.136C186.32 287.145 186.216 287.134 186.117 287.103C186.018 287.073 185.926 287.023 185.847 286.956C185.767 286.89 185.702 286.809 185.654 286.717C185.606 286.625 185.576 286.525 185.567 286.422C185.558 286.319 185.569 286.215 185.6 286.116L185.602 286.11L189.569 273.605C189.599 273.506 189.649 273.415 189.716 273.335C189.782 273.256 189.863 273.191 189.955 273.143C190.047 273.095 190.147 273.065 190.25 273.056C190.353 273.047 190.457 273.058 190.555 273.089C190.654 273.119 190.746 273.169 190.825 273.236C190.905 273.302 190.97 273.383 191.018 273.475C191.066 273.566 191.096 273.666 191.105 273.769C191.114 273.872 191.103 273.976 191.072 274.075L191.071 274.081Z" fill="white"/>
<path d="M171.817 278.672C173.631 278.672 175.102 277.203 175.102 275.39C175.102 273.578 173.631 272.108 171.817 272.108C170.003 272.108 168.532 273.578 168.532 275.39C168.532 277.203 170.003 278.672 171.817 278.672Z" fill="#CCCCCC"/>
<path d="M244.129 147.252C244.45 145.987 243.234 144.587 241.413 144.126C239.592 143.665 237.856 144.317 237.535 145.583C237.214 146.848 238.43 148.248 240.251 148.709C242.071 149.17 243.808 148.518 244.129 147.252Z" fill="white"/>
<path d="M221.894 147.109C222.215 145.843 221 144.444 219.179 143.983C217.358 143.522 215.622 144.174 215.301 145.439C214.98 146.705 216.196 148.104 218.017 148.565C219.837 149.026 221.573 148.374 221.894 147.109Z" fill="#3F3D56"/>
<path d="M248.301 165.681C248.622 164.415 247.406 163.016 245.585 162.555C243.765 162.094 242.029 162.746 241.708 164.012C241.387 165.277 242.602 166.676 244.423 167.137C246.244 167.598 247.98 166.946 248.301 165.681Z" fill="#FF6584"/>
<path d="M253.484 172.63C253.616 171.452 253.057 170.422 252.237 170.33C251.416 170.239 250.644 171.12 250.512 172.299C250.38 173.477 250.939 174.507 251.759 174.599C252.58 174.69 253.352 173.809 253.484 172.63Z" fill="#E6E6E6"/>
<path d="M255.312 186.55C255.444 185.372 254.886 184.342 254.065 184.25C253.244 184.159 252.472 185.04 252.34 186.218C252.209 187.397 252.767 188.427 253.588 188.518C254.408 188.61 255.181 187.729 255.312 186.55Z" fill="#3F3D56"/>
<path d="M232.581 160.023C232.713 158.844 232.155 157.815 231.334 157.723C230.513 157.631 229.741 158.513 229.609 159.691C229.477 160.87 230.036 161.899 230.857 161.991C231.677 162.083 232.449 161.202 232.581 160.023Z" fill="#E6E6E6"/>
<path d="M243.77 155.824C243.902 154.645 243.344 153.615 242.523 153.524C241.702 153.432 240.93 154.313 240.798 155.492C240.667 156.671 241.225 157.7 242.046 157.792C242.866 157.883 243.639 157.002 243.77 155.824Z" fill="#FF6584"/>
<path d="M229.986 144.477C230.118 143.298 229.559 142.269 228.738 142.177C227.918 142.085 227.146 142.967 227.014 144.145C226.882 145.324 227.44 146.354 228.261 146.445C229.082 146.537 229.854 145.656 229.986 144.477Z" fill="#3F3D56"/>
<path d="M36.5275 139.375C36.8485 138.11 35.6327 136.71 33.812 136.249C31.9913 135.788 30.2552 136.44 29.9342 137.706C29.6132 138.971 30.829 140.371 32.6497 140.832C34.4704 141.293 36.2065 140.641 36.5275 139.375Z" fill="white"/>
<path d="M14.2934 139.233C14.6143 137.967 13.3986 136.568 11.5779 136.107C9.7572 135.646 8.02105 136.298 7.70007 137.563C7.3791 138.829 8.59485 140.228 10.4155 140.689C12.2362 141.15 13.9724 140.498 14.2934 139.233Z" fill="#3F3D56"/>
<path d="M40.6998 157.805C41.0208 156.54 39.8051 155.14 37.9844 154.679C36.1637 154.218 34.4275 154.87 34.1066 156.136C33.7856 157.401 35.0013 158.8 36.822 159.261C38.6427 159.722 40.3789 159.07 40.6998 157.805Z" fill="#FF6584"/>
<path d="M45.8827 164.754C46.0145 163.576 45.4561 162.546 44.6354 162.454C43.8148 162.363 43.0426 163.244 42.9108 164.423C42.779 165.601 43.3374 166.631 44.1581 166.723C44.9787 166.814 45.7509 165.933 45.8827 164.754Z" fill="#E6E6E6"/>
<path d="M47.7111 178.674C47.8429 177.496 47.2845 176.466 46.4638 176.374C45.6431 176.283 44.871 177.164 44.7392 178.342C44.6073 179.521 45.1658 180.551 45.9864 180.642C46.8071 180.734 47.5792 179.853 47.7111 178.674Z" fill="#3F3D56"/>
<path d="M24.9799 152.147C25.1117 150.968 24.5533 149.939 23.7326 149.847C22.9119 149.755 22.1398 150.637 22.008 151.815C21.8761 152.994 22.4346 154.023 23.2552 154.115C24.0759 154.207 24.848 153.326 24.9799 152.147Z" fill="#E6E6E6"/>
<path d="M36.1691 147.948C36.3009 146.769 35.7425 145.739 34.9218 145.648C34.1011 145.556 33.329 146.437 33.1972 147.616C33.0654 148.795 33.6238 149.824 34.4444 149.916C35.2651 150.007 36.0373 149.126 36.1691 147.948Z" fill="#FF6584"/>
<path d="M22.3844 136.601C22.5162 135.422 21.9578 134.393 21.1371 134.301C20.3165 134.209 19.5443 135.091 19.4125 136.269C19.2807 137.448 19.8391 138.478 20.6598 138.569C21.4804 138.661 22.2526 137.78 22.3844 136.601Z" fill="#3F3D56"/>
<path d="M178.404 202.332C172.985 195.131 169.853 187.078 169.75 177.896C169.575 177.402 169.604 176.858 169.831 176.384C170.057 175.911 170.462 175.546 170.957 175.371L189.428 168.841C189.923 168.667 190.467 168.696 190.941 168.922C191.415 169.148 191.78 169.552 191.956 170.047L200.61 194.482C200.784 194.977 200.755 195.521 200.529 195.994C200.303 196.468 199.898 196.832 199.403 197.008L180.932 203.537C180.437 203.712 179.892 203.683 179.418 203.457C178.945 203.231 178.58 202.826 178.404 202.332Z" fill="#F2F2F2"/>
<path opacity="0.2" d="M182.574 201.896C182.079 202.071 181.535 202.042 181.061 201.816C180.587 201.59 180.222 201.185 180.046 200.691C174.627 193.489 171.495 185.436 171.392 176.255C171.279 175.93 171.254 175.58 171.32 175.242L170.957 175.371C170.462 175.546 170.057 175.911 169.831 176.384C169.604 176.858 169.575 177.401 169.75 177.896C169.853 187.077 172.985 195.13 178.404 202.332C178.58 202.826 178.945 203.231 179.418 203.457C179.892 203.683 180.437 203.712 180.932 203.537L199.403 197.008C199.731 196.891 200.022 196.689 200.246 196.423C200.471 196.158 200.621 195.838 200.682 195.495L182.574 201.896Z" fill="black"/>
<path d="M191.228 183.606L178.862 188.016C178.665 188.087 178.449 188.076 178.26 187.986C178.071 187.897 177.925 187.736 177.855 187.54C177.785 187.343 177.796 187.127 177.885 186.938C177.975 186.749 178.135 186.604 178.332 186.534L190.698 182.124C190.796 182.089 190.899 182.074 191.002 182.079C191.106 182.084 191.207 182.11 191.3 182.154C191.394 182.198 191.478 182.26 191.547 182.337C191.617 182.414 191.67 182.503 191.705 182.601C191.74 182.698 191.755 182.801 191.75 182.904C191.745 183.008 191.719 183.109 191.675 183.202C191.631 183.296 191.568 183.379 191.492 183.449C191.415 183.518 191.325 183.572 191.228 183.606Z" fill="white"/>
<path d="M180.13 182.981L177.41 183.951C177.312 183.986 177.209 184.002 177.105 183.997C177.002 183.992 176.901 183.966 176.807 183.922C176.714 183.878 176.63 183.816 176.56 183.739C176.491 183.663 176.437 183.573 176.402 183.476C176.367 183.379 176.352 183.275 176.357 183.172C176.362 183.069 176.387 182.968 176.431 182.874C176.476 182.781 176.538 182.697 176.614 182.627C176.691 182.558 176.781 182.504 176.878 182.469L176.88 182.469L179.6 181.499C179.797 181.429 180.013 181.44 180.202 181.529C180.391 181.619 180.536 181.779 180.606 181.976C180.677 182.172 180.666 182.388 180.576 182.577C180.487 182.765 180.327 182.911 180.13 182.981Z" fill="white"/>
<path d="M193.557 190.125L181.191 194.535C181.093 194.57 180.99 194.585 180.887 194.58C180.783 194.575 180.682 194.55 180.588 194.505C180.495 194.461 180.411 194.399 180.342 194.323C180.272 194.246 180.218 194.157 180.183 194.059C180.148 193.962 180.133 193.859 180.138 193.755C180.143 193.652 180.168 193.551 180.213 193.458C180.257 193.364 180.319 193.28 180.396 193.211C180.472 193.141 180.562 193.088 180.659 193.053L180.661 193.052L193.027 188.642C193.224 188.572 193.44 188.583 193.629 188.673C193.817 188.762 193.963 188.923 194.033 189.119C194.103 189.316 194.092 189.532 194.003 189.72C193.914 189.909 193.753 190.054 193.557 190.125Z" fill="white"/>
<path d="M192.392 186.866L180.026 191.276C179.929 191.31 179.826 191.326 179.722 191.321C179.619 191.316 179.518 191.29 179.424 191.246C179.331 191.202 179.247 191.14 179.177 191.063C179.108 190.987 179.054 190.897 179.019 190.8C178.984 190.703 178.969 190.6 178.974 190.496C178.979 190.393 179.004 190.292 179.048 190.198C179.093 190.105 179.155 190.021 179.231 189.952C179.308 189.882 179.398 189.828 179.495 189.794L179.497 189.793L191.863 185.383C192.059 185.313 192.276 185.323 192.465 185.412C192.654 185.501 192.8 185.662 192.87 185.859C192.941 186.055 192.93 186.271 192.841 186.46C192.751 186.649 192.591 186.795 192.394 186.865L192.392 186.866Z" fill="white"/>
<path d="M179.7 175.623C181.515 175.623 182.985 174.154 182.985 172.341C182.985 170.529 181.515 169.06 179.7 169.06C177.886 169.06 176.416 170.529 176.416 172.341C176.416 174.154 177.886 175.623 179.7 175.623Z" fill="#CCCCCC"/>
</g>
<defs>
<clipPath id="clip0_322_6614">
<rect width="256" height="362" fill="white" transform="translate(0.5)"/>
</clipPath>
</defs>
</svg>
