<svg width="37" height="30" viewBox="0 0 37 30" fill="none" xmlns="http://www.w3.org/2000/svg">
<path d="M33.5741 0H3.42593C2.51772 0.00140977 1.64687 0.417645 1.00452 1.15741C0.362467 1.89754 0.00125291 2.90093 0 3.94737V26.0526C0.00122354 27.0991 0.362475 28.1025 1.00452 28.8426C1.64688 29.5824 2.51772 29.9986 3.42593 30H33.5741C34.4823 29.9989 35.3531 29.5827 35.9955 28.8426C36.6378 28.1025 36.9991 27.0991 37 26.0526V3.94737C36.9991 2.90093 36.6378 1.89753 35.9955 1.15741C35.3531 0.417293 34.4823 0.00108271 33.5741 0ZM3.42593 1.57895H33.5741C34.1192 1.57965 34.6416 1.82953 35.0271 2.27326C35.4122 2.71734 35.629 3.31934 35.6297 3.9474V5.08541L19.5767 16.4674C19.2534 16.6979 18.8805 16.8202 18.5 16.8202C18.1195 16.8202 17.7466 16.6979 17.423 16.4674L1.37086 5.08541V3.94776C1.37148 3.31971 1.58835 2.71771 1.97346 2.27362C2.35888 1.82989 2.88135 1.58001 3.42644 1.57931L3.42593 1.57895ZM33.5741 28.4211H3.42593C2.88084 28.4203 2.35837 28.1705 1.97294 27.7267C1.58783 27.2827 1.37096 26.6807 1.37035 26.0526V6.93922L16.7044 17.8114C17.2437 18.1966 17.8652 18.4003 18.4997 18.4003C19.1341 18.4003 19.7556 18.1966 20.2949 17.8114L35.629 6.93832V26.0526C35.6284 26.6807 35.4115 27.2826 35.0264 27.7267C34.641 28.1705 34.1185 28.4203 33.5734 28.4211H33.5741Z" fill="#717274"/>
</svg>
