<svg width="21" height="20" viewBox="0 0 21 20" fill="none" xmlns="http://www.w3.org/2000/svg">
<path d="M15.6133 15.3037C16.6812 14.2549 17.4084 12.9184 17.703 11.4634C17.9977 10.0084 17.8465 8.50031 17.2686 7.12975C16.6907 5.75919 15.7121 4.58779 14.4565 3.76369C13.2009 2.93959 11.7247 2.49982 10.2147 2.5C9.87728 2.5 9.55365 2.3683 9.31503 2.13388C9.07642 1.89946 8.94237 1.58152 8.94237 1.25C8.94237 0.918479 9.07642 0.600537 9.31503 0.366116C9.55365 0.131696 9.87728 0 10.2147 0C12.2279 0 14.1959 0.58649 15.8698 1.6853C17.5437 2.78412 18.8483 4.3459 19.6187 6.17316C20.3892 8.00043 20.5907 10.0111 20.198 11.9509C19.8052 13.8907 18.8358 15.6725 17.4122 17.0711C15.9887 18.4696 14.175 19.422 12.2005 19.8078C10.226 20.1937 8.17939 19.9957 6.31945 19.2388C4.45951 18.4819 2.8698 17.2002 1.75133 15.5557C0.632867 13.9112 0.0358887 11.9778 0.0358887 10C0.0358887 9.66848 0.16994 9.35054 0.408553 9.11611C0.647165 8.88169 0.970794 8.75 1.30824 8.75C1.64569 8.75 1.96932 8.88169 2.20793 9.11611C2.44655 9.35054 2.5806 9.66848 2.5806 10C2.58042 11.4835 3.02805 12.9337 3.86689 14.1672C4.70573 15.4008 5.89808 16.3622 7.29315 16.9299C8.68821 17.4977 10.2233 17.6462 11.7043 17.3567C13.1853 17.0673 14.5457 16.3528 15.6133 15.3037Z" fill="#4C9EEA"/>
</svg>
