<svg width="20" height="22" viewBox="0 0 20 22" fill="none" xmlns="http://www.w3.org/2000/svg">
<path d="M19 4.5H15V3.5C15 1.8425 13.6575 0.5 12 0.5H7.99997C6.34247 0.5 4.99997 1.8425 4.99997 3.5V4.5H0.999969C0.734779 4.50004 0.480465 4.60542 0.292961 4.79295C0.105458 4.98048 0.00012207 5.23481 0.00012207 5.5C0.00012207 5.76519 0.105458 6.01952 0.292961 6.20705C0.480465 6.39458 0.734779 6.49996 0.999969 6.5H1.99997V18.5C1.99997 20.1575 3.34247 21.5 4.99997 21.5H15C16.6575 21.5 18 20.1575 18 18.5V6.5H19C19.2652 6.49996 19.5195 6.39458 19.707 6.20705C19.8945 6.01952 19.9998 5.76519 19.9998 5.5C19.9998 5.23481 19.8945 4.98048 19.707 4.79295C19.5195 4.60542 19.2652 4.50004 19 4.5ZM6.99997 3.5C6.99997 2.9475 7.44747 2.5 7.99997 2.5H12C12.5525 2.5 13 2.9475 13 3.5V4.5H6.99997V3.5ZM16 18.5C16 19.0525 15.5525 19.5 15 19.5H4.99997C4.44747 19.5 3.99997 19.0525 3.99997 18.5V6.5H16V18.5Z" fill="white"/>
</svg>
