<svg width="24" height="24" viewBox="0 0 24 24" fill="none" xmlns="http://www.w3.org/2000/svg">
<path d="M12.1684 0.75C5.83208 0.75 0.717209 5.85 0.717209 12C0.717209 18.15 5.90842 23.25 12.1684 23.25C18.4284 23.25 23.6196 18.15 23.6196 12C23.6196 5.85 18.4284 0.75 12.1684 0.75ZM18.5811 9.675L11.7867 16.35C11.176 16.95 10.3362 16.95 9.80182 16.35L5.75573 12.375C5.145 11.775 5.145 10.95 5.75573 10.425C6.36646 9.9 7.20622 9.825 7.74061 10.425L10.7943 13.425L16.5199 7.8C17.1306 7.2 17.9703 7.2 18.5047 7.8C19.1155 8.25 19.1155 9.075 18.5811 9.675Z" fill="#11C00E"/>
</svg>
