<svg width="319" height="288" viewBox="0 0 319 288" fill="none" xmlns="http://www.w3.org/2000/svg">
<path d="M306.141 114.162C306.141 164.124 274.111 206.588 229.5 222.065C211.543 228.26 192.332 229.89 173.592 226.808C171.813 226.518 170.047 226.183 168.294 225.806C165.918 225.3 163.571 224.719 161.251 224.062C113.357 210.556 78.2529 166.467 78.2529 114.162C78.2529 51.1119 129.267 0 192.197 0C255.127 0 306.141 51.1119 306.141 114.162Z" fill="#E6E6E6"/>
<path d="M120.83 149.397C120.629 149.505 120.479 149.688 120.413 149.906C120.347 150.124 120.37 150.36 120.477 150.561L163.317 230.954C163.424 231.155 163.607 231.306 163.824 231.372C164.042 231.438 164.277 231.415 164.478 231.308L225.036 198.914C225.237 198.806 225.387 198.624 225.453 198.405C225.519 198.187 225.496 197.952 225.389 197.751L182.549 117.357C182.442 117.156 182.259 117.006 182.042 116.94C181.824 116.873 181.589 116.896 181.388 117.003L120.83 149.397Z" fill="#3F3D56"/>
<path d="M126.458 151.748L165.661 225.315L219.407 196.566L180.204 122.998L126.458 151.748ZM123.053 153.569L123.06 153.566L123.052 153.57L123.053 153.569Z" fill="white"/>
<path d="M140.01 159.836C139.175 160.283 138.997 161.587 139.613 162.742C140.229 163.898 141.409 164.475 142.244 164.029L181.607 142.972C182.442 142.526 182.62 141.222 182.004 140.066C181.388 138.911 180.208 138.333 179.373 138.78L140.01 159.836Z" fill="#FF3F22"/>
<path d="M144.859 168.936C144.024 169.382 143.847 170.686 144.463 171.842C145.078 172.997 146.259 173.575 147.093 173.128L186.456 152.072C187.291 151.625 187.469 150.322 186.853 149.166C186.238 148.01 185.057 147.433 184.222 147.88L144.859 168.936Z" fill="#FF3F22"/>
<path d="M149.709 178.037C148.874 178.484 148.696 179.788 149.312 180.943C149.928 182.099 151.108 182.676 151.943 182.23L191.306 161.174C192.141 160.727 192.319 159.423 191.703 158.268C191.087 157.112 189.907 156.535 189.072 156.981L149.709 178.037Z" fill="#FF3F22"/>
<path d="M154.56 187.139C153.725 187.585 153.547 188.889 154.163 190.045C154.779 191.2 155.959 191.778 156.794 191.331L196.157 170.275C196.992 169.829 197.169 168.525 196.554 167.369C195.938 166.214 194.758 165.636 193.923 166.083L154.56 187.139Z" fill="#FF3F22"/>
<path d="M159.409 196.24C158.574 196.687 158.396 197.991 159.012 199.146C159.628 200.302 160.808 200.879 161.643 200.433L201.006 179.377C201.841 178.93 202.019 177.626 201.403 176.471C200.787 175.315 199.607 174.738 198.772 175.184L159.409 196.24Z" fill="#FF3F22"/>
<path d="M167.053 114.665L202.72 116.847L212.709 87.0016L181.425 80.3789L167.053 114.665Z" fill="#2F2E41"/>
<path d="M192.777 107.118C200.655 107.118 207.042 100.719 207.042 92.8255C207.042 84.9321 200.655 78.5332 192.777 78.5332C184.898 78.5332 178.512 84.9321 178.512 92.8255C178.512 100.719 184.898 107.118 192.777 107.118Z" fill="#FFB8B8"/>
<path d="M229.407 220.952L229.5 222.064C211.543 228.259 192.332 229.889 173.592 226.807L168.294 225.805L173.335 214.603L176.64 207.261L175.45 181.859L175.324 179.23L175.168 175.877L177.321 175.864L192.626 175.771L207.212 175.679L209.436 175.666C223.382 192.854 234.89 206.823 229.407 220.952Z" fill="#2F2E41"/>
<path d="M209.225 175.456L175.168 179.248L173.907 155.657C169.91 145.444 172.548 136.328 180.843 128.147L182.53 121.459C182.972 119.704 183.887 118.104 185.174 116.833C186.461 115.562 188.071 114.669 189.829 114.251C195.404 111.047 201.719 109.52 208.805 109.739C211.634 110.846 214.034 112.836 215.648 115.414C217.263 117.992 218.007 121.022 217.771 124.057C216.305 142.596 213.674 159.951 209.225 175.456Z" fill="#FF3F22"/>
<path d="M181.985 75.9401C181.985 75.9401 174.609 78.6369 174.42 88.4417C174.409 90.0917 174.629 91.7349 175.073 93.3239C175.551 95.1259 175.935 99.0357 172.718 104.248C170.617 107.631 168.717 111.135 167.028 114.743L175.334 115.546L176.707 101.752C177.373 95.064 179.018 88.5109 181.589 82.3032L181.643 82.1737C181.643 82.1737 185.453 88.8087 192.695 88.6043L190.035 86.0861C190.035 86.0861 199.106 89.5083 204.038 90.1954C204.6 90.2739 205.131 90.5048 205.573 90.8632C206.014 91.2216 206.35 91.6939 206.544 92.2293C206.737 92.7646 206.781 93.3428 206.671 93.9014C206.561 94.46 206.301 94.9779 205.919 95.3993C205.89 95.431 205.86 95.4629 205.83 95.4948C202.814 98.6919 196.811 106.123 200.592 111.721C204.373 117.32 201.313 118.962 201.313 118.962L206.915 115.692L209.458 114.064L209.516 116.137L222.921 114.203C222.921 114.203 226.528 113.582 218.521 104.991C218.521 104.991 216.376 101.628 217.189 98.6516C217.863 96.3882 217.989 93.9968 217.558 91.6748C215.547 82.0084 208.184 62.8853 181.985 75.9401Z" fill="#2F2E41"/>
<path d="M192.196 286.947C220.526 286.947 243.492 285.626 243.492 283.998C243.492 282.369 220.526 281.049 192.196 281.049C163.866 281.049 140.9 282.369 140.9 283.998C140.9 285.626 163.866 286.947 192.196 286.947Z" fill="#E6E6E6"/>
<path d="M0.312121 135.872C0.204428 135.901 0.112564 135.972 0.0566878 136.068C0.000811846 136.165 -0.0145136 136.28 0.0140813 136.388L11.4884 179.536C11.5172 179.644 11.5876 179.736 11.6841 179.792C11.7805 179.848 11.8952 179.864 12.003 179.835L44.5057 171.159C44.6134 171.13 44.7053 171.059 44.7611 170.963C44.817 170.866 44.8323 170.751 44.8037 170.643L33.3294 127.494C33.3006 127.386 33.2302 127.294 33.1338 127.238C33.0373 127.182 32.9226 127.167 32.8149 127.196L0.312121 135.872Z" fill="#F2F2F2"/>
<path d="M8.29918 142.996C7.85103 143.116 7.62086 143.718 7.78579 144.338C7.95072 144.959 8.44941 145.366 8.89755 145.247L30.0243 139.607C30.4725 139.487 30.7026 138.885 30.5377 138.265C30.3728 137.645 29.8741 137.237 29.4259 137.357L8.29918 142.996Z" fill="white"/>
<path d="M9.598 147.881C9.14986 148.001 8.91969 148.603 9.08462 149.223C9.24956 149.843 9.74824 150.251 10.1964 150.131L31.3232 144.492C31.7713 144.372 32.0015 143.77 31.8365 143.15C31.6716 142.529 31.1729 142.122 30.7248 142.242L9.598 147.881Z" fill="white"/>
<path d="M10.8968 152.766C10.4487 152.886 10.2185 153.488 10.3834 154.108C10.5484 154.728 11.0471 155.136 11.4952 155.016L32.622 149.376C33.0701 149.257 33.3003 148.655 33.1354 148.034C32.9704 147.414 32.4718 147.007 32.0236 147.126L10.8968 152.766Z" fill="white"/>
<path d="M12.1957 157.651C11.7475 157.77 11.5173 158.373 11.6823 158.993C11.8472 159.613 12.3459 160.021 12.794 159.901L33.9208 154.261C34.369 154.142 34.5991 153.539 34.4342 152.919C34.2693 152.299 33.7706 151.891 33.3224 152.011L12.1957 157.651Z" fill="white"/>
<path d="M13.4945 162.536C13.0463 162.655 12.8162 163.257 12.9811 163.878C13.146 164.498 13.6447 164.905 14.0929 164.786L35.2197 159.146C35.6678 159.026 35.898 158.424 35.733 157.804C35.5681 157.184 35.0694 156.776 34.6213 156.896L13.4945 162.536Z" fill="white"/>
<path d="M14.7943 167.42C14.3462 167.54 14.116 168.142 14.2809 168.762C14.4458 169.383 14.9445 169.79 15.3927 169.671L36.5195 164.031C36.9676 163.911 37.1978 163.309 37.0328 162.689C36.8679 162.069 36.3692 161.661 35.9211 161.781L14.7943 167.42Z" fill="white"/>
<path d="M83.375 287.903C83.375 287.956 83.5635 288 83.7955 288H128.364C128.596 288 128.784 287.956 128.784 287.903V280.094C128.784 280.04 128.596 279.996 128.364 279.996H83.7955C83.5635 279.996 83.375 280.04 83.375 280.094V287.903Z" fill="#F2F2F2"/>
<path d="M92.3047 286.537C92.3047 286.644 92.8262 286.732 93.4668 286.732C94.1074 286.732 94.6289 286.644 94.6289 286.537V281.461C94.6289 281.353 94.1074 281.266 93.4668 281.266C92.8262 281.266 92.3047 281.353 92.3047 281.461V286.537Z" fill="white"/>
<path d="M97.3496 286.537C97.3496 286.644 97.8711 286.732 98.5117 286.732C99.1523 286.732 99.6738 286.644 99.6738 286.537V281.461C99.6738 281.353 99.1523 281.266 98.5117 281.266C97.8711 281.266 97.3496 281.353 97.3496 281.461V286.537Z" fill="white"/>
<path d="M102.396 286.537C102.396 286.644 102.917 286.732 103.558 286.732C104.198 286.732 104.72 286.644 104.72 286.537V281.461C104.72 281.353 104.198 281.266 103.558 281.266C102.917 281.266 102.396 281.353 102.396 281.461V286.537Z" fill="white"/>
<path d="M107.44 286.537C107.44 286.644 107.962 286.732 108.603 286.732C109.243 286.732 109.765 286.644 109.765 286.537V281.461C109.765 281.353 109.243 281.266 108.603 281.266C107.962 281.266 107.44 281.353 107.44 281.461V286.537Z" fill="white"/>
<path d="M112.486 286.537C112.486 286.644 113.008 286.732 113.648 286.732C114.289 286.732 114.811 286.644 114.811 286.537V281.461C114.811 281.353 114.289 281.266 113.648 281.266C113.008 281.266 112.486 281.353 112.486 281.461V286.537Z" fill="white"/>
<path d="M117.531 286.537C117.531 286.644 118.053 286.732 118.693 286.732C119.334 286.732 119.855 286.644 119.855 286.537V281.461C119.855 281.353 119.334 281.266 118.693 281.266C118.053 281.266 117.531 281.353 117.531 281.461V286.537Z" fill="white"/>
<path d="M1.50451 104.734C1.40622 104.787 1.33282 104.877 1.30041 104.984C1.268 105.09 1.27923 105.206 1.33163 105.304L22.3223 144.696C22.3749 144.794 22.4644 144.868 22.571 144.9C22.6777 144.933 22.7929 144.921 22.8913 144.869L52.5637 128.997C52.6619 128.944 52.7353 128.854 52.7678 128.747C52.8002 128.64 52.7889 128.525 52.7365 128.427L31.7458 89.0352C31.6932 88.9367 31.6038 88.8632 31.4971 88.8307C31.3905 88.7982 31.2753 88.8095 31.1769 88.862L1.50451 104.734Z" fill="#E6E6E6"/>
<path d="M4.26285 105.884L23.4715 141.93L49.8057 127.844L30.5971 91.7969L4.26285 105.884ZM2.59416 106.776L2.59786 106.774L2.59375 106.776L2.59416 106.776Z" fill="white"/>
<path d="M10.9025 109.848C10.4934 110.067 10.4063 110.706 10.708 111.272C11.0098 111.838 11.588 112.121 11.9972 111.902L31.2842 101.585C31.6933 101.366 31.7804 100.728 31.4787 100.161C31.177 99.5951 30.5987 99.3122 30.1896 99.5311L10.9025 109.848Z" fill="#FF3F22"/>
<path d="M13.2785 114.307C12.8694 114.526 12.7823 115.165 13.084 115.731C13.3857 116.297 13.964 116.58 14.3731 116.361L33.6602 106.044C34.0693 105.825 34.1564 105.187 33.8547 104.62C33.553 104.054 32.9747 103.771 32.5656 103.99L13.2785 114.307Z" fill="#FF3F22"/>
<path d="M15.6554 118.766C15.2463 118.985 15.1592 119.624 15.461 120.19C15.7627 120.756 16.341 121.039 16.7501 120.82L36.0372 110.503C36.4463 110.284 36.5334 109.646 36.2317 109.079C35.9299 108.513 35.3516 108.23 34.9425 108.449L15.6554 118.766Z" fill="#FF3F22"/>
<path d="M18.0314 123.225C17.6223 123.444 17.5352 124.083 17.8369 124.649C18.1387 125.215 18.717 125.498 19.1261 125.279L38.4131 114.962C38.8222 114.743 38.9093 114.105 38.6076 113.538C38.3059 112.972 37.7276 112.689 37.3185 112.908L18.0314 123.225Z" fill="#FF3F22"/>
<path d="M20.4074 127.686C19.9983 127.905 19.9112 128.544 20.2129 129.11C20.5146 129.676 21.0929 129.959 21.502 129.74L40.7891 119.423C41.1982 119.204 41.2853 118.565 40.9836 117.999C40.6819 117.433 40.1036 117.15 39.6945 117.369L20.4074 127.686Z" fill="#FF3F22"/>
<path d="M22.7844 132.145C22.3753 132.364 22.2881 133.003 22.5899 133.569C22.8916 134.135 23.4699 134.418 23.879 134.199L43.1661 123.882C43.5752 123.663 43.6623 123.024 43.3606 122.458C43.0588 121.892 42.4805 121.609 42.0714 121.828L22.7844 132.145Z" fill="#FF3F22"/>
<path d="M289.835 205.398C289.739 205.342 289.624 205.325 289.516 205.353C289.408 205.381 289.316 205.451 289.259 205.547L266.585 243.99C266.528 244.086 266.512 244.201 266.54 244.309C266.567 244.417 266.637 244.51 266.733 244.567L295.691 261.712C295.787 261.769 295.902 261.785 296.01 261.757C296.118 261.73 296.21 261.66 296.267 261.564L318.941 223.121C318.998 223.025 319.014 222.91 318.986 222.802C318.959 222.693 318.889 222.601 318.793 222.544L289.835 205.398Z" fill="#E6E6E6"/>
<path d="M290.288 208.357L269.539 243.536L295.239 258.753L315.988 223.574L290.288 208.357ZM288.659 207.393L288.663 207.395L288.659 207.393L288.659 207.393Z" fill="white"/>
<path d="M290.36 216.1C289.961 215.863 289.371 216.121 289.045 216.673C288.719 217.226 288.779 217.868 289.178 218.104L308.001 229.249C308.4 229.485 308.99 229.228 309.316 228.675C309.642 228.122 309.583 227.48 309.183 227.244L290.36 216.1Z" fill="#FF3F22"/>
<path d="M287.793 220.451C287.394 220.215 286.804 220.472 286.478 221.025C286.152 221.577 286.211 222.219 286.611 222.456L305.433 233.6C305.833 233.837 306.423 233.579 306.749 233.027C307.075 232.474 307.015 231.832 306.616 231.596L287.793 220.451Z" fill="#FF3F22"/>
<path d="M285.227 224.805C284.827 224.568 284.237 224.826 283.912 225.378C283.586 225.931 283.645 226.573 284.044 226.809L302.867 237.954C303.266 238.19 303.856 237.933 304.182 237.38C304.508 236.828 304.449 236.186 304.05 235.949L285.227 224.805Z" fill="#FF3F22"/>
<path d="M282.659 229.156C282.26 228.92 281.67 229.177 281.344 229.73C281.018 230.283 281.078 230.925 281.477 231.161L300.3 242.305C300.699 242.542 301.289 242.284 301.615 241.732C301.941 241.179 301.881 240.537 301.482 240.301L282.659 229.156Z" fill="#FF3F22"/>
<path d="M280.093 233.508C279.694 233.271 279.104 233.529 278.778 234.081C278.452 234.634 278.511 235.276 278.91 235.513L297.733 246.657C298.133 246.893 298.723 246.636 299.048 246.083C299.374 245.531 299.315 244.889 298.916 244.652L280.093 233.508Z" fill="#FF3F22"/>
<path d="M277.526 237.859C277.126 237.623 276.536 237.88 276.21 238.433C275.884 238.986 275.944 239.628 276.343 239.864L295.166 251.009C295.565 251.245 296.155 250.987 296.481 250.435C296.807 249.882 296.748 249.24 296.348 249.004L277.526 237.859Z" fill="#FF3F22"/>
<path d="M185.259 135.436L184.822 138.148L180.214 166.609L177.321 175.864L176.304 179.121L175.45 181.859L165.078 215.054L162.232 221.754C160.67 222.332 159.328 223.385 158.393 224.766C157.458 226.146 156.978 227.785 157.018 229.452C157.058 231.12 157.618 232.733 158.618 234.067C159.619 235.4 161.01 236.387 162.598 236.889C164.185 237.391 165.89 237.384 167.473 236.868C169.056 236.352 170.439 235.353 171.428 234.01C172.417 232.668 172.962 231.05 172.988 229.382C173.013 227.714 172.518 226.08 171.571 224.708L191.873 177.389L192.626 175.772L194.93 170.822L199.282 137.925L199.555 135.857L185.259 135.436Z" fill="#FFB8B8"/>
<path d="M202.078 138.806C195.47 136.427 189.131 136.174 183.157 138.806L185.107 121.873C185.036 119.759 185.795 117.7 187.222 116.141C188.65 114.582 190.631 113.646 192.739 113.535C194.874 113.422 196.966 114.164 198.555 115.597C200.144 117.029 201.1 119.036 201.212 121.175L201.214 121.203L202.078 138.806Z" fill="#FF3F22"/>
</svg>
