<svg width="715" height="1024" viewBox="0 0 715 1024" fill="none" xmlns="http://www.w3.org/2000/svg">
<rect x="17.5" width="697" height="1024" fill="#983333"/>
<g filter="url(#filter0_f_322_1656)">
<path d="M343.967 189.5C294.767 162.7 262.8 41.3333 252.967 -16H207.967C199.3 36.3333 188.767 150.7 215.967 189.5C243.167 228.3 312.633 205.667 343.967 189.5Z" fill="url(#paint0_linear_322_1656)"/>
</g>
<g filter="url(#filter1_f_322_1656)">
<path d="M183.5 766.655C155.756 771.868 75.1068 718.724 39 696C44.8228 801.064 169.041 942.443 210 965C199.725 905.25 174.937 787.541 183.5 766.655Z" fill="url(#paint1_linear_322_1656)"/>
</g>
<path d="M423.405 779.184C288.164 864.328 96.4511 786.019 17.5 736.221V0H714.5V329.054C683.763 358.021 615.419 443.686 587.937 554.607C547.776 716.703 466.798 750.542 423.405 779.184Z" fill="url(#paint2_linear_322_1656)"/>
<path d="M371.575 681C627.14 742.202 667.301 661.515 714.075 618L712.767 1098C700.565 1035.98 561.075 1072.5 520.075 1072.5C333.372 1072.5 233.5 1020 171.575 918.5C134.782 858.195 108.5 618 371.575 681Z" fill="url(#paint3_linear_322_1656)"/>
<g filter="url(#filter2_f_322_1656)">
<path d="M527.104 216.5C375.904 90.5 366.104 16.3333 380.104 -5H482.604C533.771 72.8333 634.104 243.6 626.104 304C618.104 364.4 556.771 387.167 527.104 391C583.904 331.4 550.771 249.833 527.104 216.5Z" fill="url(#paint4_linear_322_1656)" fill-opacity="0.66"/>
</g>
<g filter="url(#filter3_f_322_1656)">
<path d="M490.03 270.908C513.254 352.579 396.586 478.028 308.916 491.313C342.71 512.862 499.879 538.855 543.999 456.787C588.118 374.719 502.873 275.009 490.03 270.908Z" fill="url(#paint5_linear_322_1656)" fill-opacity="0.4"/>
</g>
<path d="M403.5 196.5C245.5 187.3 79 51 15.5 -16V410.5C241.9 548.9 403.5 477.5 463 410.5C507.158 360.775 561.5 205.7 403.5 196.5Z" fill="url(#paint6_linear_322_1656)"/>
<path d="M537.04 226.268C342.545 339.998 257.64 122.81 239.5 0H714.5V294C704.562 158.834 592.053 192.527 537.04 226.268Z" fill="url(#paint7_linear_322_1656)"/>
<defs>
<filter id="filter0_f_322_1656" x="161.5" y="-53" width="219.467" height="300.923" filterUnits="userSpaceOnUse" color-interpolation-filters="sRGB">
<feFlood flood-opacity="0" result="BackgroundImageFix"/>
<feBlend mode="normal" in="SourceGraphic" in2="BackgroundImageFix" result="shape"/>
<feGaussianBlur stdDeviation="18.5" result="effect1_foregroundBlur_322_1656"/>
</filter>
<filter id="filter1_f_322_1656" x="0" y="657" width="249" height="347" filterUnits="userSpaceOnUse" color-interpolation-filters="sRGB">
<feFlood flood-opacity="0" result="BackgroundImageFix"/>
<feBlend mode="normal" in="SourceGraphic" in2="BackgroundImageFix" result="shape"/>
<feGaussianBlur stdDeviation="19.5" result="effect1_foregroundBlur_322_1656"/>
</filter>
<filter id="filter2_f_322_1656" x="345.5" y="-35" width="311.055" height="456" filterUnits="userSpaceOnUse" color-interpolation-filters="sRGB">
<feFlood flood-opacity="0" result="BackgroundImageFix"/>
<feBlend mode="normal" in="SourceGraphic" in2="BackgroundImageFix" result="shape"/>
<feGaussianBlur stdDeviation="15" result="effect1_foregroundBlur_322_1656"/>
</filter>
<filter id="filter3_f_322_1656" x="285.916" y="247.908" width="293.646" height="288.065" filterUnits="userSpaceOnUse" color-interpolation-filters="sRGB">
<feFlood flood-opacity="0" result="BackgroundImageFix"/>
<feBlend mode="normal" in="SourceGraphic" in2="BackgroundImageFix" result="shape"/>
<feGaussianBlur stdDeviation="11.5" result="effect1_foregroundBlur_322_1656"/>
</filter>
<linearGradient id="paint0_linear_322_1656" x1="285.967" y1="56.5" x2="109.467" y2="154" gradientUnits="userSpaceOnUse">
<stop stop-color="#862929"/>
<stop offset="0.641273" stop-color="#862929" stop-opacity="0"/>
</linearGradient>
<linearGradient id="paint1_linear_322_1656" x1="177.5" y1="719.5" x2="55.4999" y2="891.5" gradientUnits="userSpaceOnUse">
<stop stop-color="#862424" stop-opacity="0.6"/>
<stop offset="1" stop-color="#812C2C" stop-opacity="0"/>
</linearGradient>
<linearGradient id="paint2_linear_322_1656" x1="651" y1="218.354" x2="-140.132" y2="700.457" gradientUnits="userSpaceOnUse">
<stop stop-color="white" stop-opacity="0"/>
<stop offset="0.585028" stop-color="#FAFAFA" stop-opacity="0.33"/>
<stop offset="0.948023" stop-color="#F8F8F8" stop-opacity="0.13"/>
</linearGradient>
<linearGradient id="paint3_linear_322_1656" x1="187.011" y1="1073.03" x2="730.763" y2="546.596" gradientUnits="userSpaceOnUse">
<stop stop-color="white"/>
<stop offset="0.885903" stop-color="white" stop-opacity="0"/>
</linearGradient>
<linearGradient id="paint4_linear_322_1656" x1="438.104" y1="-28.5" x2="569.104" y2="391" gradientUnits="userSpaceOnUse">
<stop stop-color="#7C1818"/>
<stop offset="0.901465" stop-color="#7C1818" stop-opacity="0"/>
</linearGradient>
<linearGradient id="paint5_linear_322_1656" x1="313.358" y1="337.77" x2="561.976" y2="526.465" gradientUnits="userSpaceOnUse">
<stop offset="0.124193" stop-color="#851717"/>
<stop offset="0.860083" stop-color="#851717" stop-opacity="0"/>
</linearGradient>
<linearGradient id="paint6_linear_322_1656" x1="634" y1="272" x2="-53" y2="-16.5" gradientUnits="userSpaceOnUse">
<stop offset="0.119222" stop-color="white" stop-opacity="0.67"/>
<stop offset="0.899067" stop-color="#723535" stop-opacity="0"/>
</linearGradient>
<linearGradient id="paint7_linear_322_1656" x1="476.704" y1="-157.792" x2="476.704" y2="402.668" gradientUnits="userSpaceOnUse">
<stop offset="0.187879" stop-color="white"/>
<stop offset="0.73791" stop-color="white" stop-opacity="0.04"/>
</linearGradient>
</defs>
</svg>
