<svg width="45" height="44" viewBox="0 0 45 44" fill="none" xmlns="http://www.w3.org/2000/svg">
<path d="M29.0097 2.19922H8.8876C7.52074 2.19922 6.4126 3.30736 6.4126 4.67422V38.0869C6.4126 38.7703 6.68936 39.3891 7.13772 39.8368C7.36725 40.067 7.64001 40.2495 7.94031 40.374C8.24061 40.4984 8.56254 40.5623 8.8876 40.5619H36.1126C37.4795 40.5619 38.5876 39.4538 38.5876 38.0869V11.7771L29.0097 2.19922Z" fill="#EF4A4A"/>
<path d="M29.0096 2.19922H28.6875V9.62422C28.6875 10.9911 29.7956 12.0992 31.1625 12.0992H38.5875V11.7771L29.0096 2.19922Z" fill="#F19A9A"/>
<path d="M30.0985 23.8269C30.7032 24.1665 30.6168 24.4209 31.0489 24.0812C31.4809 23.7424 30.6168 23.318 29.9258 23.063C29.2343 22.8083 25.9499 22.4063 25.9499 22.4063C25.9499 22.4063 26.1569 22.6838 26.4374 22.9678C26.9584 23.2294 27.4228 23.4005 27.7656 23.5684C28.4683 23.5561 29.5881 23.5404 30.0985 23.8269ZM31.0308 24.7555C30.5987 24.5012 28.9745 24.251 27.9376 23.657C27.885 23.6267 27.8256 23.5976 27.7654 23.5684C27.6349 23.5701 27.5139 23.5726 27.4193 23.5726C27.1093 23.5726 26.7322 23.2661 26.4372 22.9678C25.2307 22.3623 23.7262 21.2601 22.752 18.5031C22.752 18.5031 22.147 16.2963 22.0608 15.5327C21.9743 14.7695 22.3199 14.0052 22.4926 14.6843C22.4926 14.6843 22.8382 15.4482 22.6655 16.042L22.8385 17.0601C22.8385 17.0601 23.4432 14.8542 23.0112 14.2595C23.0112 14.2595 21.3785 13.3267 21.2923 14.7695C21.2058 16.2118 21.3829 18.3201 21.5556 18.6597C21.5556 18.6597 19.8407 23.8266 17.5937 26.9669C17.5937 26.9669 16.6433 28.3241 16.2112 28.4944C16.2112 28.4944 15.1737 28.9188 15.8649 27.9851C15.8649 27.9851 17.5072 26.1182 17.8528 25.6091C17.8528 25.6091 14.8461 27.3066 14.6732 27.7301C14.5005 28.1549 14.0726 29.0076 15.1734 29.4276C15.1734 29.4276 16.4431 29.5304 17.3935 28.5122C17.3935 28.5122 19.6225 25.7926 20.0546 24.944C20.0546 24.944 21.4558 24.4303 26.1224 23.5816C26.1224 23.5816 28.6289 24.761 29.4072 24.9302C30.1847 25.1005 30.5303 25.694 30.5303 25.694C30.5303 25.694 31.4629 25.0107 31.0308 24.7555ZM20.4869 23.8491L22.3157 20.2624C22.4887 21.1114 24.1714 22.7506 24.1714 22.7506C23.4802 22.8353 20.4869 23.8491 20.4869 23.8491Z" fill="white"/>
</svg>
