<svg width="36" height="35" viewBox="0 0 36 35" fill="none" xmlns="http://www.w3.org/2000/svg">
<path fill-rule="evenodd" clip-rule="evenodd" d="M29.6956 15.5064L19.9941 5.80519L1.71019 24.0887C1.44834 24.3505 1.28579 24.6965 1.25221 25.0639L0.506936 33.2749C0.462763 33.7413 0.631326 34.2036 0.962799 34.5371C1.29639 34.8686 1.75861 35.0375 2.22506 34.993L10.4362 34.2477C10.8034 34.2138 11.1497 34.0512 11.4115 33.7898L29.6956 15.5064ZM22.2315 3.56533L31.9348 13.2684L33.8006 11.4026C34.8876 10.3135 35.5 8.8357 35.5 7.2971C35.5 5.75815 34.8879 4.28071 33.8006 3.19379L32.3061 1.69935C31.2191 0.612343 29.7413 0 28.2027 0C26.6637 0 25.1863 0.612036 24.0971 1.69935L22.2315 3.56533Z" fill="#B62122"/>
</svg>
