<svg width="406" height="348" viewBox="0 0 406 348" fill="none" xmlns="http://www.w3.org/2000/svg">
<g clip-path="url(#clip0_688_2615)">
<path d="M30.9135 319.356C33.2472 320.178 35.7529 320.383 38.1891 319.954C40.6253 319.524 42.9099 318.473 44.8228 316.903C49.6945 312.808 51.2223 306.064 52.4647 299.818L56.1408 281.343L48.4447 286.65C42.9098 290.466 37.2506 294.404 33.4186 299.931C29.5867 305.459 27.9149 313.004 30.9929 318.985" fill="#E6E6E6"/>
<path d="M32.0985 343.01C31.1298 335.943 30.1332 328.785 30.8143 321.643C31.4179 315.299 33.3506 309.105 37.2853 304.024C39.3739 301.332 41.9152 299.026 44.7951 297.209C45.5459 296.735 46.2371 297.926 45.4896 298.399C40.5063 301.552 36.6519 306.209 34.4821 311.697C32.0857 317.8 31.7009 324.453 32.1136 330.937C32.3631 334.858 32.8933 338.753 33.4258 342.643C33.4679 342.819 33.4416 343.004 33.3524 343.161C33.2632 343.319 33.1176 343.436 32.9452 343.49C32.7693 343.538 32.5818 343.514 32.4233 343.424C32.2649 343.334 32.1484 343.185 32.099 343.009L32.0985 343.01Z" fill="#F2F2F2"/>
<path d="M39.0742 331.671C40.0749 333.194 41.4507 334.434 43.0689 335.271C44.6871 336.107 46.4932 336.513 48.3131 336.447C52.9913 336.225 56.8898 332.957 60.3989 329.853L70.7803 320.675L63.9098 320.346C58.9688 320.109 53.9004 319.886 49.1942 321.414C44.4881 322.941 40.1479 326.612 39.2875 331.49" fill="#E6E6E6"/>
<path d="M29.3639 347.072C34.0274 338.81 39.4362 329.627 49.1017 326.692C51.7889 325.878 54.6066 325.587 57.4031 325.833C58.2847 325.91 58.0645 327.27 57.1848 327.194C52.4971 326.804 47.8184 328.044 43.9364 330.704C40.2008 333.25 37.2921 336.79 34.8305 340.543C33.3225 342.843 31.9718 345.24 30.6211 347.633C30.1895 348.399 28.9273 347.846 29.3639 347.072Z" fill="#F2F2F2"/>
<path d="M402.511 245.071H145.406C144.614 245.07 143.855 244.755 143.294 244.194C142.734 243.633 142.419 242.872 142.418 242.079V2.99232C142.419 2.19903 142.734 1.43852 143.294 0.877575C143.855 0.316632 144.614 0.00103703 145.406 0H402.511C403.304 0.00103703 404.063 0.316632 404.623 0.877575C405.183 1.43852 405.499 2.19903 405.5 2.99232V242.078C405.499 242.872 405.184 243.632 404.623 244.193C404.063 244.754 403.304 245.07 402.511 245.071V245.071Z" fill="white"/>
<path d="M402.511 245.071H145.406C144.614 245.07 143.855 244.755 143.294 244.194C142.734 243.633 142.419 242.872 142.418 242.079V2.99232C142.419 2.19903 142.734 1.43852 143.294 0.877575C143.855 0.316632 144.614 0.00103703 145.406 0H402.511C403.304 0.00103703 404.063 0.316632 404.623 0.877575C405.183 1.43852 405.499 2.19903 405.5 2.99232V242.078C405.499 242.872 405.184 243.632 404.623 244.193C404.063 244.754 403.304 245.07 402.511 245.071V245.071ZM145.406 1.19457C144.931 1.1956 144.476 1.38493 144.141 1.72111C143.805 2.05729 143.616 2.51296 143.615 2.98839V242.078C143.616 242.554 143.805 243.01 144.141 243.346C144.476 243.682 144.931 243.871 145.406 243.872H402.511C402.986 243.871 403.441 243.682 403.777 243.346C404.113 243.01 404.302 242.554 404.303 242.078V2.99232C404.302 2.51689 404.113 2.06122 403.777 1.72504C403.441 1.38886 402.986 1.19953 402.511 1.1985L145.406 1.19457Z" fill="#CACACA"/>
<path d="M266.892 62.1274C266.355 62.1284 265.84 62.3428 265.46 62.7237C265.08 63.1046 264.867 63.6207 264.867 64.1589C264.867 64.6971 265.08 65.2133 265.46 65.5942C265.84 65.9751 266.355 66.1895 266.892 66.1904H378.215C378.753 66.1895 379.268 65.9751 379.648 65.5942C380.027 65.2133 380.241 64.6971 380.241 64.1589C380.241 63.6207 380.027 63.1046 379.648 62.7237C379.268 62.3428 378.753 62.1284 378.215 62.1274H266.892Z" fill="#E4E4E4"/>
<path d="M266.895 74.3174C266.358 74.3187 265.843 74.5333 265.464 74.9141C265.084 75.295 264.871 75.811 264.871 76.3489C264.871 76.8868 265.084 77.4028 265.464 77.7836C265.843 78.1645 266.358 78.3791 266.895 78.3804H323.728C324.265 78.3791 324.78 78.1645 325.159 77.7836C325.538 77.4028 325.751 76.8868 325.751 76.3489C325.751 75.811 325.538 75.295 325.159 74.9141C324.78 74.5333 324.265 74.3187 323.728 74.3174H266.895Z" fill="#E4E4E4"/>
<path d="M169.594 139.872C169.057 139.873 168.542 140.087 168.163 140.468C167.783 140.849 167.57 141.365 167.57 141.903C167.57 142.441 167.783 142.957 168.163 143.338C168.542 143.719 169.057 143.933 169.594 143.935H378.325C378.862 143.933 379.377 143.719 379.756 143.338C380.136 142.957 380.349 142.441 380.349 141.903C380.349 141.365 380.136 140.849 379.756 140.468C379.377 140.087 378.862 139.873 378.325 139.872H169.594Z" fill="#E4E4E4"/>
<path d="M169.594 152.062C169.057 152.063 168.542 152.278 168.163 152.659C167.783 153.04 167.57 153.556 167.57 154.093C167.57 154.631 167.783 155.147 168.163 155.528C168.542 155.909 169.057 156.124 169.594 156.125H323.835C324.372 156.124 324.887 155.909 325.266 155.528C325.645 155.147 325.859 154.631 325.859 154.093C325.859 153.556 325.645 153.04 325.266 152.659C324.887 152.278 324.372 152.063 323.835 152.062H169.594Z" fill="#E4E4E4"/>
<path d="M169.594 163.976C169.057 163.977 168.542 164.192 168.163 164.573C167.783 164.954 167.57 165.47 167.57 166.008C167.57 166.545 167.783 167.061 168.163 167.442C168.542 167.823 169.057 168.038 169.594 168.039H378.325C378.862 168.038 379.377 167.823 379.756 167.442C380.136 167.061 380.349 166.545 380.349 166.008C380.349 165.47 380.136 164.954 379.756 164.573C379.377 164.192 378.862 163.977 378.325 163.976H169.594Z" fill="#E4E4E4"/>
<path d="M169.594 176.167C169.057 176.168 168.542 176.382 168.163 176.763C167.783 177.144 167.57 177.66 167.57 178.198C167.57 178.736 167.783 179.252 168.163 179.633C168.542 180.014 169.057 180.228 169.594 180.229H323.835C324.372 180.228 324.887 180.014 325.266 179.633C325.645 179.252 325.859 178.736 325.859 178.198C325.859 177.66 325.645 177.144 325.266 176.763C324.887 176.382 324.372 176.168 323.835 176.167H169.594Z" fill="#E4E4E4"/>
<path d="M169.594 188.398C169.057 188.399 168.542 188.614 168.163 188.995C167.783 189.376 167.57 189.892 167.57 190.429C167.57 190.967 167.783 191.483 168.163 191.864C168.542 192.245 169.057 192.46 169.594 192.461H378.325C378.862 192.46 379.377 192.245 379.756 191.864C380.136 191.483 380.349 190.967 380.349 190.429C380.349 189.892 380.136 189.376 379.756 188.995C379.377 188.614 378.862 188.399 378.325 188.398H169.594Z" fill="#E4E4E4"/>
<path d="M169.594 200.588C169.057 200.589 168.542 200.804 168.163 201.185C167.783 201.565 167.57 202.081 167.57 202.619C167.57 203.157 167.783 203.673 168.163 204.054C168.542 204.435 169.057 204.65 169.594 204.651H323.835C324.372 204.65 324.887 204.435 325.266 204.054C325.645 203.673 325.859 203.157 325.859 202.619C325.859 202.081 325.645 201.565 325.266 201.185C324.887 200.804 324.372 200.589 323.835 200.588H169.594Z" fill="#E4E4E4"/>
<path d="M202.656 99.441C196.891 99.441 191.256 97.7293 186.462 94.5222C181.669 91.3151 177.933 86.7568 175.727 81.4235C173.52 76.0903 172.943 70.2218 174.068 64.56C175.193 58.8983 177.969 53.6976 182.045 49.6157C186.121 45.5338 191.315 42.754 196.969 41.6277C202.623 40.5015 208.484 41.0795 213.81 43.2886C219.136 45.4977 223.688 49.2387 226.891 54.0385C230.094 58.8383 231.804 64.4813 231.804 70.2539C231.795 77.9921 228.721 85.4108 223.257 90.8825C217.792 96.3542 210.384 99.4321 202.656 99.441Z" fill="#DA3232"/>
<path d="M114.177 209.799C114.127 208.734 113.844 207.692 113.348 206.748C112.852 205.804 112.156 204.981 111.308 204.336C110.46 203.69 109.481 203.239 108.44 203.014C107.399 202.788 106.321 202.794 105.282 203.031L95.6479 189.435L85.9688 193.283L99.8439 212.291C100.357 214.012 101.482 215.484 103.007 216.43C104.531 217.375 106.349 217.727 108.116 217.42C109.883 217.113 111.476 216.167 112.593 214.763C113.71 213.358 114.274 211.592 114.177 209.799H114.177Z" fill="#A0616A"/>
<path d="M95.3986 208.791L66.2461 170.921L77.1693 136.545C77.9697 127.903 83.3706 125.489 83.6005 125.391L83.951 125.24L93.4562 150.622L86.4771 169.258L103.607 198.107L95.3986 208.791Z" fill="#3F3D56"/>
<path d="M196.64 92.0499C195.583 92.1826 194.568 92.5457 193.667 93.1136C192.765 93.6816 191.999 94.4405 191.422 95.337C190.845 96.2336 190.472 97.2458 190.328 98.3026C190.184 99.3593 190.273 100.435 190.589 101.453L177.797 112.123L182.376 121.489L200.23 106.167C201.903 105.522 203.282 104.284 204.106 102.689C204.929 101.094 205.139 99.2518 204.697 97.5117C204.254 95.7716 203.19 94.2545 201.705 93.2479C200.22 92.2412 198.418 91.815 196.64 92.0499Z" fill="#A0616A"/>
<path d="M197.09 110.874L161.637 142.906L126.566 134.659C117.899 134.528 115.078 129.323 114.962 129.101L114.785 128.763L139.322 117.311L158.417 122.837L185.816 103.505L197.09 110.874Z" fill="#3F3D56"/>
<path d="M135.681 338.592L145.207 338.591L149.738 301.801L135.68 301.802L135.681 338.592Z" fill="#A0616A"/>
<path d="M163.574 347.447L133.637 347.449L133.637 335.867L155.175 335.866C157.402 335.866 159.539 336.752 161.114 338.329C162.689 339.906 163.574 342.045 163.574 344.275L163.574 347.447L163.574 347.447Z" fill="#2F2E41"/>
<path d="M97.6067 338.592L107.132 338.591L111.664 301.801L97.6055 301.802L97.6067 338.592Z" fill="#A0616A"/>
<path d="M125.504 347.447L95.5672 347.449L95.5666 335.867L117.105 335.866C118.208 335.866 119.3 336.083 120.319 336.506C121.338 336.928 122.264 337.548 123.044 338.329C123.823 339.11 124.442 340.037 124.864 341.057C125.286 342.077 125.504 343.171 125.504 344.275L125.504 347.447Z" fill="#2F2E41"/>
<path d="M94.2188 204.304L94.9956 258.764L95.7731 330.34L112.866 328.784L121.413 229.978L132.29 328.784H149.936L151.714 229.2L145.498 207.416L94.2188 204.304Z" fill="#2F2E41"/>
<path d="M127.675 211.617C109.076 211.619 91.9567 203.19 91.7257 203.074L91.5337 202.978L89.9729 165.472C89.5204 164.146 80.6084 137.994 79.099 129.681C77.5697 121.259 99.7336 113.868 102.425 113.004L103.036 106.229L127.873 103.549L131.021 112.218L139.932 115.563C140.942 115.943 141.778 116.68 142.281 117.636C142.785 118.592 142.921 119.699 142.663 120.748L137.711 140.915L149.806 207.635L147.202 207.748C140.961 210.571 134.224 211.617 127.675 211.617Z" fill="#3F3D56"/>
<path d="M125.007 97.0633C133.673 92.3196 136.858 81.4393 132.121 72.7615C127.383 64.0837 116.518 60.8945 107.852 65.6383C99.1855 70.382 96.0006 81.2623 100.738 89.9401C105.475 98.6179 116.341 101.807 125.007 97.0633Z" fill="#A0616A"/>
<path d="M101.946 98.6863C105.354 102.321 111.683 100.37 112.127 95.4038C112.162 95.0183 112.159 94.6302 112.12 94.2451C111.89 92.0453 110.621 90.0482 110.925 87.7255C110.994 87.1474 111.209 86.5965 111.55 86.1249C114.266 82.4834 120.641 87.7537 123.204 84.4571C124.776 82.4357 122.928 79.2531 124.134 76.9938C125.726 74.012 130.441 75.4829 133.397 73.8499C136.687 72.033 136.49 66.9789 134.325 63.9048C131.684 60.1558 127.054 58.1553 122.481 57.867C117.908 57.5787 113.367 58.8165 109.098 60.4824C104.248 62.3751 99.438 64.991 96.4532 69.2617C92.8233 74.4553 92.4739 81.4376 94.2893 87.5106C95.3937 91.2049 99.1626 95.7177 101.946 98.6863Z" fill="#2F2E41"/>
<path d="M227.734 347.909H1.09485C0.937089 347.909 0.785776 347.846 0.674219 347.734C0.562662 347.622 0.5 347.471 0.5 347.313C0.5 347.155 0.562662 347.003 0.674219 346.892C0.785776 346.78 0.937089 346.717 1.09485 346.717H227.734C227.892 346.717 228.044 346.78 228.155 346.892C228.267 347.003 228.329 347.155 228.329 347.313C228.329 347.471 228.267 347.622 228.155 347.734C228.044 347.846 227.892 347.909 227.734 347.909Z" fill="#CACACA"/>
<path d="M200.973 81.278C200.447 81.2786 199.941 81.0795 199.556 80.7208L189.945 71.7816C189.541 71.4052 189.303 70.8835 189.283 70.3314C189.263 69.7792 189.462 69.2416 189.838 68.8368C190.213 68.4319 190.734 68.1929 191.285 68.1722C191.837 68.1515 192.374 68.3509 192.778 68.7265L200.919 76.2984L217.026 60.1704C217.219 59.9756 217.449 59.8209 217.702 59.7151C217.955 59.6094 218.226 59.5547 218.5 59.5542C218.774 59.5537 219.046 59.6074 219.299 59.7122C219.552 59.817 219.782 59.9709 219.976 60.165C220.17 60.3591 220.324 60.5896 220.428 60.8432C220.533 61.0969 220.586 61.3688 220.586 61.6432C220.585 61.9177 220.531 62.1893 220.425 62.4426C220.319 62.6958 220.165 62.9257 219.97 63.119L202.445 80.6675C202.252 80.8613 202.022 81.015 201.77 81.1198C201.517 81.2246 201.246 81.2783 200.973 81.278Z" fill="white"/>
</g>
<defs>
<clipPath id="clip0_688_2615">
<rect width="405" height="348" fill="white" transform="translate(0.5)"/>
</clipPath>
</defs>
</svg>
