<svg width="24" height="24" viewBox="0 0 24 24" fill="none" xmlns="http://www.w3.org/2000/svg">
<path d="M12.2043 0.916016C5.80673 0.916016 0.620499 6.01113 0.620499 12.2963C0.620499 18.5815 5.80673 23.6766 12.2043 23.6766C18.6019 23.6766 23.7881 18.5815 23.7881 12.2963C23.7881 6.01113 18.6019 0.916016 12.2043 0.916016ZM16.8044 15.6873C17.1214 15.999 17.1214 16.5042 16.8044 16.8154C16.4869 17.127 15.9729 17.127 15.6555 16.8154L12.21 13.4304L8.76419 16.8154C8.44697 17.127 7.933 17.127 7.61552 16.8154C7.29854 16.5042 7.29854 15.999 7.61552 15.6873L11.0615 12.3014L7.61552 8.91642C7.29854 8.60524 7.29854 8.09958 7.61552 7.78796C7.93297 7.47678 8.44697 7.47678 8.76419 7.78796L12.21 11.1734L15.6555 7.78796C15.973 7.47678 16.487 7.47678 16.8044 7.78796C17.1214 8.09961 17.1214 8.60526 16.8044 8.91642L13.3584 12.3014L16.8044 15.6873Z" fill="#EC2426"/>
</svg>
