<svg width="112" height="81" viewBox="0 0 112 81" fill="none" xmlns="http://www.w3.org/2000/svg">
<path d="M55.5847 0.00126187C46.9351 0.00126187 38.239 3.21847 31.6442 9.64974C26.7396 14.4327 23.7666 20.3651 22.5056 26.552C9.70805 28.9728 0 39.8723 0 53.0279C0 67.9543 12.4855 80.1309 27.7921 80.1309H87.0015C100.327 80.1309 111.169 69.5586 111.169 56.5631C111.169 44.2984 101.48 34.3147 89.1916 33.2163C89.2481 24.6858 86.1412 16.138 79.4866 9.64848C72.8987 3.22226 64.2346 0 55.5849 0L55.5847 0.00126187ZM55.5847 7.07202C62.3977 7.07202 69.1442 9.542 74.3524 14.6211C80.3706 20.4901 82.9168 28.4631 81.9806 36.0888H81.9797C81.8499 37.0941 82.1685 38.1051 82.8546 38.8654C83.5407 39.6257 84.5286 40.063 85.567 40.0654H87.0015C96.436 40.0654 103.918 47.3622 103.918 56.5625C103.918 65.763 96.4358 73.0595 87.0015 73.0595H27.7922C16.4041 73.0595 7.25038 64.1319 7.25038 53.0271C7.25038 42.5394 15.4288 33.9959 25.9041 33.0677V33.0685C26.7259 32.9904 27.4955 32.6419 28.0854 32.0789C28.6763 31.5166 29.0522 30.7744 29.1517 29.9754C29.8184 24.372 32.3614 18.928 36.7798 14.6191C41.9829 9.54596 48.7715 7.07008 55.5844 7.07008L55.5847 7.07202ZM55.5847 28.283C54.376 28.283 53.7371 28.6619 53.1302 29.2036L39.8379 40.9875C38.303 42.3767 38.33 44.6313 39.6112 45.9959C40.8924 47.3604 43.3409 47.459 44.7469 46.217L51.9595 39.8097V62.4558C51.9595 64.408 53.582 65.9912 55.5848 65.9912C57.5875 65.9912 59.21 64.4081 59.21 62.4558V39.8097L66.4226 46.217C67.8285 47.4598 70.203 47.2913 71.5583 45.9959C72.9862 44.6314 72.7249 42.2436 71.3316 40.9875L58.0393 29.2036C57.3211 28.5617 56.7935 28.2822 55.5848 28.2822L55.5847 28.283Z" fill="#BBBBBB"/>
</svg>
