<svg width="39" height="33" viewBox="0 0 39 33" fill="none" xmlns="http://www.w3.org/2000/svg">
<path d="M35.5 0H17.5C15.8458 0 14.5 1.25595 14.5 2.79981V8.39946C14.5 8.9144 14.9483 9.3327 15.5 9.3327C16.0517 9.3327 16.4999 8.9144 16.4999 8.39946V2.79981C16.4999 2.28486 16.9482 1.86656 17.4999 1.86656H32.629L24.9454 4.9408C23.5742 5.48942 22.5 7.00868 22.5 8.3995V26.1317H17.5C16.9482 26.1317 16.5 25.7125 16.5 25.1984V19.5987C16.5 19.0848 16.0518 18.6654 15.5001 18.6654C14.9483 18.6654 14.5 19.0848 14.5 19.5987V25.1984C14.5 26.7424 15.8458 27.9983 17.5 27.9983H22.5001V30.7981C22.5001 31.6074 22.8595 32.2929 23.4903 32.6792C23.8379 32.8924 24.2423 33 24.6681 33C25.0138 33 25.3751 32.9309 25.7325 32.7886L36.0548 28.6582C37.4257 28.1113 38.5 26.5911 38.5 25.1984V2.79981C38.5 1.25595 37.1542 0 35.5 0ZM36.5001 25.1984C36.5001 25.8546 35.9123 26.684 35.2674 26.941L24.9454 31.0715C24.752 31.148 24.6249 31.1408 24.5899 31.1207C24.5548 31.1007 24.5 30.9914 24.5 30.7981V8.3995C24.5 7.74422 25.0879 6.91395 25.7325 6.65603L36.3985 2.38982C36.465 2.51272 36.5001 2.65229 36.5001 2.79985V25.1984ZM17.208 13.3384L11.208 7.7387C10.8184 7.37509 10.1837 7.37509 9.794 7.7387C9.40444 8.10247 9.40444 8.69486 9.794 9.05851L14.086 13.0641H1.49997C0.94825 13.0641 0.5 13.4825 0.5 13.9974C0.5 14.5124 0.94825 14.9307 1.49997 14.9307H14.086L9.794 18.9354C9.40444 19.2999 9.40444 19.8923 9.794 20.255C9.99028 20.4391 10.2462 20.5284 10.5021 20.5284C10.7579 20.5284 11.0138 20.4373 11.21 20.255L17.21 14.6563C17.5996 14.2926 17.5996 13.7003 17.21 13.3366L17.208 13.3384Z" fill="#999999"/>
</svg>
