<svg width="1069" height="80" viewBox="0 0 1069 80" fill="none" xmlns="http://www.w3.org/2000/svg">
<rect x="55.5" y="17" width="934" height="9" fill="#E1E1E1"/>
<circle cx="63" cy="21.5" r="7.5" fill="#D11329"/>
<circle cx="166" cy="21.5" r="6.75" fill="white" stroke="black" stroke-width="1.5"/>
<circle cx="269" cy="21.5" r="6.75" fill="white" stroke="black" stroke-width="1.5"/>
<circle cx="372" cy="21.5" r="6.75" fill="white" stroke="black" stroke-width="1.5"/>
<circle cx="475" cy="21.5" r="6.75" fill="white" stroke="black" stroke-width="1.5"/>
<circle cx="578" cy="21.5" r="6.75" fill="white" stroke="black" stroke-width="1.5"/>
<circle cx="681" cy="21.5" r="6.75" fill="white" stroke="black" stroke-width="1.5"/>
<circle cx="784" cy="21.5" r="6.75" fill="white" stroke="black" stroke-width="1.5"/>
<circle cx="887" cy="21.5" r="6.75" fill="white" stroke="black" stroke-width="1.5"/>
<circle cx="990" cy="21.5" r="6.75" fill="white" stroke="black" stroke-width="1.5"/>
<path d="M30.0308 56.72V57.712H44.5588V56.72H30.0308ZM30.4948 47.808V48.768H43.9028V47.808H30.4948ZM39.5668 55.68V59.968C39.5668 60.176 39.4868 60.24 39.2308 60.256C38.9588 60.272 38.0628 60.272 37.1028 60.24C37.2628 60.544 37.4228 60.976 37.4708 61.28C38.7668 61.28 39.5828 61.28 40.0948 61.12C40.5908 60.944 40.7188 60.624 40.7188 60V55.68H39.5668ZM36.6708 46.592V55.168H37.8548V46.592H36.6708ZM32.5908 58.384C33.5508 58.976 34.6708 59.856 35.2148 60.496L36.0948 59.696C35.5348 59.072 34.3508 58.224 33.4068 57.68L32.5908 58.384ZM32.8628 52.24H41.7588V53.232H32.8628V52.24ZM32.8628 50.48H41.7588V51.456H32.8628V50.48ZM31.7268 49.68V54.048H42.9268V49.68H31.7268ZM39.6628 54.384C40.9268 54.816 42.4468 55.648 43.2308 56.288L43.9508 55.6C43.1508 55.008 41.6308 54.208 40.3508 53.776L39.6628 54.384ZM30.6708 54.976L30.7188 55.92C33.7428 55.872 38.2868 55.776 42.5588 55.664L42.6228 54.848C38.2388 54.928 33.5828 54.976 30.6708 54.976ZM54.0308 46.576V48.416H55.2308V46.576H54.0308ZM53.9988 54.992V61.28H55.2148V54.992H53.9988ZM47.9348 47.76V50.08H49.0548V48.784H60.2868V50.08H61.4388V47.76H47.9348ZM47.7428 50.464V51.456H61.6148V50.464H47.7428ZM47.4868 56.32V57.36H61.8388V56.32H47.4868ZM53.1988 48.976C52.2388 50.336 50.8468 52.128 49.8388 53.248L50.9588 53.616C51.9188 52.48 53.2948 50.736 54.3348 49.312L53.1988 48.976ZM50.7668 53.136C53.9028 53.744 58.0148 54.88 60.1108 55.728L60.8308 54.848C58.5748 53.984 54.4948 52.944 51.4548 52.384L50.7668 53.136ZM53.5668 56.864C52.2548 58.288 49.5988 59.568 47.1828 60.096C47.4388 60.32 47.7748 60.784 47.9508 61.072C50.3828 60.416 53.0228 58.96 54.4628 57.264L53.5668 56.864ZM55.6948 56.832L54.8148 57.248C56.2868 58.976 58.9908 60.432 61.4228 61.088C61.5988 60.784 61.9348 60.336 62.2068 60.08C59.7588 59.552 57.0548 58.288 55.6948 56.832ZM57.4228 51.024C56.5108 53.184 54.4308 54.272 48.1748 54.656C48.3348 54.896 48.5268 55.344 48.5588 55.616C55.1188 55.152 57.5988 53.856 58.7028 51.024H57.4228ZM66.1588 47.216V48.176H77.8548V47.216H66.1588ZM65.0388 54.304V55.28H79.0228V54.304H65.0388ZM67.1028 50.864V51.68H70.5588V50.864H67.1028ZM66.7668 52.544V53.36H70.5588V52.544H66.7668ZM73.3748 52.544V53.36H77.2948V52.544H73.3748ZM73.3748 50.864V51.68H76.9108V50.864H73.3748ZM71.3748 47.584V53.776H72.5428V47.584H71.3748ZM69.7908 57.056V61.168H70.9108V57.056H69.7908ZM73.3428 57.056V61.168H74.4468V57.056H73.3428ZM65.2308 49.104V52.176H66.3188V49.984H77.6788V52.176H78.8148V49.104H65.2308ZM66.2868 56.432V61.264H67.4228V57.424H77.2628V56.432H66.2868ZM76.9588 56.432V60.08C76.9588 60.224 76.9108 60.272 76.7348 60.288C76.5588 60.304 76.0148 60.304 75.3748 60.288C75.5188 60.576 75.6948 60.992 75.7428 61.28C76.6228 61.28 77.2148 61.296 77.6148 61.104C78.0308 60.928 78.1108 60.64 78.1108 60.096V56.432H76.9588ZM71.3908 54.672C71.2788 55.328 70.9908 56.288 70.7508 56.944L71.8068 57.056C72.0788 56.464 72.4148 55.584 72.7028 54.72L71.3908 54.672ZM82.3988 49.248V50.416H96.3988V49.248H82.3988ZM89.8548 50.288L88.9108 50.576C90.2228 54.784 92.5748 58.448 95.9828 60.112C96.1748 59.76 96.5748 59.296 96.8628 59.056C93.5188 57.6 91.0548 54.128 89.8548 50.288ZM94.6548 51.072C93.7908 52.256 92.3028 53.808 91.2148 54.72L92.0628 55.376C93.1828 54.464 94.6388 53.04 95.6948 51.824L94.6548 51.072ZM91.4548 47.376C92.4788 47.92 93.7588 48.72 94.3828 49.28L95.1508 48.416C94.4788 47.888 93.1668 47.136 92.1908 46.624L91.4548 47.376ZM83.2628 51.984C84.2548 52.864 85.3588 54.144 85.8388 54.976L86.8148 54.288C86.3188 53.44 85.1668 52.224 84.1908 51.376L83.2628 51.984ZM88.7188 46.608V59.664C88.7188 59.968 88.6068 60.048 88.3188 60.064C87.9988 60.08 86.9588 60.08 85.8388 60.048C86.0308 60.416 86.2228 60.976 86.2868 61.312C87.6948 61.312 88.6548 61.296 89.1988 61.072C89.7268 60.88 89.9508 60.512 89.9508 59.664V46.608H88.7188ZM81.9668 58.656L82.7028 59.728C84.1268 58.928 86.0148 57.808 87.7428 56.736L87.3588 55.664C85.4068 56.8 83.3108 57.968 81.9668 58.656Z" fill="black"/>
<path d="M146.242 48.176V49.184H151.922V48.176H146.242ZM146.578 50.576V51.568H151.554V50.576H146.578ZM151.906 50.208V51.296H156.418V50.208H151.906ZM148.546 46.576V51.28H149.602V46.576H148.546ZM147.746 53.328H150.386V55.152H147.746V53.328ZM146.738 52.416V56.032H151.426V52.416H146.738ZM146.946 56.672C147.25 57.504 147.522 58.592 147.586 59.264L148.61 58.976C148.53 58.336 148.21 57.264 147.89 56.432L146.946 56.672ZM151.97 52.992C152.402 54.272 152.786 55.952 152.898 56.976L153.858 56.64C153.762 55.664 153.346 54 152.882 52.736L151.97 52.992ZM150.226 56.336C150.034 57.2 149.65 58.48 149.314 59.264L150.258 59.536C150.594 58.784 150.978 57.632 151.33 56.624L150.226 56.336ZM145.89 59.888L146.178 60.944C147.81 60.672 150.066 60.32 152.21 59.952L152.146 58.96C149.826 59.312 147.442 59.68 145.89 59.888ZM154.322 46.608V59.872C154.322 60.096 154.242 60.16 154.034 60.176C153.826 60.192 153.154 60.192 152.434 60.16C152.594 60.48 152.77 61.008 152.802 61.296C153.81 61.296 154.466 61.264 154.882 61.072C155.282 60.88 155.426 60.544 155.426 59.872V46.608H154.322ZM141.874 50.032V51.152H146.29V50.032H141.874ZM143.762 46.56V61.264H144.834V46.56H143.762ZM143.746 50.704C143.394 52.976 142.482 55.808 141.554 57.248C141.746 57.488 142.018 57.936 142.13 58.224C143.122 56.608 144.018 53.424 144.434 50.928L143.746 50.704ZM144.754 52.016L144.29 52.464C144.626 53.088 145.554 55.024 145.842 55.824L146.45 54.928C146.194 54.464 145.042 52.448 144.754 52.016ZM164.786 51.312V52.496H173.714V51.312H164.786ZM170.258 47.552C171.074 48.432 171.986 49.648 172.37 50.448L173.378 49.904C172.962 49.12 172.05 47.936 171.218 47.072L170.258 47.552ZM160.274 51.2V52.288H163.57V51.2H160.274ZM159.138 54.576V55.664H163.442V54.576H159.138ZM163.106 46.56V61.264H164.242V46.56H163.106ZM159.762 47.248V52.288H160.882V47.248H159.762ZM160.386 54.96V56.128C160.386 57.264 160.194 59.088 159.026 60.368C159.298 60.48 159.73 60.752 159.954 60.944C161.234 59.552 161.49 57.472 161.49 56.16V54.96H160.386ZM168.29 46.576V50.96C168.29 54.096 167.938 57.728 164.21 60.4C164.466 60.608 164.866 61.04 165.026 61.312C169.042 58.4 169.442 54.464 169.442 50.944V46.576H168.29ZM169.682 51.68L168.562 51.76C168.818 54.112 169.362 59.008 173.026 61.2C173.218 60.896 173.586 60.496 173.922 60.256C170.386 58.256 169.842 53.824 169.682 51.68ZM181.57 49.712H185.906V50.768H181.57V49.712ZM180.578 48.992V51.488H186.946V48.992H180.578ZM181.01 54.416H186.466V57.984H181.01V54.416ZM180.05 53.664V58.752H187.474V53.664H180.05ZM182.786 55.728H184.658V56.672H182.786V55.728ZM182.034 55.104V57.312H185.442V55.104H182.034ZM178.962 52.224V52.976H188.61V52.224H178.962ZM183.186 51.008V52.56H184.242V51.008H183.186ZM177.09 47.216V61.264H178.226V48.24H189.314V61.264H190.498V47.216H177.09ZM177.794 59.616V60.64H189.938V59.616H177.794Z" fill="black"/>
<path d="M258.84 46.704V50.448H259.976V46.704H258.84ZM262.968 46.704V50.448H264.12V46.704H262.968ZM261.896 53.584V61.2H262.888V53.584H261.896ZM256.248 48.064V49.12H266.632V48.064H256.248ZM259.208 55.552V56.416H265.576V55.552H259.208ZM259.208 57.792V58.64H265.576V57.792H259.208ZM257.048 51.008V52.064H266.696V51.008H257.048ZM256.52 51.008V54.448C256.52 56.256 256.408 58.752 255.256 60.544C255.512 60.688 255.976 61.072 256.152 61.28C257.416 59.344 257.64 56.464 257.64 54.464V51.008H256.52ZM258.6 53.248V61.28H259.64V54.16H265.736V53.248H258.6ZM265.24 53.248V60.112C265.24 60.288 265.192 60.336 265 60.352C264.824 60.368 264.264 60.368 263.576 60.352C263.72 60.624 263.832 61.024 263.88 61.296C264.824 61.296 265.432 61.28 265.816 61.12C266.2 60.944 266.296 60.656 266.296 60.112V53.248H265.24ZM255.032 46.656C254.264 49.12 253 51.584 251.592 53.184C251.8 53.488 252.12 54.128 252.232 54.416C253.816 52.544 255.24 49.728 256.152 46.96L255.032 46.656ZM253.752 50.576V61.28H254.888V49.504L254.856 49.472L253.752 50.576ZM270.312 47.152V48.112H274.52V47.152H270.312ZM270.152 51.472V52.432H274.664V51.472H270.152ZM270.152 53.616V54.576H274.664V53.616H270.152ZM269.32 49.264V50.272H275.512V49.264H269.32ZM275.736 49.728V50.864H283.736V49.728H275.736ZM275.272 59.648V60.784H284.04V59.648H275.272ZM276.008 54.448V55.568H283.496V54.448H276.008ZM270.664 55.76V56.704H273.656V59.312H270.664V60.256H274.792V55.76H270.664ZM270.056 55.76V61.04H271.16V55.76H270.056ZM279.048 46.608V50.272H280.248V46.608H279.048ZM279.048 50.112V60.24H280.248V50.112H279.048Z" fill="black"/>
<path d="M340.01 49.76V50.944H352.73V49.76H340.01ZM340.746 54.464V55.632H352.058V54.464H340.746ZM339.274 59.568V60.752H353.53V59.568H339.274ZM345.722 50.704V60.176H347.018V50.704H345.722ZM344.346 47.296C345.402 48.08 346.666 49.216 347.242 49.968L348.282 49.216C347.658 48.448 346.362 47.36 345.322 46.624L344.346 47.296ZM361.306 54.752V55.728H371.018V54.752H361.306ZM362.57 57.28C363.402 57.792 364.458 58.56 364.97 59.072L365.642 58.24C365.114 57.744 364.042 57.024 363.21 56.544L362.57 57.28ZM367.754 53.808C368.346 54.144 369.066 54.672 369.418 55.024L370.042 54.4C369.674 54.032 368.938 53.552 368.346 53.232L367.754 53.808ZM362.49 55.2C362.362 57.296 361.978 59.344 360.394 60.464C360.65 60.64 360.97 61.008 361.13 61.248C362.922 59.936 363.402 57.68 363.578 55.2H362.49ZM365.37 46.576C365.402 54.752 366.41 61.296 369.626 61.312C370.698 61.312 371.05 60.784 371.258 58.976C371.002 58.88 370.634 58.672 370.41 58.448C370.33 59.904 370.17 60.272 369.706 60.272C367.53 60.272 366.362 54.544 366.442 46.576H365.37ZM368.954 55.984C368.058 57.968 366.234 59.584 363.834 60.512C364.058 60.704 364.362 61.072 364.506 61.28C366.97 60.256 368.938 58.576 369.978 56.368L368.954 55.984ZM366.522 49.36C367.21 49.888 368.01 50.656 368.378 51.184L368.89 50.432C368.522 49.92 367.722 49.184 367.018 48.704L366.522 49.36ZM369.514 51.296C369.93 52.048 370.33 53.056 370.474 53.68L371.258 53.312C371.13 52.704 370.698 51.744 370.25 51.008L369.514 51.296ZM366.73 52.416L366.906 53.344C367.962 53.248 369.178 53.136 370.458 53.008V52.176C369.05 52.272 367.722 52.352 366.73 52.416ZM368.378 46.72C368.106 47.504 367.578 48.656 367.178 49.36L367.866 49.68C368.314 49.024 368.858 47.984 369.306 47.088L368.378 46.72ZM369.69 48.32C369.082 49.616 367.994 51.44 367.146 52.544L367.818 52.928C368.682 51.84 369.77 50.128 370.586 48.752L369.69 48.32ZM361.098 49.36C361.786 49.888 362.586 50.656 362.954 51.184L363.466 50.432C363.114 49.92 362.298 49.184 361.61 48.704L361.098 49.36ZM363.882 51.392C364.266 52.16 364.618 53.152 364.73 53.776L365.514 53.44C365.418 52.832 365.034 51.856 364.618 51.12L363.882 51.392ZM361.162 52.592L361.338 53.536C362.394 53.44 363.626 53.328 364.906 53.2V52.336C363.482 52.448 362.17 52.544 361.162 52.592ZM362.97 46.72C362.682 47.504 362.17 48.672 361.77 49.392L362.458 49.696C362.89 49.04 363.434 47.984 363.898 47.104L362.97 46.72ZM364.282 48.32C363.642 49.664 362.506 51.552 361.61 52.688L362.298 53.056C363.21 51.952 364.33 50.176 365.162 48.752L364.282 48.32ZM356.554 50.032V51.152H361.402V50.032H356.554ZM358.586 46.56V61.264H359.674V46.56H358.586ZM358.538 50.704C358.154 52.976 357.194 55.776 356.218 57.216C356.41 57.472 356.682 57.92 356.81 58.208C357.866 56.608 358.81 53.456 359.258 50.928L358.538 50.704ZM359.594 51.76L359.098 52.224C359.482 52.848 360.49 54.736 360.81 55.536L361.418 54.656C361.162 54.192 359.914 52.192 359.594 51.76ZM376.922 52.88H373.818V54H375.786V58.544H376.922V52.88ZM376.922 58.064H375.898C375.162 58.768 374.314 59.488 373.626 60.016L374.25 61.152C375.018 60.432 375.738 59.744 376.426 59.056C377.434 60.32 378.89 60.896 381.018 60.976C382.842 61.04 386.33 61.008 388.154 60.928C388.202 60.592 388.394 60.048 388.538 59.792C386.57 59.92 382.81 59.968 381.002 59.888C379.098 59.808 377.674 59.264 376.922 58.064ZM373.898 47.552C374.826 48.352 375.866 49.504 376.282 50.304L377.29 49.616C376.842 48.816 375.77 47.712 374.826 46.944L373.898 47.552ZM378.106 53.328V54.256H387.818V53.328H378.106ZM377.594 55.792V56.736H388.314V55.792H377.594ZM380.474 52.176V56.256H381.626V52.176H380.474ZM384.25 52.176V56.256H385.386V52.176H384.25ZM378.506 49.072V49.92H382.378V47.2H377.898V48.032H381.322V49.072H378.506ZM378.17 49.072V50.752C378.17 51.712 378.49 51.952 379.674 51.952C379.914 51.952 381.434 51.952 381.69 51.952C382.506 51.952 382.81 51.68 382.922 50.64C382.634 50.592 382.234 50.464 382.042 50.304C381.994 51.008 381.914 51.104 381.53 51.104C381.226 51.104 380.01 51.104 379.786 51.104C379.274 51.104 379.194 51.04 379.194 50.736V49.072H378.17ZM383.786 49.072V49.92H387.594V47.2H383.146V48.032H386.554V49.072H383.786ZM383.434 49.072V50.736C383.434 51.712 383.77 51.952 384.986 51.952C385.242 51.952 386.874 51.952 387.13 51.952C387.994 51.952 388.298 51.68 388.41 50.592C388.122 50.528 387.722 50.4 387.514 50.256C387.466 51.008 387.386 51.104 386.986 51.104C386.666 51.104 385.354 51.104 385.098 51.104C384.554 51.104 384.458 51.04 384.458 50.736V49.072H383.434ZM383.962 57.456C385.066 58.032 386.25 58.8 386.89 59.392L388.074 58.864C387.306 58.272 385.994 57.488 384.826 56.928L383.962 57.456ZM381.034 56.896C380.314 57.552 379.114 58.16 378.026 58.592C378.282 58.752 378.73 59.136 378.906 59.344C379.978 58.832 381.274 58.048 382.09 57.264L381.034 56.896ZM402.714 48.08H404.346V49.776H402.714V48.08ZM400.154 48.08H401.754V49.776H400.154V48.08ZM397.674 48.08H399.194V49.776H397.674V48.08ZM396.682 47.216V50.64H405.354V47.216H396.682ZM396.858 51.632V52.544H405.034V51.632H396.858ZM396.058 53.68V54.64H405.834V53.68H396.058ZM396.218 56.16V57.104H405.61V56.16H396.218ZM396.538 58.256V59.184H405.258V58.256H396.538ZM400.314 50.416V54.064H401.466V50.416H400.314ZM400.314 56.576V61.408H401.466V56.576H400.314ZM398.058 54.784C398.314 55.264 398.554 55.92 398.65 56.32L399.69 56.048C399.594 55.632 399.306 55.008 399.05 54.56L398.058 54.784ZM402.842 54.4C402.682 54.864 402.362 55.584 402.106 56.064L403.018 56.32C403.29 55.904 403.642 55.296 403.962 54.704L402.842 54.4ZM390.89 54.864L391.21 56.032C392.57 55.6 394.33 55.024 395.994 54.448L395.834 53.344C394.01 53.936 392.138 54.512 390.89 54.864ZM391.114 49.792V50.912H395.978V49.792H391.114ZM393.13 46.576V59.888C393.13 60.128 393.034 60.176 392.842 60.176C392.65 60.192 392.042 60.192 391.338 60.176C391.498 60.512 391.642 61.008 391.69 61.296C392.698 61.296 393.322 61.264 393.69 61.072C394.09 60.88 394.25 60.56 394.25 59.888V46.576H393.13Z" fill="black"/>
<path d="M468.98 52.304V54.352H470.02V52.304H468.98ZM470.884 48.88C470.708 49.568 470.324 50.592 470.036 51.232L470.772 51.504C471.092 50.912 471.492 49.984 471.86 49.2L470.884 48.88ZM467.316 49.264C467.636 49.952 467.94 50.896 468.02 51.488L468.852 51.184C468.756 50.608 468.452 49.68 468.084 48.992L467.316 49.264ZM465.428 47.328V61.312H466.516V48.4H473.092V47.328H465.428ZM472.644 47.328V59.936C472.644 60.16 472.58 60.224 472.356 60.24C472.148 60.24 471.428 60.256 470.708 60.224C470.852 60.528 471.012 61.008 471.044 61.296C472.084 61.296 472.772 61.264 473.188 61.104C473.62 60.912 473.748 60.592 473.748 59.936V47.328H472.644ZM467.124 51.456V52.4H472.02V51.456H467.124ZM466.996 54.08V55.024H472.116V54.08H466.996ZM467.668 54.608V57.28C467.668 58.432 467.924 58.816 469.06 58.816C469.268 58.816 470.644 58.816 470.932 58.816C471.316 58.816 471.684 58.816 471.892 58.736C471.86 58.496 471.828 58.048 471.796 57.776C471.588 57.824 471.156 57.84 470.916 57.84C470.644 57.84 469.348 57.84 469.06 57.84C468.756 57.84 468.708 57.712 468.708 57.296V54.608H467.668ZM461.956 46.576C461.54 47.632 460.788 49.2 460.212 50.128L461.028 50.48C461.652 49.6 462.404 48.16 463.012 46.976L461.956 46.576ZM463.748 48.4C462.868 50.08 461.364 52.464 460.164 53.888L460.9 54.304C462.1 52.912 463.652 50.64 464.756 48.864L463.748 48.4ZM459.396 49.904C460.244 50.72 461.204 51.856 461.604 52.624L462.292 51.728C461.876 50.992 460.9 49.92 460.036 49.136L459.396 49.904ZM463.124 52.064C463.764 53.12 464.388 54.544 464.596 55.44L465.54 55.008C465.316 54.128 464.66 52.752 463.988 51.696L463.124 52.064ZM459.268 53.648L459.396 54.72C460.852 54.624 462.772 54.512 464.676 54.384V53.376C462.66 53.488 460.66 53.584 459.268 53.648ZM463.54 55.936C463.924 56.864 464.26 58.08 464.356 58.864L465.284 58.576C465.172 57.792 464.836 56.592 464.42 55.664L463.54 55.936ZM460.228 55.712C460.052 57.104 459.748 58.544 459.236 59.52C459.476 59.632 459.956 59.84 460.148 59.968C460.66 58.944 461.028 57.408 461.236 55.888L460.228 55.712ZM461.924 54.112V61.28H462.98V54.112H461.924ZM476.852 50.48V51.616H481.14V50.48H476.852ZM478.548 46.752V57.472H479.668V46.752H478.548ZM476.74 57.936L477.204 59.136C478.468 58.512 480.02 57.712 481.492 56.96L481.172 55.888C479.54 56.688 477.86 57.472 476.74 57.936ZM481.396 48.944V50.032H491.348V48.944H481.396ZM480.868 58.368L481.188 59.504C482.724 59.072 484.74 58.496 486.676 57.936L486.548 56.912C484.468 57.472 482.292 58.048 480.868 58.368ZM486.756 46.576C486.82 54.4 487.492 61.28 490.02 61.28C491.028 61.28 491.364 60.592 491.54 58.464C491.284 58.336 490.916 58.096 490.676 57.824C490.628 59.488 490.468 60.128 490.164 60.128C488.788 60.128 487.86 54.144 487.924 46.576H486.756ZM488.548 47.2C489.252 47.712 490.068 48.448 490.484 48.944L491.204 48.256C490.804 47.776 489.94 47.072 489.252 46.608L488.548 47.2ZM489.956 51.552C488.98 55.456 487.124 58.528 484.244 60.352C484.5 60.544 484.948 60.944 485.124 61.152C488.004 59.12 489.94 55.936 491.06 51.76L489.956 51.552ZM482.82 52.528H484.9V55.216H482.82V52.528ZM481.876 51.552V56.208H485.876V51.552H481.876Z" fill="black"/>
<path d="M654.42 47.536V48.688H662.276V47.536H654.42ZM659.092 52.304V59.728C659.092 60 658.996 60.064 658.676 60.08C658.388 60.096 657.316 60.096 656.18 60.064C656.356 60.416 656.516 60.912 656.564 61.248C658.132 61.248 659.044 61.232 659.588 61.056C660.132 60.864 660.308 60.496 660.308 59.744V52.304H659.092ZM653.716 51.952V53.088H662.74V51.952H653.716ZM650.516 53.184V61.328H651.716V52.208L651.572 52.144L650.516 53.184ZM652.372 49.984C651.268 51.824 649.508 53.68 647.844 54.864C648.1 55.088 648.516 55.616 648.692 55.856C650.372 54.512 652.26 52.448 653.508 50.416L652.372 49.984ZM651.716 46.56C650.9 47.712 649.348 49.152 648.02 50.048C648.228 50.288 648.548 50.752 648.724 51.008C650.148 49.984 651.796 48.432 652.868 47.024L651.716 46.56ZM675.3 46.56V52.24H676.468V46.56H675.3ZM672.596 51.6V61.264H673.748V52.672H678.868V51.6H672.596ZM678.228 51.6V59.872C678.228 60.08 678.164 60.144 677.94 60.144C677.716 60.16 676.996 60.16 676.228 60.128C676.388 60.448 676.564 60.96 676.612 61.28C677.684 61.28 678.372 61.264 678.804 61.072C679.252 60.88 679.38 60.512 679.38 59.888V51.6H678.228ZM673.156 54.32V55.344H678.836V54.32H673.156ZM673.156 57.056V58.08H678.836V57.056H673.156ZM673.38 47.44C672.996 48.72 672.356 50 671.572 50.848C671.844 51.008 672.324 51.312 672.548 51.488C673.316 50.56 674.052 49.12 674.5 47.696L673.38 47.44ZM677.156 47.888C678.004 48.96 678.916 50.432 679.252 51.376L680.276 50.816C679.908 49.888 678.964 48.448 678.116 47.408L677.156 47.888ZM666.5 50.528V51.552H671.14V50.528H666.5ZM665.668 53.264V54.32H671.636V53.264H665.668ZM666.004 55.424C666.34 56.384 666.596 57.6 666.644 58.416L667.556 58.176C667.476 57.392 667.204 56.16 666.852 55.216L666.004 55.424ZM665.508 59.712L665.78 60.8C667.46 60.48 669.78 60.016 671.956 59.552L671.876 58.528C669.524 58.992 667.076 59.456 665.508 59.712ZM670.564 55.04C670.436 55.904 670.084 57.216 669.828 58.016L670.596 58.272C670.9 57.52 671.236 56.32 671.54 55.312L670.564 55.04ZM668.228 50.992V59.808L669.3 59.632V50.992H668.228ZM668.148 46.576C667.62 47.856 666.628 49.472 665.204 50.704C665.444 50.864 665.812 51.232 665.972 51.472C667.524 50.08 668.548 48.368 669.14 47.152V46.832H668.788V46.576H668.148ZM668.34 46.576V47.424H668.564C669.572 48.256 670.74 49.68 671.3 50.528L672.084 49.584C671.476 48.736 670.228 47.456 669.204 46.576H668.34ZM682.996 48.464V49.6H688.868V48.464H682.996ZM688.996 50.224V51.376H696.596V50.224H688.996ZM685.364 48.912V56.928H686.532V48.912H685.364ZM696.036 50.224V50.48C695.812 56.848 695.556 59.216 695.06 59.76C694.884 59.952 694.708 60 694.388 60C694.036 60 693.124 60 692.148 59.904C692.356 60.24 692.484 60.752 692.516 61.088C693.428 61.152 694.356 61.168 694.884 61.12C695.428 61.056 695.764 60.928 696.116 60.48C696.724 59.76 696.948 57.44 697.204 50.832C697.22 50.656 697.22 50.224 697.22 50.224H696.036ZM682.772 57.104L683.076 58.336C684.772 57.872 687.092 57.216 689.268 56.592L689.108 55.456C686.788 56.08 684.356 56.736 682.772 57.104ZM691.716 46.832C691.684 52.672 691.78 57.856 687.092 60.352C687.38 60.576 687.78 61.008 687.956 61.296C692.852 58.544 692.9 53.008 692.932 46.832H691.716ZM702.852 46.56C702.468 47.728 701.716 49.408 701.108 50.432L702.132 50.736C702.772 49.728 703.524 48.176 704.1 46.848L702.852 46.56ZM700.164 49.952L700.276 51.12C702.02 51.024 704.5 50.896 706.884 50.752L706.9 49.68C704.388 49.792 701.844 49.904 700.164 49.952ZM701.14 52.272V61.264H702.26V53.296H706.212V52.272H701.14ZM705.668 52.272V59.888C705.668 60.096 705.604 60.144 705.396 60.144C705.172 60.16 704.484 60.176 703.732 60.144C703.892 60.448 704.068 60.928 704.132 61.248C705.14 61.248 705.844 61.232 706.292 61.04C706.724 60.848 706.852 60.512 706.852 59.904V52.272H705.668ZM701.668 54.656V55.6H706.292V54.656H701.668ZM701.668 57.056V58.016H706.292V57.056H701.668ZM708.356 46.592V51.904C708.356 53.232 708.756 53.6 710.292 53.6C710.612 53.6 712.708 53.6 713.044 53.6C714.34 53.6 714.692 53.072 714.836 51.12C714.484 51.04 714.004 50.864 713.748 50.656C713.684 52.24 713.572 52.512 712.948 52.512C712.484 52.512 710.74 52.512 710.404 52.512C709.668 52.512 709.54 52.4 709.54 51.888V46.592H708.356ZM713.252 47.776C712.164 48.336 710.34 49.04 708.756 49.536C708.9 49.776 709.06 50.128 709.124 50.384C710.772 49.92 712.692 49.296 714.052 48.656L713.252 47.776ZM708.356 54.032V59.456C708.356 60.784 708.772 61.152 710.324 61.152C710.66 61.152 712.82 61.152 713.172 61.152C714.516 61.152 714.868 60.576 715.028 58.416C714.692 58.352 714.212 58.16 713.94 57.968C713.86 59.776 713.764 60.08 713.076 60.08C712.596 60.08 710.788 60.08 710.452 60.08C709.684 60.08 709.54 59.984 709.54 59.44V54.032H708.356ZM713.444 54.912C712.356 55.616 710.42 56.352 708.756 56.832C708.884 57.072 709.06 57.456 709.124 57.696C710.852 57.232 712.9 56.576 714.244 55.808L713.444 54.912ZM704.852 48.08C705.7 49.216 706.564 50.752 706.9 51.728L707.956 51.264C707.588 50.272 706.692 48.8 705.844 47.68L704.852 48.08Z" fill="black"/>
<path d="M541.284 47.44V48.528H549.924V47.44H541.284ZM549.348 47.44V59.68C549.348 59.968 549.236 60.064 548.932 60.08C548.628 60.096 547.572 60.096 546.452 60.064C546.628 60.4 546.82 60.96 546.884 61.28C548.356 61.28 549.284 61.264 549.828 61.072C550.356 60.864 550.548 60.464 550.548 59.68V47.44H549.348ZM541.092 50.128V51.2H548.212V50.128H541.092ZM541.732 52.784V59.12H542.852V52.784H541.732ZM542.372 52.784V53.824H546.132V56.96H542.372V58H547.252V52.784H542.372ZM539.988 46.624C539.108 49.056 537.62 51.456 536.068 53.008C536.276 53.28 536.612 53.92 536.724 54.192C538.436 52.4 540.068 49.696 541.108 46.976L539.988 46.624ZM538.308 50.752V61.264H539.476V49.6L539.46 49.584L538.308 50.752ZM555.348 47.152V48.272H559.06V47.152H555.348ZM555.348 50.896V52.016H559.092V50.896H555.348ZM561.588 52.64V53.76H567.396V52.64H561.588ZM555.316 54.736V55.872H559.06V54.736H555.316ZM554.852 47.152V52.912C554.852 55.264 554.772 58.48 553.668 60.736C553.956 60.848 554.436 61.12 554.66 61.312C555.796 58.944 555.956 55.408 555.956 52.912V47.152H554.852ZM558.388 47.152V59.84C558.388 60.064 558.308 60.128 558.084 60.144C557.892 60.16 557.22 60.16 556.468 60.144C556.628 60.448 556.772 60.992 556.82 61.28C557.908 61.296 558.548 61.264 558.964 61.072C559.364 60.864 559.508 60.496 559.508 59.856V47.152H558.388ZM566.564 47.2V50.288C566.564 50.48 566.5 50.544 566.244 50.544C565.988 50.56 565.14 50.56 564.18 50.544C564.324 50.832 564.5 51.232 564.564 51.568C565.78 51.568 566.58 51.568 567.076 51.392C567.588 51.216 567.716 50.896 567.716 50.304V47.2H566.564ZM567.076 52.64V52.864C566.388 56.368 564.404 59.104 562.132 60.304C562.372 60.512 562.692 60.928 562.836 61.2C565.332 59.712 567.38 56.944 568.18 52.848L567.476 52.608L567.284 52.64H567.076ZM563.38 53.328L562.42 53.584C563.428 56.992 565.284 59.888 567.876 61.296C568.052 61.024 568.388 60.608 568.66 60.384C566.148 59.168 564.292 56.432 563.38 53.328ZM560.916 47.2V61.28H562.052V48.32H566.884V47.2H560.916ZM573.524 48.24H576.484V50.72H573.524V48.24ZM572.42 47.264V51.696H577.636V47.264H572.42ZM580.5 48.24H583.476V50.72H580.5V48.24ZM579.396 47.264V51.696H584.628V47.264H579.396ZM571.332 52.912V53.984H585.684V52.912H571.332ZM573.22 59.696V60.72H577.108V59.696H573.22ZM579.796 59.696V60.72H583.716V59.696H579.796ZM580.516 53.2L579.428 53.632C580.708 55.36 583.028 56.752 585.38 57.424C585.556 57.12 585.876 56.688 586.148 56.448C583.876 55.92 581.604 54.672 580.516 53.2ZM572.66 56.096V61.328H573.732V57.12H576.628V61.264H577.732V56.096H572.66ZM579.236 56.096V61.328H580.308V57.12H583.22V61.264H584.34V56.096H579.236ZM577.716 51.248C576.644 53.712 574.132 55.44 570.916 56.528C571.156 56.736 571.524 57.184 571.668 57.44C575.012 56.256 577.604 54.384 578.884 51.632L577.716 51.248ZM588.676 48.464V49.6H594.548V48.464H588.676ZM594.676 50.224V51.376H602.276V50.224H594.676ZM591.044 48.912V56.928H592.212V48.912H591.044ZM601.716 50.224V50.48C601.492 56.848 601.236 59.216 600.74 59.76C600.564 59.952 600.388 60 600.068 60C599.716 60 598.804 60 597.828 59.904C598.036 60.24 598.164 60.752 598.196 61.088C599.108 61.152 600.036 61.168 600.564 61.12C601.108 61.056 601.444 60.928 601.796 60.48C602.404 59.76 602.628 57.44 602.884 50.832C602.9 50.656 602.9 50.224 602.9 50.224H601.716ZM588.452 57.104L588.756 58.336C590.452 57.872 592.772 57.216 594.948 56.592L594.788 55.456C592.468 56.08 590.036 56.736 588.452 57.104ZM597.396 46.832C597.364 52.672 597.46 57.856 592.772 60.352C593.06 60.576 593.46 61.008 593.636 61.296C598.532 58.544 598.58 53.008 598.612 46.832H597.396ZM608.532 46.56C608.148 47.728 607.396 49.408 606.788 50.432L607.812 50.736C608.452 49.728 609.204 48.176 609.78 46.848L608.532 46.56ZM605.844 49.952L605.956 51.12C607.7 51.024 610.18 50.896 612.564 50.752L612.58 49.68C610.068 49.792 607.524 49.904 605.844 49.952ZM606.82 52.272V61.264H607.94V53.296H611.892V52.272H606.82ZM611.348 52.272V59.888C611.348 60.096 611.284 60.144 611.076 60.144C610.852 60.16 610.164 60.176 609.412 60.144C609.572 60.448 609.748 60.928 609.812 61.248C610.82 61.248 611.524 61.232 611.972 61.04C612.404 60.848 612.532 60.512 612.532 59.904V52.272H611.348ZM607.348 54.656V55.6H611.972V54.656H607.348ZM607.348 57.056V58.016H611.972V57.056H607.348ZM614.036 46.592V51.904C614.036 53.232 614.436 53.6 615.972 53.6C616.292 53.6 618.388 53.6 618.724 53.6C620.02 53.6 620.372 53.072 620.516 51.12C620.164 51.04 619.684 50.864 619.428 50.656C619.364 52.24 619.252 52.512 618.628 52.512C618.164 52.512 616.42 52.512 616.084 52.512C615.348 52.512 615.22 52.4 615.22 51.888V46.592H614.036ZM618.932 47.776C617.844 48.336 616.02 49.04 614.436 49.536C614.58 49.776 614.74 50.128 614.804 50.384C616.452 49.92 618.372 49.296 619.732 48.656L618.932 47.776ZM614.036 54.032V59.456C614.036 60.784 614.452 61.152 616.004 61.152C616.34 61.152 618.5 61.152 618.852 61.152C620.196 61.152 620.548 60.576 620.708 58.416C620.372 58.352 619.892 58.16 619.62 57.968C619.54 59.776 619.444 60.08 618.756 60.08C618.276 60.08 616.468 60.08 616.132 60.08C615.364 60.08 615.22 59.984 615.22 59.44V54.032H614.036ZM619.124 54.912C618.036 55.616 616.1 56.352 614.436 56.832C614.564 57.072 614.74 57.456 614.804 57.696C616.532 57.232 618.58 56.576 619.924 55.808L619.124 54.912ZM610.532 48.08C611.38 49.216 612.244 50.752 612.58 51.728L613.636 51.264C613.268 50.272 612.372 48.8 611.524 47.68L610.532 48.08Z" fill="black"/>
<path d="M871.536 52.752V53.744H876.768V52.752H871.536ZM870.928 47.312V61.296H872.032V48.384H876.656V47.312H870.928ZM876.08 47.312V50.384C876.08 50.56 876.016 50.624 875.76 50.64C875.504 50.656 874.672 50.656 873.68 50.624C873.84 50.928 874 51.36 874.048 51.68C875.28 51.68 876.08 51.664 876.576 51.488C877.072 51.312 877.2 50.992 877.2 50.4V47.312H876.08ZM873.104 53.408L872.16 53.648C873.104 56.976 874.88 59.888 877.344 61.28C877.536 60.976 877.904 60.544 878.176 60.304C875.776 59.136 873.968 56.4 873.104 53.408ZM876.4 52.752V53.008C875.904 55.936 874.4 58.928 872 60.496C872.272 60.704 872.624 61.04 872.8 61.312C875.36 59.584 876.944 56.432 877.568 52.96L876.832 52.688L876.624 52.752H876.4ZM863.872 48.208V49.248H869.808V48.208H863.872ZM863.68 56.96V58H870.016V56.96H863.68ZM863.296 50.848V51.888H870.416V50.848H863.296ZM863.52 54.176V55.216H870.224V54.176H863.52ZM866.336 46.592V51.216H867.456V46.592H866.336ZM866.336 54.608V61.248H867.456V54.608H866.336ZM868.496 51.824C868.32 52.448 867.968 53.392 867.696 53.984L868.592 54.256C868.896 53.696 869.2 52.864 869.52 52.096L868.496 51.824ZM864.416 52.08C864.736 52.784 865.04 53.696 865.12 54.272L866.08 54C866 53.44 865.68 52.528 865.328 51.856L864.416 52.08ZM884.928 47.376V48.304H895.2V47.376H884.928ZM886.384 50.048H893.6V51.584H886.384V50.048ZM885.312 49.248V52.368H894.72V49.248H885.312ZM888.08 47.68V51.888H889.072V47.68H888.08ZM890.848 47.68V51.888H891.84V47.68H890.848ZM886.768 55.568H893.36V56.48H886.768V55.568ZM886.768 57.232H893.36V58.176H886.768V57.232ZM886.768 53.904H893.36V54.816H886.768V53.904ZM885.648 53.136V58.944H894.528V53.136H885.648ZM890.848 59.744C892.224 60.224 893.648 60.848 894.464 61.328L895.504 60.624C894.576 60.144 893.024 59.52 891.632 59.056L890.848 59.744ZM888.224 59.04C887.376 59.584 885.824 60.176 884.432 60.496C884.656 60.704 884.944 61.072 885.104 61.312C886.528 60.96 888.112 60.352 889.088 59.648L888.224 59.04ZM883.712 46.656C882.944 49.12 881.68 51.584 880.272 53.184C880.48 53.488 880.8 54.128 880.912 54.416C882.496 52.544 883.92 49.728 884.832 46.96L883.712 46.656ZM882.432 50.576V61.28H883.568V49.504L883.536 49.472L882.432 50.576ZM904.688 51.68V61.28H905.92V51.68H904.688ZM901.056 54.384H909.76V55.776H901.056V54.384ZM901.056 52.096H909.76V53.456H901.056V52.096ZM899.888 51.12V56.736H910.976V51.12H899.888ZM898.272 57.968V59.024H912.464V57.968H898.272ZM900.544 48H903.616V49.52H900.544V48ZM899.456 47.2V50.32H904.736V47.2H899.456ZM907.12 48H910.224V49.52H907.12V48ZM906.032 47.2V50.32H911.36V47.2H906.032Z" fill="black"/>
<path d="M760.902 52.304V54.352H761.942V52.304H760.902ZM762.806 48.88C762.63 49.568 762.246 50.592 761.958 51.232L762.694 51.504C763.014 50.912 763.414 49.984 763.782 49.2L762.806 48.88ZM759.238 49.264C759.558 49.952 759.862 50.896 759.942 51.488L760.774 51.184C760.678 50.608 760.374 49.68 760.006 48.992L759.238 49.264ZM757.35 47.328V61.312H758.438V48.4H765.014V47.328H757.35ZM764.566 47.328V59.936C764.566 60.16 764.502 60.224 764.278 60.24C764.07 60.24 763.35 60.256 762.63 60.224C762.774 60.528 762.934 61.008 762.966 61.296C764.006 61.296 764.694 61.264 765.11 61.104C765.542 60.912 765.67 60.592 765.67 59.936V47.328H764.566ZM759.046 51.456V52.4H763.942V51.456H759.046ZM758.918 54.08V55.024H764.038V54.08H758.918ZM759.59 54.608V57.28C759.59 58.432 759.846 58.816 760.982 58.816C761.19 58.816 762.566 58.816 762.854 58.816C763.238 58.816 763.606 58.816 763.814 58.736C763.782 58.496 763.75 58.048 763.718 57.776C763.51 57.824 763.078 57.84 762.838 57.84C762.566 57.84 761.27 57.84 760.982 57.84C760.678 57.84 760.63 57.712 760.63 57.296V54.608H759.59ZM753.878 46.576C753.462 47.632 752.71 49.2 752.134 50.128L752.95 50.48C753.574 49.6 754.326 48.16 754.934 46.976L753.878 46.576ZM755.67 48.4C754.79 50.08 753.286 52.464 752.086 53.888L752.822 54.304C754.022 52.912 755.574 50.64 756.678 48.864L755.67 48.4ZM751.318 49.904C752.166 50.72 753.126 51.856 753.526 52.624L754.214 51.728C753.798 50.992 752.822 49.92 751.958 49.136L751.318 49.904ZM755.046 52.064C755.686 53.12 756.31 54.544 756.518 55.44L757.462 55.008C757.238 54.128 756.582 52.752 755.91 51.696L755.046 52.064ZM751.19 53.648L751.318 54.72C752.774 54.624 754.694 54.512 756.598 54.384V53.376C754.582 53.488 752.582 53.584 751.19 53.648ZM755.462 55.936C755.846 56.864 756.182 58.08 756.278 58.864L757.206 58.576C757.094 57.792 756.758 56.592 756.342 55.664L755.462 55.936ZM752.15 55.712C751.974 57.104 751.67 58.544 751.158 59.52C751.398 59.632 751.878 59.84 752.07 59.968C752.582 58.944 752.95 57.408 753.158 55.888L752.15 55.712ZM753.846 54.112V61.28H754.902V54.112H753.846ZM769.014 49.744V50.88H775.19V49.744H769.014ZM771.558 46.768V50.32H772.694V46.768H771.558ZM778.87 49.888V51.024H783.462V49.888H778.87ZM776.118 59.376V60.512H782.166V59.376H776.118ZM778.262 46.56V54.72H779.478V46.56H778.262ZM775.558 54.224V61.264H776.726V55.344H781.558V61.2H782.774V54.224H775.558ZM768.71 58.272L768.966 59.472C770.726 59.072 773.158 58.496 775.43 57.952L775.302 56.848C772.886 57.408 770.358 57.952 768.71 58.272ZM769.622 51.712C769.99 53.488 770.278 55.808 770.262 57.312L771.318 57.136C771.286 55.584 771.014 53.312 770.598 51.536L769.622 51.712ZM773.35 51.36C773.19 53.232 772.806 55.92 772.438 57.504L773.43 57.728C773.814 56.16 774.246 53.584 774.534 51.584L773.35 51.36ZM786.278 48.464V49.6H792.15V48.464H786.278ZM792.278 50.224V51.376H799.878V50.224H792.278ZM788.646 48.912V56.928H789.814V48.912H788.646ZM799.318 50.224V50.48C799.094 56.848 798.838 59.216 798.342 59.76C798.166 59.952 797.99 60 797.67 60C797.318 60 796.406 60 795.43 59.904C795.638 60.24 795.766 60.752 795.798 61.088C796.71 61.152 797.638 61.168 798.166 61.12C798.71 61.056 799.046 60.928 799.398 60.48C800.006 59.76 800.23 57.44 800.486 50.832C800.502 50.656 800.502 50.224 800.502 50.224H799.318ZM786.054 57.104L786.358 58.336C788.054 57.872 790.374 57.216 792.55 56.592L792.39 55.456C790.07 56.08 787.638 56.736 786.054 57.104ZM794.998 46.832C794.966 52.672 795.062 57.856 790.374 60.352C790.662 60.576 791.062 61.008 791.238 61.296C796.134 58.544 796.182 53.008 796.214 46.832H794.998ZM806.134 46.56C805.75 47.728 804.998 49.408 804.39 50.432L805.414 50.736C806.054 49.728 806.806 48.176 807.382 46.848L806.134 46.56ZM803.446 49.952L803.558 51.12C805.302 51.024 807.782 50.896 810.166 50.752L810.182 49.68C807.67 49.792 805.126 49.904 803.446 49.952ZM804.422 52.272V61.264H805.542V53.296H809.494V52.272H804.422ZM808.95 52.272V59.888C808.95 60.096 808.886 60.144 808.678 60.144C808.454 60.16 807.766 60.176 807.014 60.144C807.174 60.448 807.35 60.928 807.414 61.248C808.422 61.248 809.126 61.232 809.574 61.04C810.006 60.848 810.134 60.512 810.134 59.904V52.272H808.95ZM804.95 54.656V55.6H809.574V54.656H804.95ZM804.95 57.056V58.016H809.574V57.056H804.95ZM811.638 46.592V51.904C811.638 53.232 812.038 53.6 813.574 53.6C813.894 53.6 815.99 53.6 816.326 53.6C817.622 53.6 817.974 53.072 818.118 51.12C817.766 51.04 817.286 50.864 817.03 50.656C816.966 52.24 816.854 52.512 816.23 52.512C815.766 52.512 814.022 52.512 813.686 52.512C812.95 52.512 812.822 52.4 812.822 51.888V46.592H811.638ZM816.534 47.776C815.446 48.336 813.622 49.04 812.038 49.536C812.182 49.776 812.342 50.128 812.406 50.384C814.054 49.92 815.974 49.296 817.334 48.656L816.534 47.776ZM811.638 54.032V59.456C811.638 60.784 812.054 61.152 813.606 61.152C813.942 61.152 816.102 61.152 816.454 61.152C817.798 61.152 818.15 60.576 818.31 58.416C817.974 58.352 817.494 58.16 817.222 57.968C817.142 59.776 817.046 60.08 816.358 60.08C815.878 60.08 814.07 60.08 813.734 60.08C812.966 60.08 812.822 59.984 812.822 59.44V54.032H811.638ZM816.726 54.912C815.638 55.616 813.702 56.352 812.038 56.832C812.166 57.072 812.342 57.456 812.406 57.696C814.134 57.232 816.182 56.576 817.526 55.808L816.726 54.912ZM808.134 48.08C808.982 49.216 809.846 50.752 810.182 51.728L811.238 51.264C810.87 50.272 809.974 48.8 809.126 47.68L808.134 48.08Z" fill="black"/>
<path d="M982.248 54.576C981.608 55.296 980.488 56.336 979.688 56.944L980.424 57.52C981.256 56.96 982.344 56.064 983.208 55.28L982.248 54.576ZM978.28 46.544C978.088 47.184 977.704 48.08 977.4 48.672L978.408 48.928C978.776 48.4 979.224 47.568 979.608 46.8L978.28 46.544ZM976.104 51.504H981.496V52.896H976.104V51.504ZM976.104 49.184H981.496V50.576H976.104V49.184ZM975 48.224V53.872H982.648V48.224H975ZM978.232 53.344V60C978.232 60.176 978.184 60.224 977.976 60.224C977.784 60.24 977.144 60.24 976.424 60.224C976.568 60.528 976.712 60.976 976.744 61.28C977.752 61.28 978.392 61.264 978.808 61.088C979.208 60.912 979.32 60.608 979.32 60V53.344H978.232ZM974.392 55.264V56.272H977.064V55.264H974.392ZM976.792 55.264V55.456C976.328 57.552 975.176 59.024 973.672 59.808C973.912 59.984 974.28 60.384 974.424 60.64C976.024 59.728 977.288 58.048 977.864 55.504L977.208 55.232L977 55.264H976.792ZM979.176 53.424L978.52 54.24C978.952 56.32 980.104 59.216 982.84 60.624C983 60.32 983.352 59.872 983.576 59.648C980.776 58.432 979.624 55.68 979.176 53.424ZM971.096 46.576C970.68 47.632 969.928 49.2 969.352 50.128L970.168 50.48C970.792 49.6 971.544 48.16 972.152 46.976L971.096 46.576ZM972.888 48.4C972.008 50.08 970.504 52.464 969.304 53.888L970.04 54.304C971.24 52.912 972.792 50.64 973.896 48.864L972.888 48.4ZM968.536 49.904C969.384 50.72 970.344 51.856 970.744 52.624L971.432 51.728C971.016 50.992 970.04 49.92 969.176 49.136L968.536 49.904ZM972.264 52.064C972.904 53.12 973.528 54.544 973.736 55.44L974.68 55.008C974.456 54.128 973.8 52.752 973.128 51.696L972.264 52.064ZM968.408 53.648L968.536 54.72C969.992 54.624 971.912 54.512 973.816 54.384V53.376C971.8 53.488 969.8 53.584 968.408 53.648ZM972.68 55.936C973.064 56.848 973.4 58.048 973.48 58.816L974.408 58.528C974.312 57.76 973.976 56.576 973.56 55.664L972.68 55.936ZM969.368 55.712C969.192 57.104 968.888 58.544 968.376 59.52C968.616 59.632 969.096 59.84 969.288 59.968C969.8 58.944 970.168 57.408 970.376 55.888L969.368 55.712ZM971.064 54.112V61.28H972.12V54.112H971.064ZM992.84 51.744V52.944H999.416V51.744H992.84ZM986.136 59.328V60.528H1000.5V59.328H986.136ZM992.152 46.8V59.968H993.416V46.8H992.152ZM1006.65 51.792V52.864H1014.73V51.792H1006.65ZM1006.36 59.568V60.64H1014.94V59.568H1006.36ZM1005.82 54.88V61.296H1006.98V55.968H1014.39V61.296H1015.61V54.88H1005.82ZM1010.63 47.792C1012.14 49.84 1014.95 52.096 1017.46 53.408C1017.67 53.056 1017.96 52.64 1018.26 52.352C1015.7 51.216 1012.9 48.992 1011.18 46.608H1009.96C1008.7 48.672 1006.02 51.12 1003.21 52.544C1003.48 52.8 1003.8 53.232 1003.96 53.504C1006.7 52.016 1009.32 49.744 1010.63 47.792ZM1028.22 53.44C1029.11 54.592 1030.04 56.176 1030.39 57.184L1031.45 56.624C1031.06 55.6 1030.1 54.064 1029.19 52.944L1028.22 53.44ZM1028.31 49.456V50.592H1034.39V49.456H1028.31ZM1033.91 49.456V49.728C1033.66 56.64 1033.38 59.296 1032.82 59.872C1032.66 60.08 1032.46 60.112 1032.14 60.112C1031.74 60.112 1030.74 60.112 1029.69 60.016C1029.9 60.352 1030.04 60.864 1030.07 61.216C1031.03 61.28 1032.01 61.296 1032.55 61.248C1033.16 61.184 1033.51 61.056 1033.88 60.592C1034.54 59.792 1034.79 57.296 1035.06 50.08C1035.06 49.92 1035.06 49.456 1035.06 49.456H1033.91ZM1028.9 46.56C1028.31 48.688 1027.29 50.8 1026.04 52.144C1026.34 52.304 1026.87 52.656 1027.11 52.848C1028.33 51.392 1029.43 49.152 1030.14 46.832L1028.9 46.56ZM1023.16 46.576C1022.74 47.632 1022.01 49.168 1021.4 50.096L1022.23 50.448C1022.86 49.584 1023.62 48.16 1024.23 46.976L1023.16 46.576ZM1025.1 48.4C1024.22 50.096 1022.7 52.496 1021.46 53.92L1022.23 54.32C1023.45 52.944 1025.02 50.64 1026.14 48.848L1025.1 48.4ZM1020.63 49.936C1021.5 50.704 1022.5 51.808 1022.94 52.56L1023.58 51.648C1023.14 50.944 1022.14 49.888 1021.24 49.136L1020.63 49.936ZM1024.58 52.112C1025.24 53.168 1025.88 54.56 1026.12 55.456L1027.08 55.008C1026.84 54.128 1026.15 52.752 1025.48 51.728L1024.58 52.112ZM1020.6 53.728L1020.7 54.8C1022.22 54.72 1024.25 54.608 1026.28 54.48V53.504C1024.17 53.6 1022.04 53.68 1020.6 53.728ZM1024.98 55.936C1025.43 56.928 1025.86 58.224 1026.01 59.056L1026.98 58.72C1026.81 57.888 1026.36 56.624 1025.9 55.648L1024.98 55.936ZM1021.48 55.712C1021.29 57.12 1020.97 58.544 1020.44 59.52C1020.7 59.632 1021.18 59.856 1021.38 59.984C1021.9 58.96 1022.3 57.408 1022.52 55.904L1021.48 55.712ZM1023.32 54.192V61.328H1024.41V54.192H1023.32Z" fill="black"/>
</svg>
