<svg width="20" height="20" viewBox="0 0 20 20" fill="none" xmlns="http://www.w3.org/2000/svg">
<path d="M4.16667 2.5C3.24583 2.5 2.5 3.24583 2.5 4.16667V15.8333C2.5 16.7542 3.24583 17.5 4.16667 17.5H13.4766L11.8099 15.8333H4.16667V4.16667H15.8333V11.8099L17.5 13.4766V4.16667C17.5 3.24583 16.7542 2.5 15.8333 2.5H4.16667ZM5.83333 5.83333V7.5H14.1667V5.83333H5.83333ZM5.83333 9.16667V10.8333H10V9.16667H5.83333ZM12.5 12.5V14.1667L16.7887 18.4554L18.4554 16.7887L14.1667 12.5H12.5ZM19.0446 17.3779L17.3779 19.0446L18.2113 19.8779C18.3738 20.0404 18.638 20.0404 18.8005 19.8779L19.8779 18.8005C20.0404 18.6371 20.0404 18.3738 19.8779 18.2113L19.0446 17.3779Z" fill="#7C7C7C"/>
</svg>
