<svg width="16" height="16" viewBox="0 0 16 16" fill="none" xmlns="http://www.w3.org/2000/svg">
<path d="M15.475 4.05833C15.8 3.73333 15.8 3.20833 15.475 2.88333L13.1167 0.525C12.7917 0.2 12.2667 0.2 11.9417 0.525L8.2 4.26667L4.95833 1.025C4.30833 0.375 3.25 0.375 2.6 1.025L1.01667 2.60833C0.366667 3.25833 0.366667 4.31667 1.01667 4.96667L4.25833 8.20833L0.5 11.9667V15.5H4.03333L7.8 11.7333L11.0417 14.975C11.8333 15.7667 12.9 15.475 13.4 14.975L14.9833 13.3917C15.6333 12.7417 15.6333 11.6833 14.9833 11.0333L11.7417 7.79167L15.475 4.05833ZM2.2 3.78333L3.775 2.2L4.83333 3.25833L3.85 4.25L5.025 5.425L6.01667 4.43333L7.01667 5.43333L5.43333 7.01667L2.2 3.78333ZM11.5583 9.98333L10.5667 10.975L11.7417 12.15L12.7333 11.1583L13.7917 12.2167L12.2083 13.8L8.96667 10.5583L10.55 8.975L11.5583 9.98333ZM3.34167 13.8333H2.16667V12.6583L10.175 4.65L11.2583 5.73333L11.35 5.825L3.34167 13.8333ZM11.35 3.46667L12.525 2.29167L13.7 3.46667L12.525 4.64167L11.35 3.46667Z" fill="#E7142D"/>
</svg>
