<svg width="28" height="29" viewBox="0 0 28 29" fill="none" xmlns="http://www.w3.org/2000/svg">
<path d="M19.2303 23.2811C19.939 24.0161 19.939 24.8981 19.2303 25.6035C18.7284 26.1033 18.2265 26.5737 17.754 27.0735C17.0749 27.8378 16.2482 28.073 15.2738 28.0144C13.8565 27.9262 12.5573 27.4853 11.3172 26.8678C8.54161 25.5153 6.17945 23.6633 4.17166 21.3113C2.69531 19.5768 1.48466 17.6658 0.687584 15.5491C0.30367 14.52 0.0379907 13.4616 0.0970974 12.3446C0.156209 11.639 0.421905 11.051 0.923853 10.5805C1.48492 10.0514 1.98683 9.52215 2.54789 8.99307C3.25659 8.28743 4.14224 8.28743 4.851 8.99307L7.41979 11.5508C8.15797 12.2857 8.15797 13.1678 7.41979 13.9028C6.88841 14.4318 6.35682 14.9611 5.82544 15.4902C5.67776 15.6373 5.67776 15.7254 5.73687 15.9018C6.09113 16.7543 6.59305 17.4893 7.18375 18.195C8.3353 19.6061 9.66396 20.8703 11.1994 21.8405C11.5242 22.0464 11.9081 22.1933 12.2624 22.3992C12.4395 22.4873 12.5577 22.458 12.7052 22.311C13.2366 21.7819 13.7682 21.2233 14.2996 20.694C15.0083 19.9883 15.8939 19.9883 16.6027 20.694C17.5177 21.576 18.3742 22.4285 19.2304 23.2812L19.2303 23.2811ZM27.9998 9.08121C27.9998 13.932 24.0433 17.8716 19.1713 17.8716C17.5178 17.8716 15.9529 17.4307 14.6536 16.6368C13.3544 17.5777 11.9963 17.7246 11.0219 17.5777C10.6971 17.5189 10.638 17.078 10.9333 16.9309C11.7895 16.5194 12.3506 15.6962 12.6753 15.0201C11.2285 13.4619 10.3428 11.3745 10.3428 9.08142C10.3428 4.23063 14.2994 0.291016 19.1714 0.291016C24.0432 0.290811 28 4.23027 28 9.08142L27.9998 9.08121ZM20.2342 3.99497C20.2342 3.40703 19.7618 2.93659 19.1713 2.93659C15.7758 2.93659 13.0001 5.70018 13.0001 9.08105C13.0001 9.66899 13.4726 10.1394 14.0631 10.1394C14.6536 10.1394 15.1261 9.66899 15.1261 9.08105C15.1261 6.84676 16.9567 5.0534 19.1712 5.0534C19.7617 5.02407 20.2342 4.55363 20.2342 3.99502L20.2342 3.99497Z" fill="#B62122"/>
</svg>
