<svg width="24" height="24" viewBox="0 0 24 24" fill="none" xmlns="http://www.w3.org/2000/svg">
<path d="M12 2C7.59356 2 4 5.59356 4 10V11V11.9023C3.42629 12.4494 3 13.1531 3 14C3 15.242 3.85755 16.1629 4.94336 16.6133C6.24439 19.7231 8.85024 22 12 22C15.1498 22 17.7556 19.7231 19.0566 16.6133C20.1424 16.1629 21 15.242 21 14C21 13.1531 20.5737 12.4494 20 11.9023V11V10C20 5.59356 16.4064 2 12 2ZM12 4C14.6556 4 16.8906 5.70738 17.6855 8.08789C17.4642 8.03504 17.2365 8 17 8H7C6.7635 8 6.53581 8.03504 6.31445 8.08789C7.10938 5.70738 9.34441 4 12 4ZM7 10H17C17.565 10 18 10.435 18 11V12V12.8516L18.502 13.1387C18.8056 13.313 19 13.615 19 14C19 14.5151 18.6312 14.9127 18.1387 14.9805L17.5527 15.0625L17.3398 15.6133C16.309 18.2995 14.2584 20 12 20C9.74155 20 7.69096 18.2995 6.66016 15.6133L6.44727 15.0625L5.86133 14.9805C5.36883 14.9127 5 14.5151 5 14C5 13.615 5.19441 13.313 5.49805 13.1387L6 12.8516V12V11C6 10.435 6.43497 10 7 10Z" fill="#65C1E6"/>
</svg>
