<svg width="24" height="24" viewBox="0 0 24 24" fill="none" xmlns="http://www.w3.org/2000/svg">
<path d="M12 2.09961L1 12H4V21H20V12H23L12 2.09961ZM12 4.79102L18 10.1914V11V19H6V10.1914L12 4.79102ZM12 9C11.4696 9 10.9609 9.21071 10.5858 9.58579C10.2107 9.96086 10 10.4696 10 11C10 11.5304 10.2107 12.0391 10.5858 12.4142C10.9609 12.7893 11.4696 13 12 13C12.5304 13 13.0391 12.7893 13.4142 12.4142C13.7893 12.0391 14 11.5304 14 11C14 10.4696 13.7893 9.96086 13.4142 9.58579C13.0391 9.21071 12.5304 9 12 9ZM12 14.25C10.665 14.25 9 14.9708 9 16.3008V17H15V16.3008C15 14.9708 13.335 14.25 12 14.25Z" fill="#18C483"/>
</svg>
