<svg width="28" height="28" viewBox="0 0 28 28"
     xmlns="http://www.w3.org/2000/svg">
    <path
            d="M6.02609 12.4567L0.384651 6.85459C0.195302 6.66666 0.0888672 6.41165 0.0888672 6.14577C0.0888672 5.87968 0.195302 5.6247 0.384651 5.43674L5.56076 0.293883C5.74991 0.105751 6.00657 0 6.27438 0C6.54198 0 6.79866 0.105751 6.98778 0.293883L12.6261 5.89598C12.6719 5.9409 12.6977 6.00234 12.6977 6.06619C12.6977 6.13025 12.6719 6.19168 12.6261 6.2366L11.5421 7.31365V7.31386C11.448 7.40671 11.296 7.40671 11.2019 7.31386L10.6438 6.75932L9.62666 7.77289C9.51942 7.87985 9.37021 7.93404 9.21877 7.92135C9.06753 7.90845 8.92947 7.8299 8.84209 7.70642C8.69998 7.49271 8.73161 7.20849 8.91751 7.03081L9.91148 6.04322L9.18489 5.3213L8.17063 6.32905C8.06338 6.43601 7.91397 6.49019 7.76273 6.4775C7.61129 6.46461 7.47343 6.38605 7.38585 6.26257C7.24374 6.04886 7.27557 5.76465 7.46147 5.58696L8.45544 4.59937L7.72886 3.87745L6.71459 4.8852C6.60735 4.99216 6.45793 5.04635 6.30649 5.03366C6.15525 5.02076 6.0174 4.94221 5.92982 4.81873C5.7877 4.60502 5.81953 4.3208 6.00544 4.14312L6.99941 3.15553L6.27282 2.43361L2.52938 6.14433L7.4527 11.0388C7.49851 11.084 7.52426 11.1452 7.52426 11.2093C7.52426 11.2733 7.49851 11.3345 7.4527 11.3797L6.36868 12.4567C6.32327 12.5022 6.26164 12.5278 6.19717 12.5278C6.1327 12.5278 6.07086 12.5022 6.02565 12.4567L6.02609 12.4567ZM22.0603 15.2779C22.0149 15.2324 21.9533 15.2068 21.8888 15.2068C21.8244 15.2068 21.7627 15.2324 21.7173 15.2779L20.6333 16.355V16.3552C20.5875 16.4001 20.5617 16.4615 20.5617 16.5254C20.5617 16.5894 20.5875 16.6509 20.6333 16.6958L21.1914 17.2503L20.1975 18.2379H20.1972C20.0113 18.4156 19.9797 18.6998 20.1218 18.9135C20.2092 19.037 20.3473 19.1155 20.4985 19.1284C20.6499 19.1411 20.7992 19.0869 20.9064 18.98L21.9207 17.9722L22.6473 18.6942L21.6533 19.6817H21.6535C21.4676 19.8594 21.4358 20.1436 21.5779 20.3574C21.6654 20.4808 21.8033 20.5594 21.9545 20.5723C22.106 20.585 22.2554 20.5308 22.3626 20.4238L23.3769 19.4161L24.1035 20.138L23.1095 21.1256C22.9236 21.3032 22.8918 21.5875 23.0339 21.8012C23.1215 21.9247 23.2593 22.0032 23.4108 22.0161C23.562 22.0288 23.7114 21.9746 23.8187 21.8677L24.8329 20.8599L25.5595 21.5818L21.8161 25.3069L16.8899 20.4152C16.8445 20.3697 16.7829 20.3441 16.7184 20.3441C16.654 20.3441 16.5923 20.3697 16.5469 20.4152L15.4629 21.4922C15.4171 21.5373 15.3913 21.5986 15.3913 21.6626C15.3913 21.7267 15.4171 21.7881 15.4629 21.833L21.1012 27.4382C21.2904 27.6264 21.547 27.7321 21.8146 27.7321C22.0824 27.7321 22.3391 27.6264 22.5282 27.4382L27.7044 22.2954C27.8937 22.1075 28.0001 21.8524 28.0001 21.5864C28.0001 21.3205 27.8937 21.0654 27.7044 20.8775L22.0603 15.2779ZM27.2336 6.96448L10.1531 23.9353C9.81597 24.2698 9.39897 24.5142 8.94116 24.6455L2.98314 26.3463C2.77554 26.4055 2.55578 26.4082 2.34675 26.3544C2.13774 26.3006 1.94697 26.192 1.79449 26.0404C1.64163 25.8887 1.53236 25.6991 1.47823 25.4914C1.4241 25.2838 1.42694 25.0654 1.48634 24.8591L3.19818 18.9363C3.33036 18.4815 3.57628 18.0672 3.9132 17.7321L20.9937 0.758256C21.458 0.301817 22.0847 0.0458239 22.7376 0.0458239C23.3906 0.0458239 24.0173 0.301837 24.4816 0.758256L27.2367 3.46968C27.7048 3.93156 27.9679 4.56004 27.9679 5.21544C27.9679 5.87069 27.7048 6.49917 27.2367 6.96105L27.2336 6.96448ZM22.8392 2.63296C22.6833 2.53486 22.4985 2.49297 22.3152 2.51451C22.1321 2.53607 21.962 2.61966 21.8335 2.7514L5.31086 19.1766C5.18273 19.3055 5.10448 19.4753 5.09008 19.656L4.29374 22.4138L5.45618 23.5687L8.40026 22.7284C8.52353 22.6893 8.63523 22.6208 8.72585 22.5292L9.15889 22.0989L9.14145 22.0816C8.47122 21.6817 7.85653 21.1963 7.31341 20.6377C7.15649 20.4818 7.0083 20.3229 6.86578 20.167C6.77414 20.0695 6.77414 19.918 6.86578 19.8205L22.9613 3.83722C23.1265 3.67226 23.2086 3.44243 23.1851 3.2108C23.1614 2.97916 23.0345 2.77028 22.8392 2.64178L22.8392 2.63296Z"
            fill="#BBBBBB"/>
</svg>
