<svg width="68" height="83" viewBox="0 0 68 83" fill="none" xmlns="http://www.w3.org/2000/svg">
<path d="M32.9536 7.74438H35.435V16.4456H32.9536V7.74438Z" fill="#D11329"/>
<path d="M34.152 10.2446C31.7038 10.2446 29.7144 8.08798 29.7144 5.43825C29.7144 2.78727 31.7044 0.630615 34.152 0.630615C36.6001 0.630615 38.5896 2.78727 38.5896 5.43825C38.5902 8.08814 36.6001 10.2446 34.152 10.2446ZM34.152 3.35524C33.0725 3.35524 32.1957 4.29 32.1957 5.43825C32.1957 6.5865 33.073 7.52002 34.152 7.52002C35.2315 7.52002 36.1083 6.58525 36.1083 5.43825C36.1088 4.29123 35.2315 3.35524 34.152 3.35524Z" fill="#D11329"/>
<path d="M6.29688 25.5851L7.63669 23.2935L14.7739 28.3242L13.4341 30.6158L6.29688 25.5851Z" fill="#D11329"/>
<path d="M5.08249 28.1322C4.3331 28.1322 3.57653 27.9279 2.88246 27.4961C1.84672 26.8514 1.10724 25.8065 0.802106 24.5549C0.499142 23.3155 0.660869 22.0237 1.25517 20.915C2.47701 18.6344 5.19044 17.8474 7.30227 19.1592C8.33801 19.8039 9.07749 20.8488 9.38262 22.1004C9.68559 23.3399 9.52386 24.6317 8.92956 25.7404C8.10927 27.273 6.61553 28.1323 5.08235 28.1323L5.08249 28.1322ZM5.09357 21.2428C4.41507 21.2428 3.75486 21.6199 3.39264 22.2944C3.13952 22.7688 3.0703 23.3204 3.19934 23.8489C3.33061 24.3883 3.65351 24.842 4.10602 25.1242C5.04649 25.7075 6.25117 25.3669 6.79069 24.3573C7.04492 23.8829 7.11471 23.3313 6.98565 22.8028C6.85438 22.2634 6.53148 21.8097 6.07897 21.5275C5.7688 21.3359 5.42873 21.2428 5.09364 21.2428H5.09357Z" fill="#D11329"/>
<path d="M6.10303 57.0475L13.2408 52.0161L14.5806 54.3078L7.44284 59.3391L6.10303 57.0475Z" fill="#D11329"/>
<path d="M4.95028 64.1953C3.41936 64.1953 1.9256 63.3371 1.10307 61.8046C0.508767 60.6959 0.347594 59.4029 0.650005 58.1647C0.955182 56.9124 1.69461 55.8676 2.73036 55.2235C4.83837 53.9117 7.55508 54.695 8.77859 56.9792C9.3729 58.0867 9.53296 59.3797 9.23 60.6192C8.92482 61.8714 8.1854 62.9163 7.14964 63.5604C6.45786 63.9897 5.69855 64.1953 4.95018 64.1953L4.95028 64.1953ZM4.94031 57.3077C4.60411 57.3077 4.26514 57.399 3.95387 57.5936C3.50081 57.8758 3.17845 58.3295 3.04719 58.8689C2.91814 59.3974 2.98737 59.949 3.24049 60.4234C3.78384 61.4318 4.99133 61.776 5.92672 61.1903C6.37979 60.9081 6.70215 60.4544 6.8334 59.915C6.96246 59.3865 6.89322 58.8349 6.6401 58.3605C6.27787 57.6836 5.61932 57.3077 4.94031 57.3077V57.3077ZM3.34233 56.407H3.35451H3.34233Z" fill="#D11329"/>
<path d="M32.5654 66.554H35.0468V75.2552H32.5654V66.554Z" fill="#D11329"/>
<path d="M33.8488 82.3694C31.4006 82.3694 29.4111 80.2127 29.4111 77.5618C29.4111 74.9119 31.4012 72.7554 33.8488 72.7554C36.2969 72.7554 38.2864 74.912 38.2864 77.5618C38.2864 80.2127 36.2964 82.3694 33.8488 82.3694ZM33.8488 75.48C32.7693 75.48 31.8925 76.4148 31.8925 77.5618C31.8919 78.7088 32.7693 79.6448 33.8488 79.6448C34.9283 79.6448 35.8051 78.71 35.8051 77.5618C35.8051 76.4135 34.9283 75.48 33.8488 75.48Z" fill="#D11329"/>
<path d="M53.2212 54.6732L54.561 52.3816L61.6982 57.4123L60.3584 59.704L53.2212 54.6732Z" fill="#D11329"/>
<path d="M62.8977 64.477C62.1483 64.477 61.3917 64.2727 60.6994 63.8409C59.6636 63.1962 58.9241 62.1513 58.619 60.8997C58.316 59.6602 58.4778 58.3684 59.0721 57.2597C60.2917 54.9779 63.0051 54.1921 65.1192 55.504C66.1549 56.1486 66.8944 57.1936 67.1995 58.4452C67.5025 59.6846 67.3407 60.9764 66.7464 62.0851C65.9234 63.6189 64.4296 64.477 62.8975 64.477L62.8977 64.477ZM62.9088 57.5888C62.2303 57.5888 61.5712 57.9647 61.2101 58.6404C60.9559 59.1148 60.8861 59.6664 61.0151 60.1949C61.1464 60.7343 61.4693 61.188 61.9218 61.4702C62.8623 62.0589 64.0681 61.7129 64.608 60.7033C64.8612 60.2289 64.9304 59.6773 64.8014 59.1488C64.6701 58.6094 64.3472 58.1557 63.8947 57.8735C63.584 57.6801 63.2439 57.5888 62.9088 57.5888H62.9088Z" fill="#D11329"/>
<path d="M53.417 28.6881L60.5547 23.6567L61.8946 25.9484L54.7568 30.9797L53.417 28.6881Z" fill="#D11329"/>
<path d="M63.0689 28.4155C61.538 28.4155 60.0442 27.5574 59.2217 26.0236C58.6274 24.9161 58.4673 23.6232 58.7703 22.3837C59.0755 21.1315 59.8149 20.0866 60.8507 19.4425C62.9598 18.1307 65.6754 18.9152 66.8978 21.1972C67.4921 22.3059 67.6532 23.5989 67.3508 24.8371C67.0456 26.0893 66.3062 27.1342 65.2705 27.7783C64.5776 28.2113 63.8182 28.4157 63.0689 28.4157L63.0689 28.4155ZM63.0606 21.5274C62.7244 21.5274 62.3843 21.6186 62.0742 21.812C61.6211 22.0942 61.2987 22.5479 61.1675 23.0873C61.0384 23.6158 61.1077 24.1675 61.3608 24.6418C61.903 25.6514 63.1065 25.9975 64.047 25.4088C64.5001 25.1266 64.8224 24.6729 64.9537 24.1334C65.0828 23.6049 65.0135 23.0533 64.7604 22.5789C64.3976 21.9051 63.7391 21.5274 63.0606 21.5274V21.5274Z" fill="#D11329"/>
<path d="M53.0803 49.3544C52.5417 50.2868 51.5459 50.8617 50.4674 50.8619V50.8618H20.7483C18.4286 50.8618 16.2859 49.6253 15.1265 47.6187C13.9677 45.6124 13.9677 43.1411 15.1265 41.1348C16.2859 39.1283 18.4286 37.8917 20.7483 37.8917L20.7506 37.8917C21.4302 37.8909 22.1051 37.9997 22.7497 38.2139L22.7497 38.2139L22.7585 38.2168C23.8666 38.5793 25.0826 38.3741 26.0104 37.6667L26.0112 37.666C26.923 36.9701 27.4403 35.8772 27.4028 34.7338V34.5728L27.4028 34.3515C27.4028 34.351 27.4028 34.3506 27.4028 34.3501C27.4059 32.2743 28.4033 30.3249 30.0867 29.1069L30.0868 29.1068C31.7705 27.8885 33.9369 27.5495 35.9127 28.1956L35.9127 28.1956C37.8888 28.8417 39.4351 30.3944 40.0725 32.371L40.0877 32.4184L40.1053 32.4649C40.3801 33.1913 40.8809 33.8109 41.535 34.2319C42.1673 34.639 42.9085 34.8384 43.6561 34.8062H43.9057C44.8089 34.8062 45.6745 35.1647 46.3125 35.8023L46.3129 35.8028C46.9509 36.44 47.3091 37.3043 47.3091 38.2058C47.3091 38.7259 47.187 39.2387 46.9524 39.7031L46.9524 39.7031L46.9463 39.7154C46.402 40.812 46.4611 42.1135 47.1079 43.1569C47.7541 44.1999 48.8933 44.8332 50.1183 44.834H50.1196H50.467C51.5457 44.834 52.5416 45.409 53.0803 46.3415C53.619 47.2738 53.619 48.4221 53.0803 49.3544Z" stroke="#D11329" stroke-width="4"/>
</svg>
