<svg width="20" height="14" viewBox="0 0 20 14" fill="none" xmlns="http://www.w3.org/2000/svg">
<path d="M9.99999 0.666748C3.33333 0.666748 0.833328 7.33341 0.833328 7.33341C0.833328 7.33341 3.33333 14.0001 9.99999 14.0001C16.6667 14.0001 19.1667 7.33341 19.1667 7.33341C19.1667 7.33341 16.6667 0.666748 9.99999 0.666748ZM9.99999 2.33341C14.3967 2.33341 16.6205 5.88933 17.3405 7.33016C16.6197 8.76099 14.3792 12.3334 9.99999 12.3334C5.60333 12.3334 3.3795 8.7775 2.6595 7.33667C3.38117 5.90584 5.62083 2.33341 9.99999 2.33341ZM9.99999 4.00008C8.15916 4.00008 6.66666 5.49258 6.66666 7.33341C6.66666 9.17425 8.15916 10.6667 9.99999 10.6667C11.8408 10.6667 13.3333 9.17425 13.3333 7.33341C13.3333 5.49258 11.8408 4.00008 9.99999 4.00008ZM9.99999 5.66675C10.9208 5.66675 11.6667 6.41258 11.6667 7.33341C11.6667 8.25425 10.9208 9.00008 9.99999 9.00008C9.07916 9.00008 8.33333 8.25425 8.33333 7.33341C8.33333 6.41258 9.07916 5.66675 9.99999 5.66675Z" fill="#A7A7A7"/>
</svg>
