<svg width="628" height="240" viewBox="0 0 628 240" fill="none" xmlns="http://www.w3.org/2000/svg">
<rect x="1" y="1" width="626" height="238" rx="3" fill="white"/>
<g clip-path="url(#clip0_1490_12044)">
<path d="M314.5 77C310.609 77 307.334 79.0825 305.216 82.0228C299.309 82.0898 294.5 86.911 294.5 92.8333C294.5 98.7971 299.37 103.667 305.333 103.667H309.5V100.333H305.333C301.17 100.333 297.833 96.9962 297.833 92.8333C297.833 88.6704 301.17 85.3333 305.333 85.3333C305.392 85.3333 305.527 85.345 305.75 85.3561L306.769 85.4082L307.277 84.5228C308.717 82.0206 311.396 80.3333 314.5 80.3333C318.674 80.3333 322.09 83.3758 322.719 87.3581L322.973 88.9596L324.581 88.7513C324.954 88.7028 325.192 88.6667 325.333 88.6667C328.574 88.6667 331.167 91.2593 331.167 94.5C331.167 97.7407 328.574 100.333 325.333 100.333H319.5V103.667H325.333C330.376 103.667 334.5 99.5426 334.5 94.5C334.5 89.5161 330.462 85.4603 325.499 85.3659C324.05 80.5693 319.753 77 314.5 77ZM314.5 87L307.833 93.6667H312.833V107H316.167V93.6667H321.167L314.5 87Z" fill="#A7A7A7"/>
</g>
<path d="M274.097 128.18V127.228H268.329C268.567 126.668 268.749 126.094 268.917 125.506L267.909 125.282C267.447 127.032 266.621 128.74 265.599 129.832C265.837 129.972 266.285 130.294 266.453 130.476C266.999 129.86 267.489 129.062 267.909 128.18H274.097ZM265.501 131.358L264.157 131.792V129.062H265.599V128.096H264.157V125.296H263.177V128.096H261.399V129.062H263.177V132.086C262.421 132.324 261.735 132.534 261.203 132.688L261.469 133.682C261.987 133.514 262.561 133.346 263.177 133.136V136.762C263.177 136.972 263.107 137.028 262.925 137.028C262.771 137.028 262.211 137.028 261.623 137.014C261.749 137.308 261.889 137.728 261.917 137.994C262.813 138.008 263.345 137.966 263.667 137.798C264.017 137.63 264.157 137.35 264.157 136.776V132.814L265.641 132.324L265.501 131.358ZM269.309 137.098C268.441 137.098 268.287 136.972 268.287 136.398V132.702L269.981 132.044V135.726H270.905V131.694L272.571 131.036C272.543 132.366 272.487 133.878 272.389 134.802L273.187 135.026C273.383 133.794 273.481 131.778 273.509 130.252L273.551 130.084L272.823 129.874L272.627 130.028L270.905 130.7V128.614H269.981V131.064L268.287 131.722V129.734H267.349V132.072L265.865 132.646L266.187 133.514L267.349 133.066V136.398C267.349 137.672 267.769 137.994 269.267 137.994H272.501C273.789 137.994 274.083 137.532 274.223 135.908C273.943 135.838 273.565 135.684 273.341 135.53C273.257 136.832 273.131 137.098 272.445 137.098H269.309ZM278.165 131.974V130.266H281.623C281.693 130.854 281.777 131.428 281.889 131.974H278.165ZM281.427 127.704C281.455 128.278 281.483 128.824 281.539 129.37H278.165V127.704H281.427ZM286.243 127.704V129.37H282.561C282.505 128.838 282.477 128.278 282.449 127.704H286.243ZM282.911 131.974C282.813 131.442 282.715 130.868 282.645 130.266H286.243V131.974H282.911ZM285.921 133.052C285.375 133.724 284.647 134.312 283.793 134.802C283.527 134.256 283.303 133.612 283.121 132.898H287.279V126.794H282.421C282.421 126.318 282.421 125.828 282.421 125.324H281.371C281.371 125.828 281.385 126.318 281.399 126.794H277.143V133.724H278.165V132.898H282.085C282.295 133.794 282.561 134.592 282.897 135.292C280.979 136.202 278.585 136.79 276.135 137.14C276.331 137.364 276.625 137.84 276.737 138.078C279.075 137.672 281.413 137.07 283.373 136.132C284.185 137.35 285.277 138.064 286.761 138.064C287.979 138.064 288.385 137.518 288.595 135.516C288.315 135.432 287.951 135.222 287.713 135.026C287.587 136.622 287.405 137.07 286.775 137.07C285.753 137.07 284.927 136.566 284.283 135.642C285.319 135.054 286.215 134.34 286.915 133.5L285.921 133.052ZM302.239 126.78C301.721 126.318 300.685 125.716 299.831 125.338L299.229 125.982C300.083 126.388 301.105 127.032 301.595 127.508L302.239 126.78ZM296.639 134.816C294.371 135.292 291.991 135.768 290.479 136.062L290.675 137.112C292.299 136.748 294.581 136.258 296.723 135.796L296.639 134.816ZM295.169 133.108H292.327V130.686H295.169V133.108ZM291.361 129.776V134.004H296.191V129.776H291.361ZM301.035 129.538C300.587 130.994 299.985 132.282 299.229 133.43C298.879 132.072 298.641 130.392 298.501 128.544H302.631V127.522H298.431C298.403 126.808 298.389 126.08 298.389 125.324H297.297C297.311 126.066 297.325 126.794 297.367 127.522H290.549V128.544H297.423C297.605 130.812 297.913 132.884 298.403 134.522C297.479 135.642 296.359 136.566 295.043 137.266C295.281 137.448 295.687 137.854 295.855 138.064C296.961 137.406 297.941 136.608 298.809 135.656C299.439 137.168 300.279 138.078 301.329 138.078C302.407 138.078 302.799 137.392 302.981 134.998C302.687 134.9 302.309 134.662 302.071 134.41C301.987 136.272 301.819 137 301.427 137C300.741 137 300.111 136.132 299.593 134.69C300.643 133.304 301.469 131.666 302.085 129.79L301.035 129.538ZM313.982 129.468L313.968 129.412C314.136 129.524 314.36 129.748 314.458 129.902C315.214 129.174 315.466 128.012 315.564 126.612H316.292C316.222 128.474 316.11 129.174 315.984 129.37C315.928 129.482 315.844 129.496 315.732 129.496C315.62 129.496 315.382 129.496 315.102 129.454C315.2 129.664 315.256 129.972 315.256 130.196C315.536 130.21 315.844 130.21 315.998 130.196C316.264 130.168 316.432 130.084 316.586 129.874C316.796 129.566 316.908 128.684 317.02 126.234V125.87H314.052V126.612H314.864C314.794 127.788 314.598 128.796 313.968 129.384C313.856 128.796 313.562 127.942 313.24 127.284L312.624 127.494C312.778 127.816 312.918 128.194 313.03 128.558L312.064 129.048V126.752C312.708 126.514 313.38 126.234 313.926 125.884L313.338 125.282C312.876 125.632 312.064 126.024 311.336 126.276V129.006C311.336 129.51 311.14 129.678 310.986 129.748C311.084 129.916 311.238 130.238 311.294 130.434C311.462 130.252 311.728 130.07 313.24 129.258C313.282 129.426 313.31 129.58 313.338 129.72L313.982 129.468ZM310.986 127.466C310.622 126.948 309.852 126.164 309.236 125.632L308.578 126.178C309.208 126.738 309.95 127.55 310.286 128.082L310.986 127.466ZM310.51 130.952C310.118 130.476 309.306 129.804 308.648 129.356L308.032 129.916C308.69 130.406 309.488 131.106 309.866 131.582L310.51 130.952ZM310.174 132.814C309.614 134.312 308.858 136.076 308.312 137.098L309.11 137.616C309.67 136.398 310.356 134.746 310.874 133.318L310.174 132.814ZM317.146 132.03C316.544 131.498 315.41 130.798 314.444 130.308C314.514 130.21 314.584 130.126 314.626 130.028L314.024 129.706C313.31 130.728 311.98 131.666 310.762 132.212C310.944 132.408 311.154 132.702 311.28 132.926C311.644 132.73 312.036 132.506 312.4 132.24V132.8H313.59V133.668H311.294V134.424H313.59V136.58C312.554 136.678 311.602 136.762 310.86 136.832L310.986 137.658C312.54 137.49 314.822 137.238 317.006 136.986V136.202L315.648 136.356C315.886 135.922 316.096 135.404 316.306 134.886L315.62 134.648C315.438 135.18 315.144 135.95 314.892 136.44L314.36 136.496V134.424H316.698V133.668H314.36V132.8H315.774V132.058H312.652C313.128 131.708 313.576 131.302 313.968 130.868C314.976 131.386 316.096 132.142 316.684 132.674L317.146 132.03ZM311.714 134.928C312.008 135.432 312.288 136.118 312.4 136.58L313.058 136.3C312.946 135.866 312.652 135.194 312.344 134.704L311.714 134.928ZM318.35 126.822H317.58V134.704H318.35V126.822ZM319.372 125.352V136.79C319.372 137 319.288 137.056 319.106 137.056C318.924 137.07 318.308 137.07 317.636 137.042C317.748 137.322 317.846 137.714 317.888 137.952C318.84 137.966 319.414 137.938 319.764 137.784C320.086 137.63 320.226 137.378 320.226 136.79V125.352H319.372ZM335.088 126.822V126.108H330.846C330.958 125.884 331.056 125.66 331.14 125.436L330.202 125.296C329.922 126.066 329.39 126.962 328.536 127.648C328.746 127.746 329.068 128.026 329.236 128.236C329.74 127.802 330.132 127.326 330.454 126.822H335.088ZM330.244 129.146H331.098V130.168H330.244V129.146ZM331.7 129.146H332.596V130.168H331.7V129.146ZM333.198 129.146H334.094V130.168H333.198V129.146ZM329.488 130.756H334.864V128.572H329.488V130.756ZM330.244 127.368V128.026H334.388V127.368H330.244ZM324.098 129.174H325.554V129.986H324.098V129.174ZM325.554 126.43V127.116H324.098V126.43H325.554ZM327.444 128.544H324.098V127.76H327.444V128.544ZM328.858 129.986H326.408V129.174H328.354V127.116H326.408V126.43H328.746V125.758H323.188V130.658H328.858V129.986ZM325.638 134.424H332.12V135.11H325.638V134.424ZM325.638 133.136H332.12V133.808H325.638V133.136ZM325.638 131.862H332.12V132.52H325.638V131.862ZM331.504 137.07C330.86 137.07 330.748 137.028 330.748 136.706V135.726H333.156V131.232H324.644V135.726H326.646C326.226 136.664 325.204 137.056 322.53 137.252C322.698 137.448 322.936 137.84 323.006 138.064C326.03 137.756 327.22 137.14 327.696 135.726H329.74V136.72C329.74 137.658 330.076 137.896 331.406 137.896H333.814C334.836 137.896 335.144 137.546 335.256 136.118C334.976 136.048 334.584 135.922 334.374 135.782C334.318 136.916 334.234 137.07 333.716 137.07H331.504ZM343.415 129.272H344.829V128.306H343.415V125.282H342.463V128.306H340.601V129.272H342.365C341.973 131.176 341.147 133.36 340.307 134.522C340.475 134.76 340.727 135.166 340.853 135.432C341.441 134.55 342.015 133.122 342.463 131.652V138.05H343.415V131.512C343.807 132.212 344.283 133.08 344.479 133.528L345.039 132.758C344.801 132.394 343.793 130.84 343.415 130.322V129.272ZM348.511 133.724V134.83H346.327V133.724H348.511ZM351.661 134.83H349.407V133.724H351.661V134.83ZM349.407 136.72V135.6H351.661V136.72H349.407ZM346.327 136.72V135.6H348.511V136.72H346.327ZM345.375 138.064H346.327V137.518H351.661V138.036H352.655V132.912H345.375V138.064ZM350.891 131.386H347.209V130.098H350.891V131.386ZM346.299 129.342V132.142H351.871V129.342H346.299ZM351.269 127.55C351.591 127.074 351.997 126.388 352.347 125.758L351.395 125.436C351.199 125.968 350.779 126.766 350.471 127.27L351.185 127.55H349.449V125.296H348.469V127.55H346.537L347.391 127.228C347.251 126.752 346.873 126.024 346.495 125.492L345.641 125.772C346.005 126.318 346.369 127.06 346.495 127.55H345.011V129.79H345.949V128.376H352.067V129.79H353.047V127.55H351.269ZM356.373 127.228H366.131V128.348H367.139V126.346H362.015C361.819 125.996 361.525 125.576 361.315 125.268L360.279 125.52C360.433 125.772 360.615 126.052 360.783 126.346H355.393V128.348H356.373V127.228ZM363.163 129.664C362.701 130.21 362.099 130.658 361.371 131.008C360.475 130.826 359.565 130.672 358.641 130.518C358.907 130.252 359.201 129.972 359.495 129.664H363.163ZM367.167 132.464C366.005 132.072 364.465 131.666 362.757 131.302C363.429 130.854 363.975 130.322 364.409 129.664H367.349V128.81H364.871C364.983 128.572 365.067 128.348 365.151 128.082L364.143 127.844C364.031 128.194 363.891 128.516 363.723 128.81H360.279C360.601 128.432 360.909 128.04 361.161 127.676L360.153 127.368C359.859 127.816 359.481 128.32 359.061 128.81H355.155V129.664H358.305C357.829 130.182 357.353 130.644 356.919 131.036C357.941 131.176 358.921 131.358 359.873 131.54C358.613 131.862 357.059 132.044 355.141 132.128C355.309 132.38 355.449 132.716 355.547 133.024C358.109 132.856 360.097 132.534 361.609 131.89C363.429 132.31 365.011 132.73 366.159 133.164L367.167 132.464ZM358.515 134.956C357.773 135.754 356.443 136.482 355.197 136.944C355.449 137.098 355.855 137.462 356.051 137.658C357.269 137.112 358.683 136.244 359.537 135.292L358.515 134.956ZM362.799 135.474C364.087 136.076 365.669 137.042 366.453 137.728L367.209 136.972C366.383 136.3 364.773 135.376 363.499 134.816L362.799 135.474ZM361.707 133.766V132.618H360.685V133.766H355.015V134.648H360.685V138.064H361.707V134.648H367.475V133.766H361.707Z" fill="#505050"/>
<path d="M213.834 159.38C213.21 160.544 212.286 161.456 211.146 162.176C210.018 161.444 209.154 160.508 208.554 159.38H213.834ZM214.518 158.468L214.338 158.504H211.53V156.668H216.102V155.792H211.53V153.968H210.618V155.792H206.07V156.668H210.618V158.504H206.61V159.38H207.882L207.618 159.476C208.266 160.772 209.154 161.828 210.294 162.656C208.902 163.352 207.282 163.796 205.578 164.072C205.746 164.276 205.986 164.684 206.07 164.924C207.882 164.576 209.622 164.036 211.11 163.208C212.466 164.024 214.134 164.564 216.066 164.864C216.186 164.6 216.426 164.216 216.618 164C214.83 163.784 213.282 163.328 211.974 162.656C213.354 161.72 214.446 160.484 215.13 158.852L214.518 158.468ZM227.806 154.04C226.414 154.352 223.882 154.556 221.806 154.628C221.89 154.832 221.998 155.12 222.022 155.324C224.122 155.264 226.702 155.072 228.334 154.712L227.806 154.04ZM225.562 156.872C225.49 156.476 225.346 155.804 225.19 155.288L224.482 155.408C224.614 155.936 224.758 156.632 224.794 157.04L225.562 156.872ZM221.746 160.244L221.626 159.44L220.378 159.836V157.196H221.65V156.368H220.378V153.968H219.538V156.368H218.05V157.196H219.538V160.1C218.938 160.28 218.398 160.448 217.954 160.568L218.098 161.432C218.542 161.3 219.022 161.144 219.538 160.976V163.88C219.538 164.06 219.478 164.096 219.334 164.096C219.202 164.108 218.722 164.108 218.206 164.096C218.326 164.348 218.434 164.708 218.47 164.924C219.226 164.936 219.682 164.9 219.958 164.756C220.258 164.612 220.378 164.372 220.378 163.88V160.7L221.746 160.244ZM222.334 155.66C222.562 156.14 222.79 156.776 222.898 157.184L223.63 156.932C223.522 156.56 223.246 155.936 223.03 155.48L222.334 155.66ZM227.026 161.12C226.726 161.828 226.294 162.404 225.754 162.86C225.082 162.38 224.542 161.792 224.158 161.12H227.026ZM227.566 160.4L227.41 160.424H224.05C224.11 160.16 224.17 159.884 224.206 159.62H228.886V158.864H224.326C224.362 158.54 224.398 158.216 224.422 157.916H228.538V157.184H227.086C227.458 156.668 227.854 156.02 228.19 155.444L227.35 155.168C227.086 155.768 226.63 156.596 226.246 157.184H221.986V157.916H223.558C223.534 158.216 223.498 158.54 223.462 158.864H221.71V159.62H223.342C223.054 161.36 222.406 163.22 220.69 164.288C220.894 164.42 221.17 164.708 221.302 164.912C222.49 164.132 223.198 163.004 223.666 161.78C224.038 162.38 224.518 162.896 225.07 163.34C224.362 163.772 223.534 164.072 222.622 164.276C222.79 164.408 223.03 164.756 223.126 164.936C224.086 164.696 224.974 164.348 225.742 163.82C226.546 164.348 227.494 164.72 228.55 164.948C228.67 164.72 228.898 164.372 229.09 164.192C228.106 164.012 227.194 163.712 226.426 163.28C227.146 162.608 227.71 161.744 228.07 160.616L227.566 160.4ZM235.826 164.156C237.542 164.156 238.238 162.932 238.238 161.42V155.192H237.134V161.312C237.134 162.644 236.666 163.184 235.718 163.184C235.082 163.184 234.59 162.896 234.194 162.2L233.402 162.764C233.918 163.676 234.71 164.156 235.826 164.156ZM241.016 164H242.132V160.508H243.584C245.516 160.508 246.824 159.644 246.824 157.784C246.824 155.864 245.504 155.192 243.536 155.192H241.016V164ZM242.132 159.608V156.104H243.392C244.94 156.104 245.72 156.512 245.72 157.784C245.72 159.044 244.988 159.608 243.44 159.608H242.132ZM252.454 164.156C253.642 164.156 254.614 163.724 255.178 163.136V159.44H252.298V160.364H254.158V162.668C253.81 162.992 253.198 163.184 252.574 163.184C250.678 163.184 249.634 161.792 249.634 159.572C249.634 157.376 250.786 156.008 252.55 156.008C253.45 156.008 254.014 156.38 254.458 156.848L255.058 156.128C254.554 155.588 253.75 155.036 252.526 155.036C250.198 155.036 248.494 156.764 248.494 159.608C248.494 162.464 250.15 164.156 252.454 164.156ZM259.687 166.148H260.491L264.079 154.472H263.287L259.687 166.148ZM268.937 164H270.053V160.508H271.505C273.437 160.508 274.745 159.644 274.745 157.784C274.745 155.864 273.425 155.192 271.457 155.192H268.937V164ZM270.053 159.608V156.104H271.313C272.861 156.104 273.641 156.512 273.641 157.784C273.641 159.044 272.909 159.608 271.361 159.608H270.053ZM276.92 164H277.976V159.38C277.976 158.456 277.892 157.52 277.844 156.632H277.892L278.84 158.444L282.044 164H283.184V155.192H282.128V159.776C282.128 160.688 282.212 161.672 282.272 162.56H282.212L281.276 160.748L278.072 155.192H276.92V164ZM289.436 164.156C290.624 164.156 291.596 163.724 292.16 163.136V159.44H289.28V160.364H291.14V162.668C290.792 162.992 290.18 163.184 289.556 163.184C287.66 163.184 286.616 161.792 286.616 159.572C286.616 157.376 287.768 156.008 289.532 156.008C290.432 156.008 290.996 156.38 291.44 156.848L292.04 156.128C291.536 155.588 290.732 155.036 289.508 155.036C287.18 155.036 285.476 156.764 285.476 159.608C285.476 162.464 287.132 164.156 289.436 164.156ZM298.469 161.744C299.729 161.3 300.545 160.316 300.545 159.02C300.545 158.18 300.185 157.64 299.525 157.64C299.033 157.64 298.613 157.94 298.613 158.504C298.613 159.068 299.021 159.356 299.513 159.356C299.585 159.356 299.645 159.356 299.717 159.344C299.657 160.16 299.129 160.724 298.205 161.108L298.469 161.744ZM308.925 157.376H310.137V156.548H308.925V153.956H308.109V156.548H306.513V157.376H308.025C307.689 159.008 306.981 160.88 306.261 161.876C306.405 162.08 306.621 162.428 306.729 162.656C307.233 161.9 307.725 160.676 308.109 159.416V164.9H308.925V159.296C309.261 159.896 309.669 160.64 309.837 161.024L310.317 160.364C310.113 160.052 309.249 158.72 308.925 158.276V157.376ZM313.293 161.192V162.14H311.421V161.192H313.293ZM315.993 162.14H314.061V161.192H315.993V162.14ZM314.061 163.76V162.8H315.993V163.76H314.061ZM311.421 163.76V162.8H313.293V163.76H311.421ZM310.605 164.912H311.421V164.444H315.993V164.888H316.845V160.496H310.605V164.912ZM315.333 159.188H312.177V158.084H315.333V159.188ZM311.397 157.436V159.836H316.173V157.436H311.397ZM315.657 155.9C315.933 155.492 316.281 154.904 316.581 154.364L315.765 154.088C315.597 154.544 315.237 155.228 314.973 155.66L315.585 155.9H314.097V153.968H313.257V155.9H311.601L312.333 155.624C312.213 155.216 311.889 154.592 311.565 154.136L310.833 154.376C311.145 154.844 311.457 155.48 311.565 155.9H310.293V157.82H311.097V156.608H316.341V157.82H317.181V155.9H315.657ZM320.089 155.624H328.453V156.584H329.317V154.868H324.925C324.757 154.568 324.505 154.208 324.325 153.944L323.437 154.16C323.569 154.376 323.725 154.616 323.869 154.868H319.249V156.584H320.089V155.624ZM325.909 157.712C325.513 158.18 324.997 158.564 324.373 158.864C323.605 158.708 322.825 158.576 322.033 158.444C322.261 158.216 322.513 157.976 322.765 157.712H325.909ZM329.341 160.112C328.345 159.776 327.025 159.428 325.561 159.116C326.137 158.732 326.605 158.276 326.977 157.712H329.497V156.98H327.373C327.469 156.776 327.541 156.584 327.613 156.356L326.749 156.152C326.653 156.452 326.533 156.728 326.389 156.98H323.437C323.713 156.656 323.977 156.32 324.193 156.008L323.329 155.744C323.077 156.128 322.753 156.56 322.393 156.98H319.045V157.712H321.745C321.337 158.156 320.929 158.552 320.557 158.888C321.433 159.008 322.273 159.164 323.089 159.32C322.009 159.596 320.677 159.752 319.033 159.824C319.177 160.04 319.297 160.328 319.381 160.592C321.577 160.448 323.281 160.172 324.577 159.62C326.137 159.98 327.493 160.34 328.477 160.712L329.341 160.112ZM321.925 162.248C321.289 162.932 320.149 163.556 319.081 163.952C319.297 164.084 319.645 164.396 319.813 164.564C320.857 164.096 322.069 163.352 322.801 162.536L321.925 162.248ZM325.597 162.692C326.701 163.208 328.057 164.036 328.729 164.624L329.377 163.976C328.669 163.4 327.289 162.608 326.197 162.128L325.597 162.692ZM324.661 161.228V160.244H323.785V161.228H318.925V161.984H323.785V164.912H324.661V161.984H329.605V161.228H324.661ZM341.921 158.3V157.388H336.965C337.133 156.128 337.145 154.94 337.157 153.98H336.197C336.185 154.928 336.197 156.128 336.017 157.388H331.445V158.3H335.873C335.381 160.568 334.181 162.872 331.205 164.168C331.457 164.348 331.745 164.66 331.877 164.9C334.793 163.568 336.089 161.264 336.665 158.96C337.613 161.684 339.137 163.808 341.441 164.9C341.597 164.636 341.897 164.264 342.113 164.06C339.797 163.112 338.237 160.94 337.397 158.3H341.921ZM348.633 154.136V163.676C348.633 163.916 348.537 164 348.285 164C348.057 164.012 347.193 164.024 346.317 163.988C346.461 164.24 346.629 164.66 346.689 164.912C347.805 164.924 348.549 164.9 348.981 164.756C349.401 164.6 349.581 164.336 349.581 163.676V154.136H348.633ZM351.501 157.16C352.521 158.876 353.481 161.108 353.769 162.524L354.705 162.128C354.405 160.7 353.397 158.516 352.341 156.836L351.501 157.16ZM345.501 156.92C345.213 158.528 344.553 160.592 343.485 161.852C343.725 161.948 344.109 162.164 344.325 162.32C345.405 160.988 346.101 158.84 346.485 157.1L345.501 156.92ZM359.593 154.412L359.461 154.448H356.593V164.9H357.385V155.264H359.125C358.885 156.056 358.525 157.088 358.177 157.952C359.041 158.912 359.257 159.74 359.257 160.388C359.257 160.748 359.185 161.084 359.005 161.216C358.909 161.288 358.777 161.312 358.633 161.324C358.441 161.348 358.213 161.336 357.937 161.312C358.069 161.54 358.153 161.876 358.165 162.104C358.417 162.116 358.729 162.116 358.957 162.08C359.197 162.056 359.425 161.984 359.593 161.852C359.917 161.624 360.061 161.096 360.061 160.472C360.061 159.728 359.845 158.852 358.981 157.856C359.389 156.908 359.821 155.732 360.181 154.76L359.593 154.412ZM361.633 157.46H365.149V158.948H361.633V157.46ZM365.149 155.276V156.716H361.633V155.276H365.149ZM366.145 160.112C365.653 160.544 364.897 161.108 364.273 161.528C363.973 160.988 363.745 160.376 363.565 159.728H366.013V154.484H360.769V163.352C360.769 163.844 360.517 164.096 360.325 164.192C360.469 164.36 360.661 164.732 360.721 164.924C360.961 164.768 361.321 164.648 363.793 163.976C363.757 163.784 363.745 163.424 363.745 163.16L361.633 163.676V159.728H362.785C363.385 162.104 364.501 163.94 366.373 164.828C366.517 164.6 366.793 164.24 366.985 164.072C366.025 163.676 365.257 163.016 364.669 162.164C365.329 161.768 366.121 161.24 366.733 160.736L366.145 160.112ZM371.729 155.588C371.549 155.12 371.105 154.436 370.697 153.92L369.917 154.22C370.313 154.748 370.745 155.468 370.889 155.924L371.729 155.588ZM370.517 158.42C370.541 157.892 370.553 157.328 370.565 156.764H373.325V155.936H368.501V156.764H369.689C369.653 160.016 369.545 162.68 368.261 164.228C368.489 164.36 368.801 164.66 368.933 164.876C370.013 163.58 370.361 161.612 370.493 159.236H372.029C371.909 162.344 371.777 163.484 371.549 163.748C371.453 163.88 371.357 163.916 371.201 163.904C371.033 163.904 370.697 163.904 370.277 163.868C370.409 164.096 370.493 164.444 370.505 164.684C370.937 164.708 371.345 164.708 371.597 164.672C371.897 164.648 372.089 164.564 372.281 164.3C372.617 163.868 372.749 162.584 372.893 158.828C372.905 158.708 372.905 158.42 372.905 158.42H370.517ZM374.165 162.536C375.293 163.112 376.721 164.012 377.405 164.648L378.005 163.868C377.297 163.256 375.833 162.404 374.729 161.864L374.165 162.536ZM377.573 160.148C377.117 159.692 376.181 159.032 375.473 158.576L374.897 159.152C375.605 159.644 376.517 160.352 376.961 160.808L377.573 160.148ZM375.941 153.896C375.413 155.732 374.345 157.304 372.941 158.168C373.181 158.36 373.421 158.66 373.565 158.876C374.657 158.12 375.545 157.016 376.157 155.684C376.841 156.956 377.849 158.144 378.821 158.804C378.977 158.564 379.265 158.24 379.481 158.072C378.365 157.448 377.177 156.08 376.541 154.808C376.625 154.592 376.697 154.376 376.757 154.148L375.941 153.896ZM386.505 164.156C388.065 164.156 389.325 163.22 389.325 161.648C389.325 160.448 388.497 159.656 387.465 159.416V159.368C388.389 159.02 389.025 158.312 389.025 157.244C389.025 155.852 387.945 155.036 386.469 155.036C385.449 155.036 384.669 155.48 384.009 156.092L384.597 156.788C385.089 156.284 385.713 155.936 386.421 155.936C387.333 155.936 387.909 156.488 387.909 157.328C387.909 158.276 387.285 159.008 385.473 159.008V159.848C387.501 159.848 388.209 160.556 388.209 161.6C388.209 162.62 387.465 163.244 386.421 163.244C385.425 163.244 384.753 162.776 384.237 162.236L383.685 162.956C384.261 163.58 385.125 164.156 386.505 164.156ZM391.593 164H392.601V159.128C392.601 158.372 392.517 157.304 392.469 156.536H392.517L393.213 158.54L394.881 163.112H395.625L397.293 158.54L397.989 156.536H398.037C397.977 157.304 397.893 158.372 397.893 159.128V164H398.937V155.192H397.593L395.913 159.908C395.709 160.52 395.517 161.132 395.313 161.744H395.253C395.037 161.132 394.833 160.52 394.629 159.908L392.937 155.192H391.593V164ZM401.731 164H404.539C406.507 164 407.875 163.148 407.875 161.42C407.875 160.22 407.131 159.524 406.087 159.32V159.26C406.903 158.996 407.371 158.228 407.371 157.352C407.371 155.804 406.135 155.192 404.347 155.192H401.731V164ZM402.847 158.948V156.08H404.203C405.571 156.08 406.279 156.464 406.279 157.496C406.279 158.384 405.667 158.948 404.155 158.948H402.847ZM402.847 163.112V159.788H404.383C405.919 159.788 406.783 160.292 406.783 161.384C406.783 162.572 405.895 163.112 404.383 163.112H402.847ZM422.618 156.62H418.466C418.358 155.96 418.286 155.252 418.25 154.496H415.334V155.288H417.494C417.518 155.756 417.566 156.2 417.626 156.62H413.258V164.912H414.146V157.496H417.266C416.858 159.38 415.874 160.676 414.266 161.456C414.458 161.624 414.734 161.96 414.866 162.164C416.462 161.348 417.446 160.016 417.95 158.18C418.466 159.98 419.39 161.324 420.962 162.104C421.106 161.864 421.394 161.516 421.586 161.324C420.014 160.652 419.114 159.332 418.658 157.496H421.718V163.748C421.718 163.94 421.67 164 421.454 164.012C421.214 164.024 420.47 164.024 419.69 164C419.822 164.24 419.954 164.648 419.99 164.9C421.01 164.9 421.694 164.9 422.102 164.756C422.498 164.6 422.618 164.312 422.618 163.748V156.62Z" fill="#A7A7A7"/>
<rect x="1" y="1" width="626" height="238" rx="3" stroke="#D3D3D3" stroke-width="2" stroke-dasharray="6 6"/>
<defs>
<clipPath id="clip0_1490_12044">
<rect width="40" height="40" fill="white" transform="translate(294.5 72)"/>
</clipPath>
</defs>
</svg>
