<svg width="43" height="67" viewBox="0 0 43 67" fill="none" xmlns="http://www.w3.org/2000/svg">
<path d="M36.0024 0H7.07477C3.39325 0 0.5 3.05873 0.5 6.95229V59.7878C0.5 63.6807 3.39264 66.7401 7.07477 66.7401H36.0024C39.6839 66.7401 42.5771 63.6813 42.5771 59.7878V6.95229C42.5771 3.05938 39.6845 0.0005164 36.0024 0.0005164V0ZM3.12976 9.73266H39.9474V52.8359H3.12976V9.73266ZM7.07465 2.78089H36.0023C38.2378 2.78089 39.9471 4.58842 39.9471 6.95229L3.12952 6.95178C3.12952 4.58843 4.8389 2.7809 7.0744 2.7809L7.07465 2.78089ZM39.9473 59.7879C39.9473 62.1518 38.2379 63.9593 36.0024 63.9593L7.07477 63.9588C4.83926 63.9588 3.12988 62.1513 3.12988 59.7874V55.616H39.9475L39.9473 59.7879Z" fill="#D11329"/>
</svg>
