<svg width="52" height="80" viewBox="0 0 52 80" fill="none" xmlns="http://www.w3.org/2000/svg">
<path d="M44.7406 56.7327H42.5926V57.2699C40.6052 51.0399 34.8053 46.7972 28.253 46.7972H27.179V42.3931C29.4882 41.8559 30.9383 39.5467 30.4016 37.2371C29.8643 34.9279 27.5551 33.4778 25.2456 34.0145C22.9364 34.5518 21.4862 36.861 22.023 39.1705C22.3991 40.6743 23.5268 41.9094 25.0305 42.3391V46.7971H23.9564C17.6189 46.7971 11.98 50.7714 9.83171 56.7327H7.68365C5.58911 56.7327 3.92432 58.3975 3.92432 60.4921V65.3254C3.92432 67.42 5.58911 69.0848 7.68365 69.0848H8.9188V72.5759C8.9188 76.1206 11.8187 79.0205 15.3634 79.0205H36.8459C40.3906 79.0205 43.2906 76.1206 43.2906 72.5759V69.0851H44.7407C46.8353 69.0851 48.5001 67.4204 48.5001 65.3258V60.4925C48.5001 58.3975 46.8353 56.7327 44.7407 56.7327L44.7406 56.7327ZM24.0637 38.204C24.0637 37.0225 25.0303 36.056 26.2118 36.056C27.3933 36.056 28.3599 37.0225 28.3599 38.204C28.3599 39.3856 27.3933 40.3521 26.2118 40.3521C25.0303 40.3521 24.0637 39.3856 24.0637 38.204ZM7.68337 66.9368C6.77041 66.9368 6.07208 66.2385 6.07208 65.3256V60.4922C6.07208 59.5792 6.77038 58.8809 7.68337 58.8809H9.24065C9.02599 59.8474 8.97204 60.868 8.97204 61.8349V66.9368H7.68337ZM33.0864 76.8725H27.1785V69.8906H30.9378C32.1194 69.8906 33.0859 70.8571 33.0859 72.0386L33.0864 76.8725ZM25.0305 76.8725H19.1226V72.0391C19.1226 70.8576 20.0891 69.8911 21.2706 69.8911H25.03L25.0305 76.8725ZM41.1423 72.5759C41.1423 74.9391 39.2089 76.8725 36.8457 76.8725H35.2344V72.0391C35.2344 69.676 33.301 67.7425 30.9378 67.7425H21.2707C18.9076 67.7425 16.9741 69.676 16.9741 72.0391V76.8725H15.3629C12.9997 76.8725 11.0663 74.9391 11.0663 72.5759L11.0667 61.8347C11.0667 54.6917 16.8134 48.9452 23.9561 48.9452H28.2527C35.3956 48.9452 41.1422 54.6919 41.1422 61.8347L41.1423 72.5759ZM46.3518 65.3254C46.3518 66.2383 45.6535 66.9367 44.7405 66.9367H43.2904V61.8347C43.2904 60.8681 43.1828 59.8476 42.9682 58.8807H44.687C45.5999 58.8807 46.2983 59.579 46.2983 60.492V65.3254H46.3518Z" fill="#D11329"/>
<path d="M20.3044 54.853C17.9412 54.853 16.0078 56.7864 16.0078 59.1496C16.0078 61.5128 17.9412 63.4462 20.3044 63.4462C22.6676 63.4462 24.601 61.5128 24.601 59.1496C24.601 56.7864 22.6676 54.853 20.3044 54.853ZM20.3044 61.2977C19.1229 61.2977 18.1563 60.3312 18.1563 59.1496C18.1563 57.9681 19.1229 57.0016 20.3044 57.0016C21.4859 57.0016 22.4525 57.9681 22.4525 59.1496C22.4528 60.3312 21.4859 61.2977 20.3044 61.2977Z" fill="#D11329"/>
<path d="M32.1193 54.853C29.7562 54.853 27.8228 56.7864 27.8228 59.1496C27.8228 61.5128 29.7562 63.4462 32.1193 63.4462C34.4825 63.4462 36.4159 61.5128 36.4159 59.1496C36.4156 56.7864 34.4821 54.853 32.1193 54.853ZM32.1193 61.2977C30.9378 61.2977 29.9713 60.3312 29.9713 59.1496C29.9713 57.9681 30.9378 57.0016 32.1193 57.0016C33.3009 57.0016 34.2674 57.9681 34.2674 59.1496C34.2674 60.3312 33.3009 61.2977 32.1193 61.2977Z" fill="#D11329"/>
<path d="M0.405391 -9.53674e-07H3.00539V11.8H10.3254V14H0.405391V-9.53674e-07ZM14.378 -9.53674e-07H16.978V14H14.378V-9.53674e-07ZM35.2048 -9.53674e-07V14H33.0648L25.3448 4.52V14H22.7648V-9.53674e-07H24.9048L32.6248 9.48V-9.53674e-07H35.2048ZM51.4562 11.82V14H40.9562V-9.53674e-07H51.1762V2.18H43.5562V5.82H50.3162V7.96H43.5562V11.82H51.4562Z" fill="#D11329"/>
</svg>
