<svg width="16" height="16" viewBox="0 0 16 16" fill="none" xmlns="http://www.w3.org/2000/svg">
<path fill-rule="evenodd" clip-rule="evenodd" d="M15.1681 12.6039C15.6381 13.4186 15.0481 14.4369 14.1094 14.4369H1.89011C0.949583 14.4369 0.362356 13.417 0.831435 12.6039L6.94117 2.01063C7.4114 1.19559 8.58913 1.19706 9.05852 2.01063L15.1681 12.6039ZM7.99984 10.4138C7.35296 10.4138 6.82855 10.9382 6.82855 11.5851C6.82855 12.232 7.35296 12.7564 7.99984 12.7564C8.64673 12.7564 9.17114 12.232 9.17114 11.5851C9.17114 10.9382 8.64673 10.4138 7.99984 10.4138ZM6.8878 6.20359L7.07668 9.66656C7.08552 9.8286 7.21951 9.95546 7.38178 9.95546H8.61791C8.78018 9.95546 8.91417 9.8286 8.923 9.66656L9.11189 6.20359C9.12144 6.02856 8.98208 5.88138 8.80679 5.88138H7.19287C7.01759 5.88138 6.87825 6.02856 6.8878 6.20359Z" fill="#EE415D"/>
</svg>
