<svg width="244" height="40" viewBox="0 0 244 40" fill="none" xmlns="http://www.w3.org/2000/svg">
<path d="M27.4683 0H35.211C35.211 0 39.8938 1.18143 40.3309 5.22662V19.6597L18.8568 5.22662H7.74276C7.74276 5.22662 5.30575 5.41173 5.18007 7.64938V11.4605C5.34827 12.2501 5.81867 12.9434 6.49146 13.3932L31.3424 30.3743H22.4085L2.98894 17.0627C2.98894 17.0627 0.180383 15.4294 0.180383 13.4531V5.90717C0.180383 5.90717 0.0547107 0.49544 5.98877 0H20.2556L35.4569 10.4532L35.3312 6.0324C35.3312 6.0324 33.692 3.17408 27.4629 0.250442" fill="#B72222"/>
<path d="M12.8626 40H5.1199C5.1199 40 0.437131 38.8186 0 34.7734V20.3403L21.4741 34.7734H32.5882C32.5882 34.7734 35.0252 34.5883 35.1508 32.3506V28.5395C34.9827 27.7499 34.5122 27.0566 33.8395 26.6068L8.98852 9.6257H17.9169L37.3365 22.9373C37.3365 22.9373 40.1451 24.5706 40.1451 26.5469V34.0765C40.1451 34.0765 40.2707 39.4882 34.3367 39.9837H20.0698L4.86855 29.5522L4.99424 33.9676C4.99424 33.9676 6.63348 36.8259 12.8626 39.7496" fill="#B72222"/>
<path d="M55.5703 15.081H57.9746L56.5976 17.5146C56.4569 17.7761 56.2432 17.9913 55.9824 18.1343C55.7215 18.2773 55.4247 18.3419 55.1277 18.3204H52.2427V16.6871H54.1988C54.332 16.6929 54.4641 16.6612 54.58 16.5958C54.696 16.5303 54.7911 16.4336 54.8545 16.3169L55.5703 15.081ZM69.5148 2.21586V3.99074H62.1546V5.35729H69.4329V8.77637H67.2855V7.14305H54.7179V8.77637H52.5705V5.35729H59.8542V3.99074H52.5705V2.21586H59.8542V0.827545H62.1546V2.21586H69.5148ZM59.9307 14.3079H54.1988V12.6746L55.6304 10.8997H54.7999V8.9887L56.7506 7.5786H59.2313L57.2751 9.21192H65.0288C65.1708 9.21192 65.2419 9.16836 65.2419 9.07581L64.8758 7.98693H66.8702L67.2745 8.9887C67.3146 9.05338 67.3407 9.12571 67.351 9.20103V10.0667C67.351 10.6111 66.9303 10.8997 66.0943 10.8997H58.1658L56.7506 12.533H65.7391C65.8921 12.533 65.9686 12.4894 65.9686 12.4023L65.5807 11.1447H67.5969L67.9849 12.3043C67.9849 12.3043 68.0231 12.4078 68.0614 12.533V13.4422C68.0614 14.0193 67.6406 14.3079 66.7991 14.3079H62.0016V18.8049H59.9307V14.3079ZM63.9578 15.081H66.3347L66.9194 16.3332C66.9803 16.4569 67.0781 16.5588 67.1994 16.625C67.3207 16.6913 67.4595 16.7187 67.5969 16.7034H69.9465V18.3367H66.362C66.1115 18.3179 65.8704 18.2335 65.6631 18.092C65.4559 17.9505 65.2898 17.757 65.1818 17.531L63.9578 15.081Z" fill="#231815"/>
<path d="M91.7267 1.26855V3.0652H83.8092V4.78564H88.1258L87.5466 3.60964H89.694L90.1421 4.44264C90.1832 4.53237 90.2521 4.60664 90.3386 4.65464C90.4251 4.70263 90.5247 4.72182 90.6229 4.70941H91.7158V6.23385H90.7869V17.9829C90.7869 18.5491 90.3935 18.8322 89.6066 18.8322H87.6122V17.3676H88.4646C88.6559 17.3676 88.7542 17.286 88.7542 17.1335V16.8831H87.4592L86.645 15.9412L85.3446 17.5745H83.7982V18.8267H81.8803V17.6508H80.2411L79.3887 16.3768L78.3778 17.6508H76.9844V18.8267H74.9736V6.30462H73.7114V4.78564H74.4272C74.5254 4.78917 74.6224 4.76365 74.7061 4.7123C74.7897 4.66094 74.8562 4.58605 74.8971 4.49708L75.4162 3.60964H77.6019L76.9571 4.78564H81.8748V3.09243H73.8972V1.29577L91.7267 1.26855ZM81.8912 7.46428V6.45707H77.0118V11.8634L78.7002 9.6856L77.1484 7.46973H79.0062L79.6673 8.41161L80.3995 7.46973L81.8912 7.46428ZM77.0118 17.0301L78.5636 15.0647L77.0118 12.7453V17.0301ZM79.6291 13.7308L80.7219 12.3261H80.5689L79.6182 10.9705L78.9078 11.8634C78.7956 11.962 78.7221 12.097 78.7002 12.2445C78.7344 12.4148 78.8202 12.5707 78.9461 12.6909L79.6291 13.7308ZM81.8912 17.1825V13.1918L80.4596 15.0048L81.8912 17.1825ZM81.8912 11.5694V8.05228L80.5744 9.72915L81.8912 11.5694ZM83.8092 6.45707V11.8634L85.5905 9.62026L84.0387 7.4425H85.8418L86.5194 8.40616L87.2953 7.4425H88.7651V6.43529L83.8092 6.45707ZM83.8092 12.6147V17.09L85.6287 14.7543L83.8474 12.6691C83.8373 12.6493 83.8244 12.6309 83.8092 12.6147ZM86.4975 10.8779L85.7435 11.8634C85.6231 11.9585 85.5416 12.0939 85.514 12.2445C85.514 12.337 85.6123 12.4622 85.8036 12.631L86.5795 13.5402L87.5466 12.3261L86.4975 10.8779ZM88.7651 8.05772L87.4483 9.69104L88.7651 11.5258V8.05772ZM88.7651 13.2081L87.5849 14.7326L88.7651 16.1263V13.2081Z" fill="#231815"/>
<path d="M97.2673 15.081H99.4529L98.3601 17.629C98.2903 17.8761 98.1405 18.0934 97.934 18.247C97.7274 18.4006 97.4758 18.4819 97.2181 18.4783H95.5789V16.845H96.4258C96.6225 16.845 96.7646 16.7089 96.852 16.4421L97.2673 15.081ZM104.704 2.01444V3.71309H103.715V12.4241H105.19V14.2752H95.7045V12.4241H96.9613V3.71309H95.934V2.06343H96.9613V0.903778H98.9065V2.06343H101.792V0.903778H103.726V2.06343L104.704 2.01444ZM98.9065 5.60774H101.792V3.74031H98.9065V5.60774ZM98.9065 9.08126H101.792V7.23017H98.9065V9.08126ZM98.9065 12.4568H101.792V10.6275H98.9065V12.4568ZM101.016 15.081H103.169L103.715 16.6435C103.781 16.8504 103.879 16.9539 104.021 16.9539H104.507V16.0065H105.207C105.606 16.0065 105.802 15.9303 105.802 15.7779V1.96543H110.605C110.982 1.96543 111.152 1.65511 111.152 1.03989H113.223V2.12877C113.223 3.18498 112.629 3.71309 111.441 3.71309H107.742V6.58773H113.55V8.34083H111.846V18.7777H109.813V8.36805H107.742V16.257C107.742 17.3459 107.052 17.8903 105.671 17.8903H104.857V18.4892H103.218C102.939 18.5189 102.658 18.4531 102.422 18.3027C102.185 18.1523 102.008 17.9262 101.917 17.6616L101.016 15.081Z" fill="#231815"/>
<path d="M118.288 8.59669H119.834L119.392 16.7633C119.399 17.1978 119.254 17.6213 118.982 17.9611C118.852 18.0912 118.698 18.1944 118.529 18.2645C118.359 18.3346 118.177 18.3703 117.993 18.3694H117.299V16.6707H117.435C117.703 16.6707 117.851 16.4584 117.862 16.0337L118.288 8.59669ZM123.32 1.18686H125.102C125.118 1.84933 124.95 2.50338 124.615 3.07607C124.478 3.24359 124.303 3.37634 124.105 3.46341C123.906 3.55048 123.69 3.58939 123.473 3.57696H122.255V5.44983H125.276V7.14848H122.255V18.7995H120.397V7.14848H117.588V5.44983H120.397V3.57696H117.84V1.94364H122.801C123.042 1.96541 123.217 1.70953 123.32 1.19231V1.18686ZM122.544 8.67291H124.096L124.79 16.2515C124.845 16.6 124.971 16.796 125.178 16.796H125.588V18.3367H124.249C123.67 18.3367 123.331 17.9066 123.244 17.0464L122.544 8.67291ZM135.347 13.3769V15.228L133.708 15.326V18.7233H131.522V15.424L125.511 15.6907V13.8614L131.522 13.5511V1.11609H133.708V13.464L135.347 13.3769ZM125.719 1.94364H127.905L128.599 3.89273C128.653 4.18673 128.801 4.33373 129.047 4.33373H130.462V6.18482H127.981C127.685 6.20219 127.392 6.10942 127.16 5.92442C126.928 5.73941 126.773 5.4753 126.724 5.18306L125.719 1.94364ZM125.878 7.28459H128.063L128.686 9.19557C128.735 9.51679 128.883 9.68013 129.129 9.68013H130.385V11.5312H128.063C127.766 11.5472 127.473 11.4532 127.241 11.2673C127.009 11.0814 126.855 10.8167 126.806 10.524L125.878 7.28459Z" fill="#231815"/>
<path d="M146.39 2.81475V4.68218H144.434V7.30638H146.073V9.14115H144.434V16.7034C144.447 17.1958 144.265 17.6734 143.926 18.0319C143.769 18.1864 143.582 18.306 143.375 18.383C143.169 18.4599 142.949 18.4924 142.729 18.4783H140.095V16.7034H142.029C142.303 16.7034 142.439 16.4203 142.439 15.8541V12.533L141.893 14.0193C141.66 14.5856 141.376 14.8687 141.04 14.8687H139.494V13.0938H140.112C140.461 13.0938 140.713 12.8488 140.866 12.3642L142.456 8.1176V4.68218H139.822V2.81475H142.456V1.18143H144.45V2.81475H146.39ZM156.772 3.29386V5.12862H152.892V7.50783H156.744V9.43515L152.92 14.8033L154.154 16.2461C154.249 16.3755 154.371 16.4827 154.511 16.5598C154.652 16.637 154.808 16.6823 154.969 16.6925H156.908V18.4674H153.75C153.524 18.4659 153.302 18.4126 153.1 18.3116C152.898 18.2106 152.722 18.0645 152.586 17.8849L151.603 16.6163L150.827 17.7052C150.622 17.9663 150.356 18.1734 150.052 18.3082C149.748 18.443 149.416 18.5014 149.084 18.4783H146.062V16.7034H148.084C148.306 16.7198 148.53 16.6829 148.735 16.5957C148.94 16.5086 149.122 16.3738 149.264 16.2025L150.237 14.9285L147.078 10.916H149.559L151.532 13.2081L154.417 9.39703H146.991V7.50783H150.816V5.11774H147.193V3.28297H150.816V1.02899H152.925V3.28297L156.772 3.29386Z" fill="#231815"/>
<path d="M178.885 2.60787V4.45897H167.41L166.536 6.00518H178.175V17.0573C178.175 18.0772 177.523 18.5854 176.219 18.5817H169.897V16.7633H175.475C175.825 16.7633 176.022 16.6435 176.022 16.3985V15.0647H165.465V18.7886H163.318V10.0776H161.132V8.01416H162.771C163.055 8.01416 163.285 7.81272 163.465 7.41528L165.055 4.44264H161.476V2.60787H166.044L166.875 1.06711H169.356L168.465 2.60787H178.885ZM165.465 9.68559H176V7.81272H165.487L165.465 9.68559ZM165.465 13.2898H176V11.455H165.465V13.2898Z" fill="#231815"/>
<path d="M185.415 17.629V18.6525H183.344V1.519H189.387V8.29183C189.383 8.52276 189.302 8.74576 189.158 8.92669C189.014 9.10762 188.814 9.2365 188.59 9.2936C188.82 9.39493 189.017 9.55905 189.158 9.76709C189.3 9.97513 189.379 10.2186 189.387 10.4696V16.4911C189.387 17.2098 188.939 17.58 188.049 17.629H185.415ZM185.415 3.29388V8.44428H186.879C187.196 8.44428 187.36 8.3245 187.36 8.0795V3.29388H185.415ZM185.415 10.2192V15.8541H187.12C187.289 15.8541 187.371 15.7071 187.371 15.4077V10.5458C187.371 10.328 187.142 10.2192 186.677 10.2192H185.415ZM199.917 1.44278V9.44604C199.917 10.132 199.496 10.4696 198.66 10.4696H193.005V16.1808C193.005 16.3877 193.141 16.4911 193.414 16.4911H195.409V18.3204H192.076C191.262 18.3204 190.857 17.9665 190.857 17.2315V1.44278H199.917ZM193.005 4.9163V5.12864H197.731V3.21765H193.005V4.9163ZM193.005 6.82729V8.67839H197.441C197.633 8.67839 197.731 8.57494 197.731 8.36806V6.82729H193.005ZM198.507 11.2427H200.54L199.496 14.1173C199.288 14.7598 198.917 15.081 198.403 15.081H197.704L198.07 16.4911C198.099 16.5939 198.16 16.6847 198.245 16.7503C198.329 16.8159 198.433 16.8529 198.54 16.8559H200.802V18.4892H197.551C197.221 18.4834 196.904 18.3683 196.647 18.1622C196.391 17.9561 196.211 17.6708 196.136 17.3513L194.496 11.5639H196.764L197.31 13.6273H197.6C197.789 13.6273 197.931 13.4459 198.026 13.0829L198.507 11.2427Z" fill="#231815"/>
<path d="M208.233 1.59522H210.419L209.397 7.5405C209.124 8.92701 208.459 9.62027 207.403 9.62027H204.998V7.59495H206.725C206.982 7.59495 207.195 7.26284 207.364 6.59318L208.233 1.59522ZM211.965 6.6694H214.369L209.282 16.3332H218.948C218.79 16.3332 218.713 16.2243 218.713 16.0065L217.834 11.8634H220.019L221.156 16.5728C221.165 17.031 221.025 17.48 220.757 17.8522C220.516 18.0857 220.201 18.2282 219.866 18.2551H206.703V16.8668C206.726 16.3936 206.857 15.9319 207.086 15.5166L211.965 6.6694ZM211.561 1.44278H218.626C218.806 1.44278 218.987 1.75311 219.172 2.36833L220.407 6.72385C220.587 7.42073 220.746 7.76917 220.872 7.76917H222.576V9.6366H219.172C218.965 9.6366 218.768 9.28271 218.588 8.58039L217.156 3.8492C217.041 3.44087 216.91 3.23399 216.768 3.23399H211.561V1.44278Z" fill="#231815"/>
<path d="M226.707 1.59521H243.75V16.7633C243.75 17.8957 243.085 18.462 241.756 18.462H239.275V16.6109H240.974C241.318 16.6109 241.521 16.4856 241.521 16.2406V3.58242H226.707V1.59521ZM239.952 5.3573V7.38261H227.041V5.3573H239.952ZM227.385 9.29359H238.925V15.4893C238.925 16.4639 238.406 16.9539 237.373 16.9539H227.407L227.385 9.29359ZM236.231 15.0048C236.306 15.0183 236.383 15.0136 236.455 14.991C236.528 14.9685 236.594 14.9287 236.648 14.8752C236.701 14.8217 236.741 14.756 236.764 14.6837C236.787 14.6115 236.791 14.5348 236.778 14.4603V11.1937H229.592V14.9558L236.231 15.0048Z" fill="#231815"/>
<path d="M53.4447 38.5409V36.3632C53.6589 36.5512 53.8957 36.7121 54.1496 36.8423C54.4273 36.9903 54.7181 37.1124 55.0184 37.207C55.3172 37.303 55.622 37.3794 55.9309 37.4357C56.2103 37.4876 56.4936 37.5149 56.7778 37.5174C57.4762 37.5654 58.1735 37.4083 58.7832 37.0655C58.9974 36.9259 59.1712 36.7328 59.2872 36.5055C59.4032 36.2781 59.4574 36.0244 59.4443 35.7697C59.4521 35.4907 59.376 35.2158 59.2258 34.9803C59.0636 34.7359 58.8536 34.5267 58.6083 34.3651C58.3148 34.1576 58.004 33.9754 57.6794 33.8206L56.5374 33.2762C56.1003 33.0475 55.6905 32.808 55.3134 32.5684C54.9541 32.3468 54.6237 32.0816 54.3299 31.779C54.0535 31.4946 53.8314 31.1625 53.6742 30.799C53.5067 30.3935 53.4248 29.958 53.4338 29.5195C53.4201 28.9672 53.5621 28.4221 53.8436 27.9461C54.1212 27.506 54.4947 27.1339 54.9364 26.8572C55.4019 26.5576 55.9157 26.3402 56.4554 26.2148C57.0255 26.0732 57.6109 26.0019 58.1985 26.0025C59.2018 25.9423 60.2063 26.0983 61.1437 26.4598V28.5613C60.3114 28.0079 59.3238 27.7333 58.3242 27.7773C58.007 27.7764 57.6905 27.8055 57.3789 27.8644C57.0829 27.9177 56.7971 28.0169 56.5319 28.1584C56.2926 28.294 56.0856 28.4798 55.9254 28.7029C55.7667 28.9312 55.6844 29.2037 55.6905 29.4814C55.6838 29.7415 55.7459 29.9988 55.8708 30.2273C56.0111 30.4536 56.1972 30.6483 56.4172 30.799C56.6807 30.9943 56.9625 31.1639 57.2587 31.3053C57.592 31.4686 57.9745 31.6483 58.4116 31.8498C58.8484 32.0708 59.2733 32.3143 59.6847 32.5793C60.0652 32.8246 60.417 33.1113 60.7339 33.4341C61.0333 33.7341 61.2774 34.0842 61.4551 34.4685C61.6363 34.8743 61.7259 35.3148 61.7174 35.7588C61.7332 36.3283 61.5975 36.8918 61.324 37.3921C61.0642 37.837 60.6982 38.211 60.2585 38.481C59.7772 38.7763 59.2457 38.9811 58.6903 39.0854C58.0851 39.2143 57.4677 39.2782 56.8488 39.2759C56.5841 39.2729 56.3196 39.2566 56.0565 39.2269C55.7396 39.1888 55.4172 39.1452 55.0894 39.0799C54.7735 39.023 54.4615 38.9466 54.155 38.8513C53.905 38.7809 53.666 38.6765 53.4447 38.5409Z" fill="#5C5D5D"/>
<path d="M69.7388 39.2813C69.1141 39.311 68.49 39.2122 67.9053 38.9912C67.3206 38.7701 66.7878 38.4315 66.3401 37.9965C65.9092 37.5426 65.5744 37.0069 65.3557 36.4214C65.1369 35.8358 65.0387 35.2124 65.0669 34.5883C65.0094 33.9304 65.0971 33.2679 65.3239 32.6474C65.5507 32.0269 65.9111 31.4633 66.3797 30.9964C66.8484 30.5294 67.414 30.1703 68.0367 29.9444C68.6595 29.7184 69.3244 29.631 69.9847 29.6883C70.6024 29.6521 71.2208 29.7459 71.7998 29.9635C72.3788 30.1811 72.9053 30.5177 73.3451 30.9514C74.1916 31.9161 74.625 33.1728 74.5527 34.4522C74.582 35.0943 74.482 35.7359 74.2587 36.3389C74.0353 36.942 73.6931 37.4945 73.2522 37.9638C72.7905 38.4144 72.2396 38.7642 71.6347 38.9911C71.0298 39.2179 70.3841 39.3168 69.7388 39.2813ZM69.8371 31.338C69.4717 31.3217 69.1074 31.3899 68.7728 31.5372C68.4381 31.6846 68.1423 31.9071 67.9083 32.1873C67.4003 32.8611 67.1486 33.6925 67.198 34.5338C67.151 35.3522 67.4056 36.1595 67.9138 36.8041C68.1519 37.0765 68.4483 37.2922 68.7812 37.4354C69.114 37.5787 69.4749 37.6457 69.8371 37.6317C70.1944 37.6527 70.5517 37.5897 70.8801 37.4479C71.2085 37.306 71.4989 37.0892 71.7277 36.815C72.2101 36.1431 72.4437 35.3254 72.3889 34.5012C72.4433 33.6685 72.21 32.8423 71.7277 32.1601C71.4991 31.8852 71.209 31.6676 70.8806 31.5248C70.5523 31.3821 70.1948 31.3181 69.8371 31.338Z" fill="#5C5D5D"/>
<path d="M86.5084 39.0853H84.4265V37.6153H84.3883C84.1323 38.1365 83.7291 38.5718 83.2282 38.8678C82.7273 39.1638 82.1505 39.3075 81.5688 39.2813C79.3831 39.2813 78.2903 37.9801 78.2903 35.3777V29.9006H80.3776V35.1599C80.3776 36.7932 81.0114 37.6317 82.29 37.6317C82.5789 37.6382 82.8656 37.5805 83.1293 37.4628C83.393 37.345 83.6271 37.1703 83.8145 36.9511C84.2265 36.4511 84.4386 35.8171 84.4101 35.1708V29.9006H86.492L86.5084 39.0853Z" fill="#5C5D5D"/>
<path d="M96.3985 31.877C96.0776 31.6598 95.6927 31.5562 95.3057 31.583C94.999 31.5843 94.6975 31.661 94.4277 31.8063C94.158 31.9516 93.9284 32.161 93.7593 32.4159C93.315 33.0833 93.0985 33.8757 93.1419 34.6754V39.0853H91.0601V29.9006H93.1419V31.7844H93.1801C93.3438 31.2045 93.6675 30.6819 94.1145 30.2763C94.5035 29.9284 95.007 29.7347 95.5297 29.7319C95.8272 29.7139 96.1244 29.772 96.3931 29.9006L96.3985 31.877Z" fill="#5C5D5D"/>
<path d="M106.299 38.6444C105.499 39.0845 104.596 39.3043 103.682 39.2813C103.077 39.3023 102.474 39.1996 101.91 38.9795C101.346 38.7595 100.833 38.4268 100.404 38.0019C99.982 37.5634 99.6534 37.0448 99.4375 36.477C99.2215 35.9092 99.1227 35.3039 99.1468 34.6972C99.1156 34.0309 99.219 33.3653 99.4508 32.7396C99.6826 32.114 100.038 31.541 100.496 31.0549C100.972 30.5906 101.539 30.2291 102.161 29.993C102.784 29.7569 103.448 29.6514 104.114 29.6829C104.877 29.667 105.634 29.8175 106.332 30.1239V32.0566C105.748 31.5969 105.027 31.3441 104.283 31.338C103.876 31.3223 103.47 31.3938 103.093 31.5479C102.716 31.7019 102.376 31.9348 102.097 32.2309C101.521 32.8674 101.219 33.7044 101.256 34.5611C101.21 35.3856 101.495 36.1944 102.048 36.8096C102.327 37.0879 102.661 37.3049 103.029 37.4465C103.397 37.5881 103.791 37.6512 104.185 37.6317C104.963 37.6196 105.712 37.3387 106.305 36.8368L106.299 38.6444Z" fill="#5C5D5D"/>
<path d="M117.993 35.0456H111.72C111.71 35.4085 111.774 35.7697 111.909 36.1068C112.045 36.4439 112.248 36.7498 112.507 37.0056C113.081 37.4902 113.82 37.7375 114.572 37.697C115.544 37.6994 116.49 37.3901 117.271 36.815V38.4919C116.26 39.0602 115.109 39.3338 113.949 39.2813C113.359 39.3128 112.769 39.2172 112.219 39.0011C111.67 38.7851 111.173 38.4535 110.764 38.0291C109.942 37.0488 109.53 35.7919 109.611 34.5175C109.561 33.2347 110.018 31.9835 110.884 31.0331C111.283 30.5964 111.771 30.25 112.316 30.0172C112.861 29.7843 113.449 29.6703 114.042 29.6829C114.587 29.6583 115.13 29.7567 115.632 29.9707C116.133 30.1847 116.58 30.5088 116.938 30.9187C117.677 31.8782 118.043 33.0709 117.971 34.2779L117.993 35.0456ZM115.982 33.5756C116.006 32.9495 115.813 32.3342 115.435 31.8334C115.259 31.6277 115.038 31.4648 114.789 31.3572C114.54 31.2497 114.269 31.2002 113.998 31.2127C113.712 31.208 113.428 31.2637 113.166 31.3764C112.903 31.489 112.667 31.6559 112.474 31.8661C112.041 32.3399 111.771 32.9387 111.703 33.5756H115.982Z" fill="#5C5D5D"/>
<path d="M128.358 38.5409V36.3632C128.573 36.5512 128.809 36.7121 129.063 36.8423C129.339 36.9902 129.628 37.1123 129.927 37.207C130.227 37.3037 130.534 37.3801 130.844 37.4357C131.124 37.4878 131.407 37.5151 131.691 37.5174C132.39 37.5644 133.087 37.4074 133.697 37.0655C133.911 36.9259 134.085 36.7328 134.201 36.5055C134.317 36.2781 134.371 36.0244 134.358 35.7697C134.363 35.4911 134.287 35.2169 134.139 34.9803C133.975 34.7376 133.765 34.5287 133.522 34.3651C133.228 34.1576 132.918 33.9754 132.593 33.8206L131.446 33.2762C131.008 33.0475 130.604 32.808 130.227 32.5684C129.866 32.3495 129.535 32.0841 129.243 31.779C128.968 31.4931 128.744 31.1615 128.582 30.799C128.417 30.3931 128.337 29.9576 128.347 29.5195C128.334 28.9672 128.476 28.4221 128.757 27.9461C129.034 27.5057 129.408 27.1334 129.85 26.8572C130.318 26.5588 130.834 26.3416 131.374 26.2148C131.945 26.0729 132.53 26.0016 133.118 26.0025C134.121 25.9433 135.125 26.0993 136.063 26.4598V28.5613C135.23 28.0093 134.243 27.7348 133.243 27.7773C132.924 27.7766 132.606 27.8058 132.292 27.8644C131.998 27.9176 131.714 28.0168 131.451 28.1584C131.209 28.291 131.002 28.4773 130.844 28.7029C130.683 28.93 130.601 29.2034 130.61 29.4814C130.603 29.7415 130.665 29.9988 130.79 30.2273C130.931 30.4527 131.117 30.6472 131.336 30.799C131.602 30.9943 131.885 31.1639 132.183 31.3053C132.511 31.4686 132.899 31.6483 133.336 31.8498C133.771 32.0708 134.194 32.3143 134.604 32.5793C134.985 32.826 135.338 33.1125 135.658 33.4341C135.954 33.7357 136.196 34.0856 136.374 34.4685C136.56 34.8731 136.651 35.3141 136.642 35.7588C136.667 36.3014 136.545 36.8408 136.288 37.3199C136.032 37.7991 135.65 38.2002 135.183 38.481C134.697 38.7757 134.162 38.9804 133.604 39.0854C132.999 39.2136 132.381 39.2775 131.762 39.2759C131.496 39.273 131.23 39.2566 130.965 39.2269C130.653 39.1888 130.331 39.1452 129.998 39.0799C129.682 39.023 129.37 38.9466 129.063 38.8513C128.815 38.781 128.578 38.6766 128.358 38.5409Z" fill="#5C5D5D"/>
<path d="M144.652 39.2813C144.027 39.3108 143.402 39.2119 142.816 38.9909C142.231 38.7699 141.697 38.4314 141.248 37.9965C140.818 37.5423 140.484 37.0065 140.266 36.4209C140.048 35.8353 139.951 35.2121 139.98 34.5883C139.922 33.9302 140.009 33.2673 140.235 32.6463C140.462 32.0253 140.822 31.4614 141.291 30.9942C141.76 30.527 142.326 30.168 142.949 29.9424C143.572 29.7167 144.238 29.63 144.898 29.6883C145.516 29.6521 146.134 29.7459 146.713 29.9635C147.292 30.1811 147.819 30.5177 148.259 30.9514C149.106 31.9152 149.538 33.1731 149.461 34.4522C149.491 35.0945 149.392 35.7363 149.168 36.3396C148.945 36.9429 148.602 37.4952 148.16 37.9638C147.699 38.414 147.149 38.7636 146.545 38.9904C145.941 39.2173 145.297 39.3163 144.652 39.2813ZM144.751 31.338C144.384 31.3221 144.019 31.3905 143.684 31.5377C143.349 31.685 143.052 31.9073 142.816 32.1873C142.311 32.8623 142.059 33.6929 142.106 34.5338C142.058 35.3532 142.315 36.1615 142.827 36.8041C143.065 37.0765 143.362 37.2922 143.695 37.4354C144.027 37.5786 144.388 37.6457 144.751 37.6317C145.108 37.6523 145.465 37.5891 145.793 37.4473C146.122 37.3054 146.412 37.0889 146.641 36.815C147.121 36.142 147.354 35.3251 147.302 34.5012C147.354 33.6687 147.121 32.8434 146.641 32.1601C146.412 31.8855 146.122 31.6682 145.794 31.5254C145.465 31.3827 145.108 31.3185 144.751 31.338Z" fill="#5C5D5D"/>
<path d="M155.493 39.0853H153.4V25.4743H155.493V39.0853Z" fill="#5C5D5D"/>
<path d="M168.066 39.0853H165.984V37.6153H165.946C165.689 38.1356 165.286 38.5702 164.785 38.866C164.284 39.1618 163.708 39.3061 163.127 39.2813C160.941 39.2813 159.848 37.9801 159.848 35.3777V29.9006H161.935V35.1599C161.935 36.7932 162.569 37.6317 163.848 37.6317C164.136 37.6389 164.422 37.5815 164.685 37.4637C164.948 37.3459 165.181 37.1707 165.367 36.9511C165.783 36.4532 165.998 35.8182 165.968 35.1708V29.9006H168.05L168.066 39.0853Z" fill="#5C5D5D"/>
<path d="M177.47 38.9656C176.965 39.1882 176.415 39.2925 175.864 39.2704C174.079 39.2704 173.186 38.4175 173.186 36.7116V31.5285H171.651V29.8952H173.186V27.7719L175.268 27.1784V29.9006H177.454V31.534H175.268V36.1181C175.232 36.5276 175.338 36.9369 175.568 37.2778C175.697 37.4053 175.853 37.5027 176.024 37.5629C176.195 37.6232 176.377 37.6448 176.557 37.6262C176.888 37.6349 177.211 37.5269 177.47 37.3213V38.9656Z" fill="#5C5D5D"/>
<path d="M182.158 27.9733C181.834 27.9806 181.521 27.8614 181.284 27.6412C181.165 27.5363 181.071 27.4069 181.008 27.2621C180.945 27.1174 180.914 26.9606 180.918 26.8028C180.912 26.6422 180.941 26.4823 181.005 26.3345C181.068 26.1867 181.163 26.0547 181.284 25.948C181.52 25.7263 181.834 25.6052 182.158 25.6105C182.491 25.6027 182.814 25.7237 183.06 25.948C183.178 26.0568 183.271 26.1892 183.334 26.3365C183.397 26.4838 183.429 26.6427 183.426 26.8028C183.43 26.9629 183.399 27.122 183.335 27.2688C183.271 27.4156 183.175 27.5465 183.054 27.6521C182.808 27.8707 182.487 27.9858 182.158 27.9733ZM183.191 39.0853H181.109V29.9006H183.191V39.0853Z" fill="#5C5D5D"/>
<path d="M191.835 39.2813C191.21 39.3108 190.585 39.2119 189.999 38.9909C189.414 38.7699 188.88 38.4314 188.431 37.9965C188.001 37.5423 187.667 37.0065 187.449 36.4209C187.231 35.8353 187.134 35.2121 187.163 34.5883C187.124 33.9284 187.221 33.2675 187.448 32.6466C187.676 32.0257 188.029 31.4579 188.486 30.9786C188.965 30.5371 189.528 30.1951 190.142 29.9726C190.755 29.7502 191.407 29.6517 192.059 29.6829C192.677 29.6467 193.295 29.7405 193.874 29.9581C194.453 30.1757 194.98 30.5123 195.42 30.946C196.264 31.9115 196.696 33.1681 196.622 34.4467C196.652 35.089 196.553 35.7309 196.33 36.3341C196.106 36.9374 195.763 37.4898 195.321 37.9583C194.863 38.4067 194.317 38.7557 193.717 38.9834C193.117 39.2111 192.477 39.3126 191.835 39.2813ZM191.934 31.338C191.567 31.3221 191.202 31.3905 190.867 31.5377C190.532 31.685 190.235 31.9073 189.999 32.1873C189.494 32.8624 189.242 33.6929 189.289 34.5338C189.241 35.3532 189.498 36.1615 190.01 36.8041C190.248 37.0771 190.544 37.2933 190.877 37.4365C191.21 37.5798 191.571 37.6465 191.934 37.6317C192.291 37.6523 192.648 37.5891 192.976 37.4473C193.305 37.3054 193.595 37.0889 193.824 36.815C194.304 36.142 194.537 35.3251 194.485 34.5012C194.537 33.6687 194.304 32.8434 193.824 32.1601C193.595 31.8855 193.305 31.6682 192.977 31.5254C192.649 31.3827 192.291 31.3185 191.934 31.338Z" fill="#5C5D5D"/>
<path d="M208.774 39.0853H206.687V33.9186C206.687 32.2091 206.08 31.3543 204.867 31.3543C204.569 31.3476 204.272 31.4078 204 31.5302C203.727 31.6527 203.486 31.8345 203.294 32.0621C202.87 32.5634 202.65 33.2041 202.676 33.8587V39.0853H200.578V29.9006H202.676V31.4196H202.725C203.011 30.8821 203.442 30.4347 203.969 30.1278C204.496 29.821 205.098 29.6669 205.709 29.6829C206.14 29.6567 206.571 29.7306 206.968 29.8988C207.365 30.0669 207.718 30.3248 207.998 30.652C208.579 31.4698 208.858 32.4619 208.79 33.4613L208.774 39.0853Z" fill="#5C5D5D"/>
</svg>
