<svg width="18" height="14" viewBox="0 0 18 14" fill="none" xmlns="http://www.w3.org/2000/svg">
<path d="M2.33335 0.333008C1.41252 0.333008 0.666687 1.07884 0.666687 1.99967V3.44336L1.50002 3.96582L2.33335 4.48828L9.00002 8.66634L15.6667 4.51595L16.5 3.99674L17.3334 3.47917V1.99967C17.3334 1.07884 16.5875 0.333008 15.6667 0.333008H2.33335ZM2.33335 1.99967H15.6667V2.64095L9.00002 6.78971L2.33335 2.61165V1.99967ZM0.666687 5.4095V11.9997C0.666687 12.9205 1.41252 13.6663 2.33335 13.6663H15.6667C16.5875 13.6663 17.3334 12.9205 17.3334 11.9997V5.44206L15.6667 6.47884V11.9997H2.33335V6.45443L0.666687 5.4095Z" fill="#7C7C7C"/>
</svg>
