<svg width="20" height="20" viewBox="0 0 20 20" fill="none" xmlns="http://www.w3.org/2000/svg">
<path d="M4.16667 2.5C3.25578 2.5 2.5 3.25578 2.5 4.16667V15.8333C2.5 16.7442 3.25578 17.5 4.16667 17.5H15.8333C16.7442 17.5 17.5 16.7442 17.5 15.8333V4.16667C17.5 3.25578 16.7442 2.5 15.8333 2.5H4.16667ZM4.16667 4.16667H15.8333V7.5H4.16667V4.16667ZM5.83333 5C5.61232 5 5.40036 5.0878 5.24408 5.24408C5.0878 5.40036 5 5.61232 5 5.83333C5 6.05435 5.0878 6.26631 5.24408 6.42259C5.40036 6.57887 5.61232 6.66667 5.83333 6.66667C6.05435 6.66667 6.26631 6.57887 6.42259 6.42259C6.57887 6.26631 6.66667 6.05435 6.66667 5.83333C6.66667 5.61232 6.57887 5.40036 6.42259 5.24408C6.26631 5.0878 6.05435 5 5.83333 5ZM8.33333 5C8.11232 5 7.90036 5.0878 7.74408 5.24408C7.5878 5.40036 7.5 5.61232 7.5 5.83333C7.5 6.05435 7.5878 6.26631 7.74408 6.42259C7.90036 6.57887 8.11232 6.66667 8.33333 6.66667C8.55435 6.66667 8.76631 6.57887 8.92259 6.42259C9.07887 6.26631 9.16667 6.05435 9.16667 5.83333C9.16667 5.61232 9.07887 5.40036 8.92259 5.24408C8.76631 5.0878 8.55435 5 8.33333 5ZM10.8333 5V6.66667H14.1667V5H10.8333ZM4.16667 9.16667H6.66667V15.8333H4.16667V9.16667ZM8.33333 9.16667H15.8333V15.8333H8.33333V9.16667ZM10 10V11.6667H14.1667V10H10ZM10 12.5V14.1667H14.1667V12.5H10Z" fill="#7C7C7C"/>
</svg>
