<svg width="30" height="25" viewBox="0 0 30 25" fill="none"
     xmlns="http://www.w3.org/2000/svg">
    <path d="M24.7512 16.1487L23.297 14.2229C22.8545 13.6486 22.6016 12.9053 22.6016 12.1621V10.0676C22.6016 6.82419 20.7997 3.9189 18.0496 2.63512V2.53379C18.0496 1.14859 16.9749 0 15.6789 0H14.3512C13.0551 0 11.9804 1.14859 11.9804 2.53379V2.63512C9.23037 3.91896 7.42868 6.79047 7.42868 10.0676V12.1621C7.42868 12.9053 7.17577 13.6486 6.73325 14.2229L5.27906 16.1487C4.6469 16.9933 4.52035 18.1082 4.93133 19.0878C5.37387 20.0674 6.25897 20.6757 7.27056 20.6757H10.4632C10.7476 23.1081 12.6758 25 15.0151 25C17.3544 25 19.2827 23.1082 19.5353 20.6757H22.7279C23.7396 20.6757 24.6562 20.0677 25.0672 19.0878C25.5099 18.1082 25.3834 16.9596 24.7512 16.1487H24.7512ZM15.0152 22.973C13.7191 22.973 12.6444 21.9934 12.423 20.6759H17.6386C17.386 21.9932 16.3112 22.973 15.0151 22.973H15.0152ZM23.3604 18.2095C23.2971 18.3445 23.139 18.6487 22.7282 18.6487H7.3023C6.89129 18.6487 6.73342 18.3447 6.67014 18.2095C6.60686 18.0744 6.51205 17.7365 6.76496 17.3986L8.21915 15.4728C8.94614 14.5268 9.32563 13.3443 9.32563 12.1281V10.0336C9.32563 7.39845 10.9062 5.06737 13.2454 4.25644C13.6246 4.12141 13.9093 3.71584 13.9093 3.27683V2.46596C13.9093 2.19566 14.1307 1.9593 14.3834 1.9593H15.711C15.9639 1.9593 16.1851 2.1959 16.1851 2.46596V3.27683C16.1851 3.71609 16.438 4.0877 16.849 4.25644C19.1248 5.10128 20.7053 7.43242 20.7053 10.0675V12.162C20.7053 13.3782 21.1163 14.5608 21.8118 15.5067L23.266 17.4325C23.5502 17.7365 23.4238 18.0742 23.3606 18.2095H23.3604Z"
          fill="#B62122"/>
    <path d="M1.89675 10.2022C1.89675 8.85101 2.24447 7.5671 2.93989 6.45224C3.22434 5.97927 3.09799 5.37103 2.65545 5.03331C2.21291 4.72931 1.6438 4.86435 1.32781 5.33731C0.474044 6.7899 0 8.47909 0 10.2022C0 12.0265 0.505818 13.7833 1.48569 15.2698C1.67532 15.5401 1.95976 15.7091 2.27595 15.7091C2.46558 15.7091 2.65521 15.6415 2.8133 15.5401C3.25584 15.2361 3.35065 14.5942 3.03468 14.1212C2.30747 12.9724 1.89671 11.6211 1.89671 10.2022L1.89675 10.2022Z"
          fill="#B62122"/>
    <path d="M5.15272 12.9725C5.62679 12.7359 5.81665 12.1279 5.59526 11.6213C5.40563 11.182 5.31081 10.709 5.31081 10.2361C5.31081 9.7968 5.37409 9.39147 5.53219 9.01984C5.72182 8.51318 5.50066 7.90498 5.02637 7.70227C4.55231 7.49961 3.98323 7.73597 3.79357 8.24287C3.54065 8.88482 3.41431 9.56044 3.41431 10.2361C3.41431 11.0469 3.5724 11.7902 3.88837 12.5332C4.04647 12.9049 4.39419 13.1075 4.74191 13.1075C4.89979 13.0738 5.02614 13.0401 5.1527 12.9725L5.15272 12.9725Z"
          fill="#B62122"/>
    <path d="M28.6707 5.37185C28.3863 4.89889 27.7856 4.76387 27.3431 5.06785C26.9005 5.37186 26.7742 6.0138 27.0586 6.48678C27.754 7.60165 28.1018 8.88556 28.1018 10.2368C28.1018 11.6557 27.6908 13.0072 26.9638 14.1558C26.6793 14.6288 26.7742 15.237 27.1852 15.5747C27.3433 15.7097 27.5329 15.7437 27.7225 15.7437C28.007 15.7437 28.3232 15.6086 28.5128 15.3044C29.4926 13.8179 29.9985 12.061 29.9985 10.2368C30.0298 8.48001 29.5557 6.79081 28.6707 5.37189L28.6707 5.37185Z"
          fill="#B62122"/>
    <path d="M25.0039 7.66883C24.5299 7.8715 24.2769 8.4797 24.4981 8.9864C24.6562 9.35803 24.7195 9.79727 24.7195 10.2026C24.7195 10.6756 24.6247 11.1486 24.435 11.5878C24.2137 12.0945 24.4035 12.7027 24.8776 12.939C25.0039 13.0067 25.162 13.0404 25.2886 13.0404C25.6363 13.0404 25.984 12.8377 26.1421 12.4661C26.4583 11.7565 26.6162 10.9795 26.6162 10.1689C26.6162 9.45932 26.4898 8.78371 26.2369 8.17572C26.0471 7.70252 25.478 7.43224 25.0039 7.66883L25.0039 7.66883Z"
          fill="#B62122"/>
</svg>
