<svg width="27" height="27" viewBox="0 0 27 27" fill="none" xmlns="http://www.w3.org/2000/svg">
<path d="M10.697 25.3364H1.5303C1.22724 25.3364 1 25.1092 1 24.8061V15.8667C1 15.5637 1.22723 15.3364 1.5303 15.3364H10.4697C10.7728 15.3364 11 15.5637 11 15.8667V25.0334C11 25.1848 10.8486 25.3364 10.6969 25.3364L10.697 25.3364Z" stroke="#B72122" stroke-width="2" stroke-miterlimit="10" stroke-linecap="round" stroke-linejoin="round"/>
<path d="M25.4685 25.3364H16.3018C15.9987 25.3364 15.7715 25.1092 15.7715 24.8061V15.8667C15.7715 15.5637 15.9987 15.3364 16.3018 15.3364H25.2412C25.5442 15.3364 25.7715 15.5637 25.7715 15.8667V25.0334C25.7715 25.1848 25.6198 25.3364 25.4684 25.3364L25.4685 25.3364Z" stroke="#B72122" stroke-width="2" stroke-miterlimit="10" stroke-linecap="round" stroke-linejoin="round"/>
<path d="M10.697 11H1.5303C1.22724 11 1 10.7727 1 10.4697V1.5303C1 1.22724 1.22723 1 1.5303 1H10.4697C10.7728 1 11 1.22723 11 1.5303V10.6969C11 10.8486 10.8486 11 10.6969 11L10.697 11Z" stroke="#B72122" stroke-width="2" stroke-miterlimit="10" stroke-linecap="round" stroke-linejoin="round"/>
<path d="M25.4665 11H16.2998C15.9968 11 15.7695 10.7727 15.7695 10.4697V1.5303C15.7695 1.22724 15.9968 1 16.2998 1H25.2392C25.5423 1 25.7695 1.22723 25.7695 1.5303V10.6969C25.7695 10.8486 25.6179 11 25.4665 11L25.4665 11Z" stroke="#B72122" stroke-width="2" stroke-miterlimit="10" stroke-linecap="round" stroke-linejoin="round"/>
</svg>
