<svg width="49" height="49" viewBox="0 0 49 49" fill="none" xmlns="http://www.w3.org/2000/svg">
<path opacity="0.3" d="M36.5 28.5C28.76 28.5 22.5 22.24 22.5 14.5C22.5 12.34 22.98 10.32 23.86 8.5H16.5V4.5H14.5V32.5C14.5 32.5 4.5 30.5 4.5 36.5C4.5 38.5 7.2 42.5 10.5 42.5H40.5V27.92C39.24 28.3 37.9 28.5 36.5 28.5Z" fill="#E7142D"/>
<path d="M36.5 38.5H10.5C9.4 38.5 8.5 37.6 8.5 36.5C8.5 35.4 9.4 34.5 10.5 34.5H16.5V12.5H22.64C22.84 11.08 23.26 9.74 23.86 8.5H16.5V4.5H10.5C7.2 4.5 4.5 7.2 4.5 10.5V36.5C4.5 39.8 7.2 42.5 10.5 42.5H40.5V27.92C39.24 28.3 37.9 28.5 36.5 28.5V38.5ZM8.5 10.5C8.5 9.4 9.4 8.5 10.5 8.5H12.5V30.5H10.5C9.8 30.5 9.12 30.62 8.5 30.84V10.5Z" fill="#E7142D"/>
<path d="M33.74 20.5L33.92 22.06L34.14 24.06C34.18 24.3 34.4 24.5 34.66 24.5H38.4C38.66 24.5 38.88 24.3 38.9 24.06L39.14 22.06L39.32 20.5H33.74ZM39.14 6.94L38.9 4.94C38.88 4.7 38.66 4.5 38.4 4.5H34.66C34.4 4.5 34.18 4.7 34.14 4.94L33.92 6.94L33.74 8.5H39.32L39.14 6.94ZM46.12 11.12L44.26 7.88C44.12 7.66 43.84 7.56 43.62 7.66L41.76 8.46L40.5 9L40.32 9.08L40.5 9.4L43.12 13.92L44.38 12.98L45.98 11.78C46.2 11.62 46.26 11.34 46.12 11.12ZM29.94 15.08L28.66 16.02L27.06 17.22C26.86 17.38 26.8 17.66 26.94 17.88L28.8 21.12C28.94 21.34 29.2 21.44 29.44 21.34L31.28 20.54L32.72 19.92L29.94 15.08ZM31.38 8.5L31.28 8.46L29.44 7.66C29.2 7.56 28.92 7.66 28.8 7.88L28.44 8.5L26.92 11.12C26.8 11.34 26.86 11.62 27.06 11.78L28.02 12.5L28.66 12.98L29.94 13.92L30.76 12.5L32.72 9.08L31.38 8.5ZM45.98 17.22L44.38 16.02L43.12 15.08L40.5 19.6L40.32 19.92L40.5 20L41.78 20.54L43.6 21.32C43.84 21.44 44.12 21.34 44.24 21.12L46.12 17.88C46.26 17.66 46.2 17.36 45.98 17.22Z" fill="#E7142D"/>
<path d="M44.3795 12.98C44.0195 11.18 43.0795 9.6 41.7595 8.46C40.9995 7.8 40.1195 7.28 39.1395 6.94C38.3195 6.66 37.4395 6.5 36.5195 6.5C35.5995 6.5 34.7195 6.66 33.9195 6.94C32.9395 7.26 32.0395 7.78 31.2795 8.46C31.2595 8.46 31.2395 8.48 31.2195 8.5C30.0395 9.54 29.1795 10.92 28.7795 12.5C28.7395 12.66 28.6995 12.82 28.6595 12.98C28.5795 13.46 28.5195 13.98 28.5195 14.5C28.5195 15.02 28.5795 15.54 28.6595 16.02C29.0195 17.82 29.9595 19.4 31.2795 20.54C32.0395 21.22 32.9395 21.74 33.9195 22.06C34.7195 22.34 35.5995 22.5 36.4995 22.5H36.5195C37.4395 22.5 38.3195 22.34 39.1395 22.06C39.6195 21.9 40.0795 21.68 40.4995 21.44C40.9595 21.18 41.3795 20.88 41.7795 20.54C43.0995 19.38 44.0195 17.82 44.3795 16.02C44.4595 15.54 44.5195 15.02 44.5195 14.5C44.5195 13.98 44.4595 13.46 44.3795 12.98ZM36.5195 18H36.4995C34.5795 17.98 33.0195 16.44 33.0195 14.5C33.0195 13.76 33.2595 13.06 33.6595 12.5C34.2795 11.6 35.3395 11 36.5195 11C38.4595 11 40.0195 12.56 40.0195 14.5C40.0195 16.44 38.4595 18 36.5195 18Z" fill="#E7142D"/>
</svg>
