<svg width="49" height="49" viewBox="0 0 49 49" fill="none" xmlns="http://www.w3.org/2000/svg">
<path opacity="0.3" d="M8.5 8.5H40.5V20.5H8.5V8.5Z" fill="#E7142D"/>
<path d="M16.5 20.5H20.5V40.5H16.5V20.5ZM24.5 30.5H34.5V34.5H24.5V30.5ZM24.5 24.5H34.5V28.5H24.5V24.5Z" fill="#E7142D"/>
<path d="M38.5 42.5H10.5C8.3 42.5 6.5 40.7 6.5 38.5V10.5C6.5 8.3 8.3 6.5 10.5 6.5H38.5C40.7 6.5 42.5 8.3 42.5 10.5V38.5C42.5 40.7 40.7 42.5 38.5 42.5ZM10.5 10.5V38.5H38.5V10.5H10.5Z" fill="#E7142D"/>
<path d="M8.5 18.5H40.5V22.5H8.5V18.5ZM14.5 12.5C13.9696 12.5 13.4609 12.7107 13.0858 13.0858C12.7107 13.4609 12.5 13.9696 12.5 14.5C12.5 15.0304 12.7107 15.5391 13.0858 15.9142C13.4609 16.2893 13.9696 16.5 14.5 16.5C15.0304 16.5 15.5391 16.2893 15.9142 15.9142C16.2893 15.5391 16.5 15.0304 16.5 14.5C16.5 13.9696 16.2893 13.4609 15.9142 13.0858C15.5391 12.7107 15.0304 12.5 14.5 12.5ZM20.5 12.5C19.9696 12.5 19.4609 12.7107 19.0858 13.0858C18.7107 13.4609 18.5 13.9696 18.5 14.5C18.5 15.0304 18.7107 15.5391 19.0858 15.9142C19.4609 16.2893 19.9696 16.5 20.5 16.5C21.0304 16.5 21.5391 16.2893 21.9142 15.9142C22.2893 15.5391 22.5 15.0304 22.5 14.5C22.5 13.9696 22.2893 13.4609 21.9142 13.0858C21.5391 12.7107 21.0304 12.5 20.5 12.5ZM26.5 12.5H34.5V16.5H26.5V12.5Z" fill="#E7142D"/>
</svg>
