<svg width="49" height="49" viewBox="0 0 49 49" fill="none" xmlns="http://www.w3.org/2000/svg">
<path opacity="0.3" d="M22.5 16.5H42.5V40.5H22.5V16.5Z" fill="#E7142D"/>
<path d="M4.5 6.5V42.5H24.5V6.5H4.5ZM12.5 14.5H8.5V10.5H12.5V14.5ZM20.5 14.5H16.5V10.5H20.5V14.5ZM12.5 22.5H8.5V18.5H12.5V22.5ZM20.5 22.5H16.5V18.5H20.5V22.5ZM12.5 30.5H8.5V26.5H12.5V30.5ZM20.5 30.5H16.5V26.5H20.5V30.5ZM12.5 38.5H8.5V34.5H12.5V38.5ZM20.5 38.5H16.5V34.5H20.5V38.5ZM24.5 14.5V18.5H40.5V38.5H24.5V42.5H44.5V14.5H24.5Z" fill="#E7142D"/>
<path d="M22.5 22.5H28.5V26.5H22.5V22.5ZM22.5 30.5H28.5V34.5H22.5V30.5ZM32.5 22.5H36.5V26.5H32.5V22.5ZM32.5 30.5H36.5V34.5H32.5V30.5Z" fill="#E7142D"/>
</svg>
