<svg width="49" height="49" viewBox="0 0 49 49" fill="none" xmlns="http://www.w3.org/2000/svg">
<path opacity="0.3" d="M6.5 12.5H16.3L18.5 18.5L22.5 19.9L28.5 18.5L34.5 22.5L36.1 27.7L24.5 38.5L22.5 40.5L18.1 38.5L6.5 28.5V12.5Z" fill="#E7142D"/>
<path d="M22.3 42.5C20.9 42.5 19.7 42.1 18.7 41.1L6.5 30.5H4.5V10.5H22.5C22.7 10.5 22.7 10.5 22.9 10.5L25.9 9.1C27.5 8.3 29.5 8.3 31.1 9.1L38.5 12.3L46.5 9.7V34.5H32.5L26.1 40.9C25.1 41.9 23.7 42.5 22.3 42.5ZM8.5 26.9L21.3 38.1C21.9 38.5 22.7 38.5 23.3 38.1L34.1 27.3C34.5 26.9 34.5 26.5 34.5 26.1C34.5 25.7 34.3 25.3 33.9 24.9L28.1 19.7L23.9 21.3C21.1 22.5 17.9 21.1 16.5 18.5L14.5 14.5H8.5V26.9ZM36.5 30.5H42.5V15.3L38.5 16.7L29.5 12.7C28.9 12.5 28.1 12.5 27.5 12.7L19.9 16.3L20.1 16.7C20.5 17.5 21.5 17.9 22.5 17.7L28.9 15.3L36.5 21.9C37.7 22.9 38.3 24.3 38.5 25.9C38.5 27.5 37.9 28.9 36.9 30.1L36.5 30.5Z" fill="#E7142D"/>
</svg>
