<svg width="49" height="49" viewBox="0 0 49 49" fill="none" xmlns="http://www.w3.org/2000/svg">
<g clip-path="url(#clip0_1244_7916)">
<path d="M46.326 40.02C46.422 39.526 46.48 39.02 46.48 38.5C46.48 37.98 46.422 37.474 46.326 36.98L47.94 35.782C48.146 35.628 48.206 35.344 48.076 35.122L46.204 31.878C46.076 31.656 45.8 31.564 45.564 31.666L43.692 32.476C42.934 31.82 42.058 31.308 41.09 30.972L40.856 28.948C40.826 28.692 40.61 28.5 40.352 28.5H36.608C36.35 28.5 36.134 28.692 36.104 28.948L35.87 30.972C34.902 31.308 34.026 31.82 33.268 32.476L31.396 31.666C31.16 31.564 30.884 31.656 30.756 31.878L28.884 35.122C28.756 35.344 28.814 35.628 29.02 35.782L30.634 36.98C30.538 37.474 30.48 37.98 30.48 38.5C30.48 39.02 30.538 39.526 30.634 40.02L29.02 41.218C28.814 41.372 28.754 41.656 28.884 41.878L30.756 45.12C30.884 45.344 31.16 45.434 31.396 45.332L33.268 44.522C34.026 45.18 34.902 45.692 35.87 46.028L36.104 48.052C36.134 48.308 36.35 48.5 36.608 48.5H40.352C40.61 48.5 40.826 48.308 40.856 48.052L41.09 46.028C42.058 45.692 42.934 45.18 43.692 44.524L45.564 45.334C45.8 45.436 46.076 45.344 46.204 45.122L48.076 41.88C48.204 41.656 48.146 41.372 47.94 41.22L46.326 40.02ZM38.48 42.5C36.272 42.5 34.48 40.708 34.48 38.5C34.48 36.29 36.272 34.5 38.48 34.5C40.688 34.5 42.48 36.29 42.48 38.5C42.48 40.708 40.688 42.5 38.48 42.5Z" fill="#E7142D"/>
<path d="M24.5 38.5C24.5 37.82 24.566 37.154 24.66 36.5H8.5V16.5H40.5V24.66C41.914 24.862 43.256 25.274 44.5 25.866V16.5C44.5 14.3 42.7 12.5 40.5 12.5H24.5L20.5 8.5H8.5C6.3 8.5 4.5 10.3 4.5 12.5V36.5C4.5 38.7 6.3 40.5 8.5 40.5H24.66C24.566 39.846 24.5 39.18 24.5 38.5Z" fill="#E7142D"/>
<path opacity="0.3" d="M38.5 24.5C39.89 24.5 41.232 24.71 42.5 25.088V14.5H6.5V38.5H24.5C24.5 30.768 30.768 24.5 38.5 24.5Z" fill="#E7142D"/>
</g>
<defs>
<clipPath id="clip0_1244_7916">
<rect width="48" height="48" fill="white" transform="translate(0.5 0.5)"/>
</clipPath>
</defs>
</svg>
