<svg width="49" height="49" viewBox="0 0 49 49" fill="none" xmlns="http://www.w3.org/2000/svg">
<g clip-path="url(#clip0_1244_7866)">
<path opacity="0.3" d="M24.5 20.5C27.8137 20.5 30.5 17.8137 30.5 14.5C30.5 11.1863 27.8137 8.5 24.5 8.5C21.1863 8.5 18.5 11.1863 18.5 14.5C18.5 17.8137 21.1863 20.5 24.5 20.5Z" fill="#E7142D"/>
<path opacity="0.3" d="M24.5 30.5C18.182 30.5 8.5 33.636 8.5 37.5V40.5H26.5V30.5C24.5 30.5 25.136 30.5 24.5 30.5Z" fill="#E7142D"/>
<path opacity="0.3" d="M44.5 46.5H28.5C27.396 46.5 26.5 45.604 26.5 44.5V32.5C26.5 31.396 27.396 30.5 28.5 30.5H44.5C45.604 30.5 46.5 31.396 46.5 32.5V44.5C46.5 45.604 45.604 46.5 44.5 46.5Z" fill="#E7142D"/>
<path d="M24.5 22.5C20.088 22.5 16.5 18.912 16.5 14.5C16.5 10.088 20.088 6.5 24.5 6.5C28.912 6.5 32.5 10.088 32.5 14.5C32.5 18.912 28.912 22.5 24.5 22.5ZM24.5 10.5C22.294 10.5 20.5 12.294 20.5 14.5C20.5 16.706 22.294 18.5 24.5 18.5C26.706 18.5 28.5 16.706 28.5 14.5C28.5 12.294 26.706 10.5 24.5 10.5Z" fill="#E7142D"/>
<path d="M26.5 42.5H6.5V37.5C6.5 31.592 18.218 28.5 24.5 28.5H28.5V32.5H24.5C17.916 32.5 10.5 35.762 10.5 37.5V38.5H26.5V42.5Z" fill="#E7142D"/>
<path d="M44.5 48.5H28.5C26.294 48.5 24.5 46.706 24.5 44.5V32.5C24.5 30.294 26.294 28.5 28.5 28.5H44.5C46.706 28.5 48.5 30.294 48.5 32.5V44.5C48.5 46.706 46.706 48.5 44.5 48.5ZM44.5 44.5V46.5V44.5ZM28.5 32.5V44.5H44.498L44.5 32.5H28.5Z" fill="#E7142D"/>
<path d="M42.5 30.5H38.5V26.5H34.5V30.5H30.5V26.5C30.5 24.294 32.294 22.5 34.5 22.5H38.5C40.706 22.5 42.5 24.294 42.5 26.5V30.5Z" fill="#E7142D"/>
<path d="M42.5 42.5H30.5C27.192 42.5 24.5 39.808 24.5 36.5H28.5C28.5 37.604 29.396 38.5 30.5 38.5H42.5C43.604 38.5 44.5 37.604 44.5 36.5H48.5C48.5 39.808 45.808 42.5 42.5 42.5Z" fill="#E7142D"/>
<path d="M38.5 36.5H34.5V40.5H38.5V36.5Z" fill="#E7142D"/>
</g>
<defs>
<clipPath id="clip0_1244_7866">
<rect width="48" height="48" fill="white" transform="translate(0.5 0.5)"/>
</clipPath>
</defs>
</svg>
