<svg width="67" height="67" viewBox="0 0 67 67" fill="none" xmlns="http://www.w3.org/2000/svg">
<path d="M11.6665 66.5004H55.5334C58.4422 66.5004 61.2315 65.3448 63.2883 63.2885C65.3447 61.2316 66.5002 58.4423 66.5002 55.5336V11.6668C66.5002 8.75791 65.3446 5.96862 63.2883 3.91187C61.2314 1.85549 58.4421 0.699951 55.5334 0.699951H11.6665C8.75767 0.699951 5.96838 1.85554 3.91163 3.91187C1.85525 5.96874 0.699707 8.75803 0.699707 11.6668V55.5336C0.699707 58.4425 1.8553 61.2318 3.91163 63.2885C5.9685 65.3449 8.75779 66.5004 11.6665 66.5004ZM55.5334 62.8358H11.6665C10.2121 62.8358 8.08011 61.0139 7.05161 59.9855C6.02312 58.9571 5.0157 56.988 5.0157 55.5336L4.57747 28.1167H62.4286V55.5336C62.4286 56.988 61.8283 58.957 60.7999 59.9855C59.7715 61.014 56.9878 62.8358 55.5334 62.8358ZM4.57747 10.0608C4.57747 8.60638 5.15503 7.2118 6.18343 6.1833C7.21183 5.15481 8.60651 4.57734 10.0609 4.57734H55.5334C56.9878 4.57734 58.957 5.61605 59.9855 6.64445C61.014 7.67285 62.4286 10.2123 62.4286 11.6668V22.6332H4.57747V10.0608Z" fill="#D11329"/>
<path d="M17.1499 14.4087C17.1499 15.9228 15.9221 17.1506 14.4079 17.1506C12.8938 17.1506 11.6665 15.9228 11.6665 14.4087C11.6665 12.8945 12.8938 11.6672 14.4079 11.6672C15.9221 11.6672 17.1499 12.8945 17.1499 14.4087Z" fill="#D11329"/>
<path d="M28.1171 14.4087C28.1171 15.9228 26.8899 17.1506 25.3757 17.1506C23.8615 17.1506 22.6338 15.9228 22.6338 14.4087C22.6338 12.8945 23.8615 11.6672 25.3757 11.6672C26.8899 11.6672 28.1171 12.8945 28.1171 14.4087Z" fill="#D11329"/>
<path d="M39.084 14.4087C39.084 15.9228 37.8562 17.1506 36.342 17.1506C34.8279 17.1506 33.6006 15.9228 33.6006 14.4087C33.6006 12.8945 34.8279 11.6672 36.342 11.6672C37.8562 11.6672 39.084 12.8945 39.084 14.4087Z" fill="#D11329"/>
<path d="M28.2496 42.0747L23.1456 43.8827L28.2496 45.6907V48.0267L20.3616 45.1147V42.6507L28.2496 39.7387V42.0747ZM45.8559 42.6507V45.1147L37.9679 48.0267V45.6907L43.0719 43.8827L37.9679 42.0747V39.7387L45.8559 42.6507Z" fill="#D11329"/>
</svg>
