<svg width="30" height="30" viewBox="0 0 30 30" fill="none" xmlns="http://www.w3.org/2000/svg">
<path d="M24.3778 0.921875H5.62219C4.13159 0.923391 2.70251 1.49659 1.64834 2.51528C0.594506 3.5343 0.00152602 4.91574 0 6.35666V24.4871C0.00156867 25.928 0.59453 27.3095 1.64834 28.3285C2.70251 29.3472 4.13159 29.9204 5.62219 29.9219H24.3778C25.8684 29.9204 27.2975 29.3472 28.3517 28.3285C29.4055 27.3095 29.9985 25.928 30 24.4871V6.35666C29.9984 4.91574 29.4055 3.5343 28.3517 2.51528C27.2975 1.49656 25.8684 0.92335 24.3778 0.921875ZM27.7511 24.4871C27.7502 25.3518 27.3944 26.1806 26.7619 26.7918C26.1298 27.4032 25.2723 27.7471 24.3778 27.748H5.62219C4.7277 27.7471 3.87031 27.4031 3.23806 26.7918C2.60556 26.1806 2.24976 25.3518 2.24888 24.4871V6.35666C2.24982 5.49198 2.60559 4.66318 3.23806 4.052C3.87024 3.44059 4.7277 3.09664 5.62219 3.09579H24.3778C25.2723 3.0967 26.1297 3.44062 26.7619 4.052C27.3944 4.66311 27.7502 5.49198 27.7511 6.35666V24.4871ZM17.4489 10.2192C17.4492 10.5077 17.3306 10.7842 17.1197 10.988C16.9089 11.1922 16.6228 11.3065 16.3244 11.3062H7.81243C7.19154 11.3062 6.68799 10.8197 6.68799 10.2192C6.68799 9.61904 7.19154 9.13228 7.81243 9.13228H16.3244C16.6228 9.13228 16.9089 9.24662 17.1197 9.45073C17.3306 9.65453 17.4492 9.93112 17.4489 10.2192ZM23.3126 10.2192C23.313 10.5077 23.1944 10.7842 22.9835 10.988C22.7727 11.1922 22.4866 11.3065 22.1882 11.3062H20.4225C19.8016 11.3062 19.2981 10.8197 19.2981 10.2192C19.2981 9.61904 19.8016 9.13228 20.4225 9.13228H22.1882C22.4866 9.13228 22.7727 9.24662 22.9835 9.45073C23.1944 9.65453 23.313 9.93112 23.3126 10.2192ZM17.4489 15.4217C17.4492 15.7101 17.3306 15.9867 17.1197 16.1905C16.9089 16.3943 16.6228 16.509 16.3244 16.5087H7.81243C7.19154 16.5087 6.68799 16.0219 6.68799 15.4217C6.68799 14.8215 7.19154 14.3348 7.81243 14.3348H16.3244C16.6228 14.3345 16.9089 14.4491 17.1197 14.6529C17.3306 14.8567 17.4492 15.1333 17.4489 15.4217ZM23.3126 15.4217C23.313 15.7101 23.1944 15.9867 22.9835 16.1905C22.7727 16.3943 22.4866 16.509 22.1882 16.5087H20.4225C19.8016 16.5087 19.2981 16.0219 19.2981 15.4217C19.2981 14.8215 19.8016 14.3348 20.4225 14.3348H22.1882C22.4866 14.3345 22.7727 14.4491 22.9835 14.6529C23.1944 14.8567 23.313 15.1333 23.3126 15.4217ZM17.4489 20.6242C17.4492 20.9123 17.3306 21.1889 17.1197 21.3927C16.9089 21.5968 16.6228 21.7112 16.3244 21.7112H7.81243C7.19154 21.7112 6.68799 21.2244 6.68799 20.6242C6.68799 20.0237 7.19154 19.5372 7.81243 19.5372H16.3244C16.6228 19.5369 16.9089 19.6513 17.1197 19.8554C17.3306 20.0592 17.4492 20.3358 17.4489 20.6242ZM23.3126 20.6242C23.313 20.9123 23.1944 21.1889 22.9835 21.3927C22.7727 21.5968 22.4866 21.7112 22.1882 21.7112H20.4225C19.8016 21.7112 19.2981 21.2244 19.2981 20.6242C19.2981 20.0237 19.8016 19.5372 20.4225 19.5372H22.1882C22.4866 19.5369 22.7727 19.6513 22.9835 19.8554C23.1944 20.0592 23.313 20.3358 23.3126 20.6242Z" fill="#BBBBBB"/>
</svg>
