<svg width="32" height="32" viewBox="0 0 32 32" fill="none" xmlns="http://www.w3.org/2000/svg">
<path d="M20.8285 2.6665H25.9479C25.9479 2.6665 29.0441 3.45413 29.3332 6.15092V15.773L15.1346 6.15092H7.786C7.786 6.15092 6.17466 6.27433 6.09156 7.76609V10.3068C6.20277 10.8333 6.5138 11.2955 6.95865 11.5953L23.39 22.916H17.483L4.64279 14.0417C4.64279 14.0417 2.78578 12.9528 2.78578 11.6352V6.60462C2.78578 6.60462 2.70269 2.9968 6.62627 2.6665H16.0595L26.1105 9.63534L26.0274 6.6881C26.0274 6.6881 24.9435 4.78256 20.8249 2.83347" fill="#B72222"/>
<path d="M11.1712 29.333H6.05177C6.05177 29.333 2.95553 28.5454 2.6665 25.8486V16.2266L16.8651 25.8486H24.2137C24.2137 25.8486 25.825 25.7252 25.9081 24.2334V21.6927C25.7969 21.1663 25.4859 20.7041 25.041 20.4042L8.60969 9.0835H14.5131L27.3533 17.9579C27.3533 17.9579 29.2103 19.0467 29.2103 20.3643V25.384C29.2103 25.384 29.2934 28.9918 25.3698 29.3221H15.9366L5.88558 22.3678L5.96868 25.3114C5.96868 25.3114 7.05254 27.217 11.1712 29.1661" fill="#B72222"/>
</svg>
