<svg width="78" height="69" viewBox="0 0 78 69" fill="none" xmlns="http://www.w3.org/2000/svg">
<path d="M73.8906 0.8125H4.10938C2.11934 0.8125 0.5 2.43184 0.5 4.42188V64.5781C0.5 66.5682 2.11934 68.1875 4.10938 68.1875H73.8906C75.8807 68.1875 77.5 66.5682 77.5 64.5781V4.42188C77.5 2.43184 75.8807 0.8125 73.8906 0.8125ZM4.10938 3.21875H73.8906C74.5545 3.21875 75.0938 3.75801 75.0938 4.42188V12.8438H2.90625V4.42188C2.90625 3.75801 3.44551 3.21875 4.10938 3.21875ZM73.8906 65.7812H4.10938C3.44551 65.7812 2.90625 65.242 2.90625 64.5781V15.25H75.0938V64.5781C75.0938 65.242 74.5545 65.7812 73.8906 65.7812Z" fill="#D11329"/>
<path d="M69.0781 11.6406C71.0682 11.6406 72.6875 10.0213 72.6875 8.03125C72.6875 6.04121 71.0682 4.42188 69.0781 4.42188C67.0881 4.42188 65.4688 6.04121 65.4688 8.03125C65.4688 10.0213 67.0881 11.6406 69.0781 11.6406ZM69.0781 6.82813C69.742 6.82813 70.2812 7.36739 70.2812 8.03125C70.2812 8.69512 69.742 9.23438 69.0781 9.23438C68.4143 9.23438 67.875 8.69512 67.875 8.03125C67.875 7.36739 68.4143 6.82813 69.0781 6.82813Z" fill="#D11329"/>
<path d="M59.4531 11.6406C61.4432 11.6406 63.0625 10.0213 63.0625 8.03125C63.0625 6.04121 61.4432 4.42188 59.4531 4.42188C57.4631 4.42188 55.8438 6.04121 55.8438 8.03125C55.8438 10.0213 57.4631 11.6406 59.4531 11.6406ZM59.4531 6.82813C60.117 6.82813 60.6562 7.36739 60.6562 8.03125C60.6562 8.69512 60.117 9.23438 59.4531 9.23438C58.7893 9.23438 58.25 8.69512 58.25 8.03125C58.25 7.36739 58.7893 6.82813 59.4531 6.82813Z" fill="#D11329"/>
<path d="M49.8281 11.6406C51.8182 11.6406 53.4375 10.0213 53.4375 8.03125C53.4375 6.04121 51.8182 4.42188 49.8281 4.42188C47.8381 4.42188 46.2188 6.04121 46.2188 8.03125C46.2188 10.0213 47.8381 11.6406 49.8281 11.6406ZM49.8281 6.82813C50.492 6.82813 51.0313 7.36739 51.0313 8.03125C51.0313 8.69512 50.492 9.23438 49.8281 9.23438C49.1643 9.23438 48.625 8.69512 48.625 8.03125C48.625 7.36739 49.1643 6.82813 49.8281 6.82813Z" fill="#D11329"/>
<path d="M7.71875 21.2656H19.75C20.4155 21.2656 20.9531 20.728 20.9531 20.0625C20.9531 19.397 20.4155 18.8594 19.75 18.8594H7.71875C7.05328 18.8594 6.51562 19.397 6.51562 20.0625C6.51562 20.728 7.05328 21.2656 7.71875 21.2656Z" fill="#D11329"/>
<path d="M13.7344 23.6719H7.71875C7.05328 23.6719 6.51562 24.2095 6.51562 24.875C6.51562 25.5405 7.05328 26.0781 7.71875 26.0781H13.7344C14.3998 26.0781 14.9375 25.5405 14.9375 24.875C14.9375 24.2095 14.3998 23.6719 13.7344 23.6719Z" fill="#D11329"/>
<path d="M70.2812 59.7656H58.25C57.5845 59.7656 57.0469 60.3033 57.0469 60.9688C57.0469 61.6342 57.5845 62.1719 58.25 62.1719H70.2812C70.9467 62.1719 71.4844 61.6342 71.4844 60.9688C71.4844 60.3033 70.9467 59.7656 70.2812 59.7656Z" fill="#D11329"/>
<path d="M70.2812 54.9531H64.2656C63.6002 54.9531 63.0625 55.4908 63.0625 56.1562C63.0625 56.8217 63.6002 57.3594 64.2656 57.3594H70.2812C70.9467 57.3594 71.4844 56.8217 71.4844 56.1562C71.4844 55.4908 70.9467 54.9531 70.2812 54.9531Z" fill="#D11329"/>
<path d="M22.2716 47.16C20.7249 47.16 19.5196 46.728 18.6556 45.864C17.7916 44.9893 17.3596 43.7413 17.3596 42.12V35.8H19.4396V42.04C19.4396 44.2373 20.3889 45.336 22.2876 45.336C24.1756 45.336 25.1196 44.2373 25.1196 42.04V35.8H27.1676V42.12C27.1676 43.7413 26.7356 44.9893 25.8716 45.864C25.0182 46.728 23.8182 47.16 22.2716 47.16ZM31.6806 35.8H33.7606V47H31.6806V35.8ZM43.2059 47.16C41.6593 47.16 40.4539 46.728 39.5899 45.864C38.7259 44.9893 38.2939 43.7413 38.2939 42.12V35.8H40.3739V42.04C40.3739 44.2373 41.3233 45.336 43.2219 45.336C45.1099 45.336 46.0539 44.2373 46.0539 42.04V35.8H48.1019V42.12C48.1019 43.7413 47.6699 44.9893 46.8059 45.864C45.9526 46.728 44.7526 47.16 43.2059 47.16ZM59.5147 47L56.4747 42.744L53.4667 47H51.0987L55.2587 41.288L51.3227 35.8H53.6747L56.5387 39.784L59.3707 35.8H61.6267L57.7067 41.208L61.9147 47H59.5147Z" fill="#D11329"/>
</svg>
