<svg width="32" height="25" viewBox="0 0 32 25" fill="none" xmlns="http://www.w3.org/2000/svg">
<path d="M25.7845 21.5053V21.0837C25.7845 18.3007 25.2132 16.1082 24.0709 14.5057C23.7444 13.9998 23.9892 13.3252 24.4788 13.2408C24.8867 13.1563 25.2949 13.0722 25.7845 13.0722C29.7828 13.0722 31.1699 16.8672 31.1699 19.4816C31.1699 20.8307 28.4772 21.5053 25.7845 21.5053V21.5053ZM15.585 9.78278C12.9739 9.78278 10.8522 7.59023 10.8522 4.89139C10.8522 2.19284 12.9736 0 15.585 0C18.196 0 20.3177 2.19255 20.3177 4.89139C20.3177 7.59023 18.196 9.78278 15.585 9.78278ZM25.7033 11.5538C23.745 11.5538 22.1128 9.86721 22.1128 7.84323C22.1128 5.81924 23.7447 4.13269 25.703 4.13269C27.6614 4.13269 29.2933 5.81924 29.2933 7.84323C29.2935 9.86721 27.6617 11.5538 25.7033 11.5538ZM5.38546 11.4696C3.42711 11.4696 1.87666 9.8672 1.87666 7.84322C1.87666 5.81924 3.42711 4.21682 5.38546 4.21682C7.34381 4.21682 8.89426 5.81924 8.89426 7.84322C8.89399 9.8672 7.34381 11.4696 5.38546 11.4696ZM15.585 11.8068C20.7256 11.8068 24.3157 13.8308 24.3157 20.8301C24.3157 22.6855 22.3573 24.8781 15.585 24.8781C8.81243 24.8784 6.85422 22.9385 6.85422 20.8304C6.85422 13.7465 10.3627 11.8063 15.585 11.8063V11.8068ZM0 19.6497C0 17.0353 1.30566 13.2403 5.38546 13.2403C5.87505 13.2403 6.28294 13.3248 6.69112 13.4089C7.2624 13.5775 7.4255 14.2523 7.09901 14.6739C5.95674 16.2763 5.38546 18.4689 5.38546 21.2518V21.6734C2.69273 21.6737 0 20.9991 0 19.6497Z" fill="#B72122"/>
</svg>
