<svg width="70" height="54" viewBox="0 0 70 54" fill="none" xmlns="http://www.w3.org/2000/svg">
<path d="M66.2866 0.518799H4.16062C3.30849 0.518799 2.49075 0.862726 1.88834 1.47481C1.28593 2.08689 0.947266 2.91762 0.947266 3.78316V46.2207C0.947266 47.0863 1.28582 47.917 1.88834 48.529C2.49086 49.141 3.3086 49.485 4.16062 49.485H30.9391V51.6613H25.0478C24.4563 51.6613 23.9767 52.1485 23.9767 52.7495C23.9767 53.3504 24.4563 53.8376 25.0478 53.8376H45.3994C45.991 53.8376 46.4706 53.3504 46.4706 52.7495C46.4706 52.1485 45.991 51.6613 45.3994 51.6613H39.5082V49.485H66.2866C67.1388 49.485 67.9565 49.1411 68.5589 48.529C69.1613 47.9169 69.5 47.0862 69.5 46.2207V3.78316C69.5 2.91751 69.1614 2.08678 68.5589 1.47481C67.9564 0.862838 67.1387 0.518799 66.2866 0.518799ZM21.2988 9.768C21.2988 9.4673 21.5384 9.22393 21.8344 9.22393H58.2531C58.3951 9.22393 58.5314 9.28125 58.6318 9.38326C58.7323 9.48526 58.7887 9.62372 58.7887 9.768V10.8561C58.7887 11.0004 58.7323 11.1389 58.6318 11.2409C58.5314 11.3429 58.3951 11.4002 58.2531 11.4002H21.8344C21.5384 11.4002 21.2988 11.1568 21.2988 10.8561V9.768ZM21.2988 18.4731C21.2988 18.1724 21.5384 17.9291 21.8344 17.9291H58.2531C58.3951 17.9291 58.5314 17.9864 58.6318 18.0884C58.7323 18.1904 58.7887 18.3288 58.7887 18.4731V19.5613C58.7887 19.7056 58.7323 19.844 58.6318 19.946C58.5314 20.048 58.3951 20.1053 58.2531 20.1053H21.8344C21.5384 20.1053 21.2988 19.862 21.2988 19.5613V18.4731ZM21.2988 27.1783C21.2988 26.8776 21.5384 26.6342 21.8344 26.6342H42.186C42.3281 26.6342 42.4643 26.6915 42.5648 26.7935C42.6652 26.8955 42.7216 27.034 42.7216 27.1783V28.2664C42.7216 28.4107 42.6652 28.5491 42.5648 28.6511C42.4644 28.7532 42.3281 28.8105 42.186 28.8105H21.8344C21.5384 28.8105 21.2988 28.5671 21.2988 28.2664V27.1783ZM21.2988 35.8834C21.2988 35.5827 21.5384 35.3393 21.8344 35.3393H31.4746C31.6167 35.3393 31.7529 35.3966 31.8534 35.4986C31.9538 35.6007 32.0102 35.7391 32.0102 35.8834V36.9715C32.0102 37.1158 31.9538 37.2542 31.8534 37.3563C31.753 37.4583 31.6167 37.5156 31.4746 37.5156H21.8344C21.5384 37.5156 21.2988 37.2722 21.2988 36.9715V35.8834ZM10.5874 9.22331H15.9431C16.5347 9.22331 17.0143 9.71054 17.0143 10.3114C17.0143 10.9123 16.5347 11.3996 15.9431 11.3996H10.5874C9.99594 11.3996 9.51631 10.9123 9.51631 10.3114C9.51631 9.71054 9.99594 9.22331 10.5874 9.22331ZM10.5874 17.9284H15.9431C16.5347 17.9284 17.0143 18.4157 17.0143 19.0166C17.0143 19.6175 16.5347 20.1047 15.9431 20.1047H10.5874C9.99594 20.1047 9.51631 19.6175 9.51631 19.0166C9.51631 18.4157 9.99594 17.9284 10.5874 17.9284ZM10.5874 26.6336H15.9431C16.5347 26.6336 17.0143 27.1208 17.0143 27.7217C17.0143 28.3226 16.5347 28.8098 15.9431 28.8098H10.5874C9.99594 28.8098 9.51631 28.3226 9.51631 27.7217C9.51631 27.1208 9.99594 26.6336 10.5874 26.6336ZM10.5874 35.3387H15.9431C16.5347 35.3387 17.0143 35.8259 17.0143 36.4268C17.0143 37.0277 16.5347 37.515 15.9431 37.515H10.5874C9.99594 37.515 9.51631 37.0277 9.51631 36.4268C9.51631 35.8259 9.99594 35.3387 10.5874 35.3387ZM37.3659 51.6608H33.0814V49.4845H37.3659V51.6608ZM67.3578 46.2201C67.3578 46.5087 67.2449 46.7856 67.0441 46.9896C66.8433 47.1936 66.5707 47.3083 66.2866 47.3083H4.16062C3.56911 47.3083 3.08948 46.821 3.08948 46.2201V45.132H67.3578V46.2201Z" fill="#D11329"/>
</svg>
