<svg width="25" height="23" viewBox="0 0 25 23" fill="none" xmlns="http://www.w3.org/2000/svg">
<path d="M18.9633 0.000200579C17.3621 -0.00371916 15.826 0.5683 14.6965 1.58846L1.70851 13.2653C0.610989 14.2468 -0.00436676 15.5821 2.33296e-05 16.9739V22.4772H6.12129C7.66935 22.4811 9.15462 21.9279 10.2463 20.9412L23.2343 9.26437C24.3655 8.24601 25.0006 6.86553 25 5.42645C24.9994 3.9871 24.3632 2.60709 23.2311 1.5896C22.0993 0.572033 20.564 0.000267586 18.9631 0L18.9633 0.000200579ZM8.47549 19.3534C7.85087 19.9144 7.00422 20.2296 6.12144 20.2299H2.50044V16.9744C2.49956 16.1795 2.85039 15.4167 3.47533 14.8541L13.2838 6.03915L18.284 10.5345L8.47549 19.3534ZM21.4634 7.67658L20.0509 8.94654L15.0507 4.45116L16.4633 3.1812C17.1181 2.55169 18.0291 2.18819 18.9877 2.1738C19.9463 2.15943 20.8703 2.49548 21.548 3.10514C22.2262 3.71452 22.6 4.54522 22.584 5.40705C22.568 6.26888 22.1637 7.08782 21.4634 7.67658Z" fill="#B62122"/>
</svg>
