<svg width="32" height="32" viewBox="0 0 32 32" fill="none" xmlns="http://www.w3.org/2000/svg">
<rect x="0.5" y="0.5" width="31" height="31" rx="3.5" fill="white"/>
<path d="M20.276 9.33325C20.1054 9.33325 19.9347 9.39856 19.8047 9.52856L18.4714 10.8619L17.5286 11.8046L10 19.3333V21.9999H12.6667L22.4714 12.1952C22.732 11.9346 22.732 11.5125 22.4714 11.2525L20.7474 9.52856C20.6174 9.39856 20.4467 9.33325 20.276 9.33325ZM20.276 10.9426L21.0573 11.7239L20.1953 12.5859L19.4141 11.8046L20.276 10.9426ZM18.4714 12.7473L19.2526 13.5286L12.1146 20.6666H11.3333V19.8853L18.4714 12.7473Z" fill="#7C7C7C"/>
<rect x="0.5" y="0.5" width="31" height="31" rx="3.5" stroke="#D3D3D3"/>
</svg>
