<svg width="28" height="29" viewBox="0 0 28 29" fill="none" xmlns="http://www.w3.org/2000/svg">
<path d="M2.93687 0C1.32598 0 0 1.37333 0 3.04176V25.9649C0 27.6334 1.32598 29 2.93687 29H25.0631C26.674 29 28 27.6336 28 25.9649V3.04176C28 1.37333 26.674 0 25.0631 0H2.93687ZM2.93687 1.70742H25.0631C25.7901 1.70742 26.353 2.28878 26.353 3.0417V5.33384H1.64872V3.0417C1.64872 2.28878 2.21004 1.70742 2.93699 1.70742H2.93687ZM4.38919 2.57529C3.89244 2.57529 3.47402 3.00864 3.47402 3.52316C3.47402 4.03765 3.89242 4.46602 4.38919 4.46602C4.88594 4.46602 5.30437 4.03768 5.30437 3.52316C5.30437 3.00866 4.88597 2.57529 4.38919 2.57529ZM7.42094 2.57529C6.92419 2.57529 6.50577 3.00864 6.50577 3.52316C6.50577 4.03765 6.92417 4.46602 7.42094 4.46602C7.9177 4.46602 8.33612 4.03768 8.33612 3.52316C8.33612 3.00866 7.91772 2.57529 7.42094 2.57529ZM10.4527 2.57529C9.95594 2.57529 9.53752 3.00864 9.53752 3.52316C9.53752 4.03765 9.95592 4.46602 10.4527 4.46602C10.9494 4.46602 11.3679 4.03768 11.3679 3.52316C11.3679 3.00866 10.9495 2.57529 10.4527 2.57529ZM1.64854 7.03961H26.3529V25.9646C26.3529 26.7175 25.7899 27.2939 25.063 27.2939L2.9367 27.2936C2.20974 27.2936 1.64843 26.7173 1.64843 25.9643L1.64854 7.03961ZM4.61436 9.53163V9.53139C4.39493 9.53067 4.18424 9.62063 4.02892 9.78126C3.87383 9.94213 3.78697 10.1603 3.78766 10.3878V19.4297C3.7895 19.9006 4.15965 20.2809 4.61437 20.279H10.8822C11.3346 20.2773 11.7009 19.898 11.7025 19.4297V10.3878C11.7043 9.91666 11.3371 9.53331 10.8824 9.53136L4.61436 9.53163ZM14.1343 9.53163L14.1346 9.53139C13.6792 9.53139 13.3102 9.91381 13.3102 10.3853C13.3102 10.8567 13.6792 11.2389 14.1346 11.2389H23.3858H23.3855C23.8409 11.2389 24.2099 10.8567 24.2099 10.3853C24.2099 9.91383 23.8409 9.53139 23.3855 9.53139L14.1343 9.53163ZM5.43489 11.239H10.0557V18.5733L5.43489 18.573V11.239ZM14.1343 14.0526L14.1346 14.0524C13.9129 14.0474 13.6987 14.1349 13.5404 14.2956C13.3818 14.456 13.2925 14.6758 13.2925 14.9053C13.2925 15.1349 13.3818 15.3548 13.5404 15.5152C13.6987 15.6758 13.9128 15.7634 14.1346 15.7582H23.3858H23.3855C23.8333 15.7479 24.1911 15.3693 24.1911 14.9053C24.1911 14.4415 23.8333 14.0629 23.3855 14.0524L14.1343 14.0526ZM14.1343 18.5736L14.1346 18.5733C13.9129 18.5683 13.6987 18.6559 13.5402 18.8165C13.3819 18.9769 13.2925 19.1968 13.2925 19.4262C13.2925 19.6559 13.3819 19.8758 13.5402 20.0362C13.6987 20.1968 13.9129 20.2844 14.1346 20.2791H23.3858H23.3855C23.8333 20.2689 24.1911 19.8901 24.1911 19.4263C24.1911 18.9627 23.8333 18.5838 23.3855 18.5734L14.1343 18.5736ZM4.61436 23.0945V23.0943C4.39286 23.0893 4.17872 23.1769 4.02016 23.3375C3.86185 23.4979 3.77247 23.7178 3.77247 23.9472C3.77247 24.1768 3.86185 24.3967 4.02016 24.5571C4.1787 24.7178 4.39283 24.8053 4.61436 24.8001H23.3855C23.6072 24.8053 23.8214 24.7178 23.9799 24.5571C24.1382 24.3968 24.2276 24.1769 24.2276 23.9472C24.2276 23.7178 24.1382 23.4979 23.9799 23.3375C23.8214 23.1769 23.6072 23.0893 23.3855 23.0943L4.61436 23.0945Z" fill="#BBBBBB"/>
</svg>
