<svg width="32" height="32" viewBox="0 0 32 32" fill="none" xmlns="http://www.w3.org/2000/svg">
<rect x="0.5" y="0.5" width="31" height="31" rx="3.5" fill="white"/>
<path d="M14.6665 9.33325L13.9998 9.99992H10.6665V11.3333H11.3332V21.3333C11.3332 21.6814 11.4607 22.0363 11.7121 22.2877C11.9634 22.539 12.3184 22.6666 12.6665 22.6666H19.3332C19.6813 22.6666 20.0362 22.539 20.2876 22.2877C20.5389 22.0363 20.6665 21.6814 20.6665 21.3333V11.3333H21.3332V9.99992H17.9998L17.3332 9.33325H14.6665ZM12.6665 11.3333H19.3332V21.3333H12.6665V11.3333ZM13.9998 12.6666V19.9999H15.3332V12.6666H13.9998ZM16.6665 12.6666V19.9999H17.9998V12.6666H16.6665Z" fill="#7C7C7C"/>
<rect x="0.5" y="0.5" width="31" height="31" rx="3.5" stroke="#D3D3D3"/>
</svg>
