<svg width="67" height="67" viewBox="0 0 67 67" fill="none" xmlns="http://www.w3.org/2000/svg">
<path d="M65.9995 45.8272H1.00049V5.48302C1.00049 3.00746 3.00795 1 5.48351 1H61.5171C63.9927 1 66.0001 3.00746 66.0001 5.48302L65.9995 45.8272Z" stroke="#848484" stroke-width="2" stroke-linecap="round" stroke-linejoin="round"/>
<path d="M61.5166 54.7925H5.48302C3.00746 54.7925 1 52.7855 1 50.31V45.8274H65.999V50.31C65.999 52.7855 63.9915 54.7925 61.516 54.7925H61.5166Z" stroke="#848484" stroke-width="2" stroke-linecap="round" stroke-linejoin="round"/>
<path d="M43.5857 65.9992H23.4136L26.7756 54.7925H40.2237L43.5857 65.9992Z" stroke="#848484" stroke-width="2" stroke-linecap="round" stroke-linejoin="round"/>
<path d="M45.8271 65.9993H21.1724" stroke="#848484" stroke-width="2" stroke-linecap="round" stroke-linejoin="round"/>
<path d="M49.1894 21.1723C49.1894 29.8377 42.1647 36.8617 33.5 36.8617C24.8353 36.8617 17.8105 29.8375 17.8105 21.1723C17.8105 12.5074 24.8353 5.48291 33.5 5.48291C42.1647 5.48291 49.1894 12.5072 49.1894 21.1723Z" stroke="#848484" stroke-width="2" stroke-linecap="round" stroke-linejoin="round"/>
<path d="M13.3276 41.3445H53.6718" stroke="#848484" stroke-width="2" stroke-linecap="round" stroke-linejoin="round"/>
<path d="M40.2239 21.1723C40.2239 29.8377 37.2137 36.8617 33.4999 36.8617C29.7861 36.8617 26.7759 29.8375 26.7759 21.1723C26.7759 12.5074 29.7861 5.48291 33.4999 5.48291C37.2137 5.48291 40.2239 12.5072 40.2239 21.1723Z" stroke="#848484" stroke-width="2" stroke-linecap="round" stroke-linejoin="round"/>
<path d="M17.8105 21.1724H49.1894" stroke="#848484" stroke-width="2" stroke-linecap="round" stroke-linejoin="round"/>
<path d="M33.5 5.48315V36.862" stroke="#848484" stroke-width="2" stroke-linecap="round" stroke-linejoin="round"/>
</svg>
